<svg width="74" height="24" viewBox="0 0 74 24" fill="none" xmlns="http://www.w3.org/2000/svg">
<g filter="url(#filter0_d_107_1863)">
<path d="M10.136 5.328C10.0187 5.78667 9.57067 6.128 8.792 6.352C8.088 6.544 7.45867 6.52267 6.904 6.288C6.648 6.17067 6.46133 6 6.344 5.776C6.23733 5.552 6.25333 5.264 6.392 4.912C6.89333 3.952 7.46933 3.14133 8.12 2.48C8.344 2.24533 8.568 2.05867 8.792 1.92C9.09067 1.68533 9.46933 1.49333 9.928 1.344C10.3973 1.184 10.8827 1.09867 11.384 1.088C12.5467 1.06667 13.4587 1.38667 14.12 2.048C14.728 2.57067 14.9947 3.248 14.92 4.08C14.824 5.136 14.0453 6.56533 12.584 8.368C11.976 9.11467 11.2773 9.84 10.488 10.544C9.70933 11.2373 8.968 11.92 8.264 12.592C7.96533 12.4213 7.848 12.2773 7.912 12.16C7.976 12.032 8.14667 11.9307 8.424 11.856C8.70133 11.7813 9.048 11.7333 9.464 11.712C9.88 11.68 10.2907 11.6747 10.696 11.696C11.6667 11.7493 12.232 11.888 12.392 12.112C12.5307 12.1973 12.616 12.3573 12.648 12.592C12.6907 12.8267 12.68 13.0827 12.616 13.36C12.4667 13.9893 12.1893 14.464 11.784 14.784C11.5067 15.0613 10.7653 15.2747 9.56 15.424C8.35467 15.5733 7.288 15.5893 6.36 15.472C5.912 15.408 5.55467 15.3067 5.288 15.168C5.02133 15.0293 4.92533 14.8587 5 14.656C5.07467 14.464 5.07467 14.3147 5 14.208C4.92533 14.1013 4.84533 13.9893 4.76 13.872C4.55733 13.5627 4.568 13.2 4.792 12.784C5.12267 12.2293 5.416 11.8133 5.672 11.536C5.928 11.2587 6.18933 10.96 6.456 10.64C6.73333 10.32 7.048 9.97333 7.4 9.6C7.76267 9.22667 8.12 8.85867 8.472 8.496C9.26133 7.664 9.93333 6.86933 10.488 6.112C10.744 5.73867 10.9413 5.392 11.08 5.072C11.2187 4.752 11.2773 4.39467 11.256 4C11.128 4.13867 11.0107 4.256 10.904 4.352C10.7973 4.43733 10.7013 4.528 10.616 4.624C10.392 4.83733 10.232 5.072 10.136 5.328ZM17.9588 1.904C18.3428 1.89333 18.7161 1.872 19.0788 1.84C19.4414 1.79733 19.8201 1.76 20.2148 1.728C20.6094 1.68533 20.9988 1.648 21.3828 1.616C21.7668 1.584 22.1134 1.57333 22.4228 1.584C23.1161 1.59467 23.4628 1.712 23.4628 1.936C23.7294 2.77867 23.5428 3.41867 22.9028 3.856C22.6468 4.02667 22.2254 4.15467 21.6388 4.24C21.0521 4.32533 20.6414 4.35733 20.4068 4.336C20.0761 4.29333 19.8148 4.272 19.6228 4.272C19.4841 4.50667 19.2761 4.832 18.9988 5.248C18.7214 5.65333 18.4494 6.05867 18.1828 6.464L17.8788 7.152C18.0708 6.87467 18.5721 6.69333 19.3828 6.608C20.1721 6.52267 20.8174 6.58133 21.3188 6.784C22.3214 7.24267 22.8708 7.94667 22.9668 8.896C23.0201 9.504 22.8654 10.3147 22.5028 11.328C22.2254 12.096 21.7614 12.7893 21.1108 13.408C20.5454 13.952 19.9161 14.368 19.2228 14.656C17.8468 15.2427 16.3321 15.2853 14.6788 14.784C14.3694 14.6987 14.1134 14.5547 13.9108 14.352C13.7188 14.16 13.5801 13.9467 13.4947 13.712C13.4094 13.4773 13.3827 13.2427 13.4147 13.008C13.4467 12.7627 13.5481 12.5547 13.7188 12.384C14.1028 11.9787 14.7001 11.8667 15.5108 12.048C16.2681 12.208 16.8014 12.24 17.1108 12.144C17.4201 12.0373 17.6814 11.8827 17.8948 11.68C18.1081 11.4773 18.2734 11.2693 18.3908 11.056C18.5188 10.832 18.6094 10.6613 18.6628 10.544C18.7161 10.416 18.7534 10.288 18.7748 10.16C18.8281 9.81867 18.7588 9.60533 18.5668 9.52C18.4494 9.47733 18.2521 9.47733 17.9748 9.52C17.6974 9.56267 17.3881 9.61067 17.0468 9.664C16.7054 9.71733 16.3588 9.76533 16.0068 9.808C15.6548 9.85067 15.3508 9.85067 15.0948 9.808C14.5188 9.712 14.3428 9.36 14.5668 8.752C14.5561 8.72 14.5614 8.72533 14.5828 8.768C14.6041 8.81067 14.6148 8.816 14.6148 8.784C14.3268 8.60267 14.1828 8.304 14.1828 7.888C14.3534 7.39733 14.5614 6.91733 14.8068 6.448C15.0628 5.968 15.2761 5.568 15.4468 5.248C15.6281 4.91733 15.7668 4.66133 15.8628 4.48C15.9694 4.288 16.0708 4.09067 16.1668 3.888C16.1134 3.90933 16.0868 3.904 16.0868 3.872C16.0974 3.82933 16.1188 3.776 16.1508 3.712C16.1934 3.648 16.2361 3.57867 16.2788 3.504C16.3321 3.41867 16.3748 3.344 16.4068 3.28C16.2681 2.82133 16.4281 2.464 16.8868 2.208C17.2281 2.016 17.5854 1.91467 17.9588 1.904ZM16.2948 3.696C16.3481 3.61067 16.3908 3.536 16.4228 3.472C16.4654 3.408 16.4601 3.38667 16.4068 3.408C16.3641 3.42933 16.3374 3.472 16.3268 3.536C16.3161 3.58933 16.3054 3.64267 16.2948 3.696ZM21.6548 1.936C21.9001 1.95733 22.0334 1.952 22.0548 1.92C22.0761 1.888 21.9428 1.89333 21.6548 1.936ZM17.5268 9.232C17.4841 9.22133 17.4948 9.22133 17.5588 9.232H17.5268ZM27.5354 14.528L27.2954 14.848C26.9114 15.1467 26.4954 15.3067 26.0474 15.328C25.578 15.3493 25.2634 15.2 25.1034 14.88C24.698 14.784 24.6074 14.4267 24.8314 13.808C25.034 13.2533 25.402 12.6987 25.9354 12.144C26.1167 11.9947 26.2554 11.84 26.3514 11.68C26.554 11.36 26.9167 10.9547 27.4394 10.464L31.0394 6.832C31.722 5.808 32.282 5.01333 32.7194 4.448C33.1674 3.88267 33.482 3.47733 33.6634 3.232C33.8447 2.976 34.042 2.736 34.2554 2.512C34.2767 2.448 34.2554 2.37867 34.1914 2.304C34.0634 2.144 34.01 2.032 34.0314 1.968C34.2767 1.38133 34.794 0.975999 35.5834 0.751999C36.3087 0.538666 36.9647 0.549333 37.5514 0.783999C38.1807 1.05067 38.4474 1.49333 38.3514 2.112C37.8394 3.36 36.778 4.75733 35.1674 6.304C34.7407 6.72 34.3247 7.136 33.9194 7.552L32.1594 9.344C32.042 9.49333 31.9194 9.63733 31.7914 9.776C31.6634 9.91467 31.4234 10.192 31.0714 10.608C29.706 12.2507 28.6394 13.4613 27.8714 14.24L27.5354 14.528ZM30.6074 12.336C30.554 12.144 30.5487 11.9467 30.5914 11.744C30.6447 11.5413 30.7034 11.3227 30.7674 11.088C30.874 10.6933 31.194 10.2453 31.7274 9.744C31.6954 9.488 31.786 9.23733 31.9994 8.992C32.2127 8.736 32.5274 8.51733 32.9434 8.336C33.0607 8.13333 33.2474 7.96267 33.5034 7.824C33.77 7.67467 34.0794 7.58933 34.4314 7.568C35.2314 7.536 36.0847 7.86133 36.9914 8.544C37.8234 9.19467 38.1167 10.048 37.8714 11.104C37.7647 11.5627 37.578 11.9947 37.3114 12.4C37.0554 12.8053 36.8047 13.1093 36.5594 13.312C36.314 13.504 36.0847 13.648 35.8714 13.744C35.6687 13.8293 35.4554 13.904 35.2314 13.968C34.922 14.064 34.602 14.1387 34.2714 14.192C33.9407 14.2453 33.7487 14.272 33.6954 14.272C33.642 14.272 33.5887 14.2667 33.5354 14.256C33.4927 14.256 33.4447 14.2507 33.3914 14.24C33.3487 14.2293 33.2207 14.208 33.0074 14.176C32.8047 14.144 32.57 14.0853 32.3034 14C32.0367 13.9253 31.7967 13.8187 31.5834 13.68C31.1034 13.3813 30.778 12.9333 30.6074 12.336ZM25.5354 5.28C25.866 3.84 26.8687 3.02933 28.5434 2.848L28.5594 2.832C29.4874 2.43733 30.3034 2.39467 31.0074 2.704C31.6687 2.98133 31.962 3.35467 31.8874 3.824C32.2287 4.208 32.4047 4.67733 32.4154 5.232C32.4367 5.72267 32.0527 6.29867 31.2634 6.96C31.05 7.13067 30.8314 7.30133 30.6074 7.472C30.394 7.64267 30.1647 7.86133 29.9194 8.128C29.6847 8.384 29.338 8.57067 28.8794 8.688C28.4314 8.80533 27.9834 8.82133 27.5354 8.736C27.098 8.65067 26.698 8.46933 26.3354 8.192C25.9834 7.904 25.7327 7.472 25.5834 6.896C25.4447 6.32 25.4287 5.78133 25.5354 5.28ZM35.2954 10.784L34.7194 10.848C34.666 10.8907 34.6127 10.928 34.5594 10.96C34.5167 10.9813 34.4687 11.0133 34.4154 11.056C34.362 11.0987 34.2447 11.1893 34.0634 11.328C33.8927 11.456 33.738 11.6 33.5994 11.76C33.258 12.176 33.2687 12.5013 33.6314 12.736C33.994 12.9813 34.4207 12.848 34.9114 12.336C35.306 11.9093 35.562 11.488 35.6794 11.072C35.7007 10.9973 35.722 10.9227 35.7434 10.848C35.7647 10.7733 35.7754 10.6987 35.7754 10.624L35.2954 10.784ZM29.7434 5.52L28.9434 5.76C28.6874 6.06933 28.346 6.29867 27.9194 6.448C27.9087 6.53333 27.9034 6.61333 27.9034 6.688C27.9034 6.76267 27.93 6.832 27.9834 6.896C28.7194 6.896 29.2527 6.63467 29.5834 6.112C29.69 5.94133 29.7434 5.744 29.7434 5.52ZM35.5354 11.36L35.7114 11.248C35.754 11.2267 35.818 11.1947 35.9034 11.152C35.85 11.184 35.7914 11.216 35.7274 11.248C35.674 11.2693 35.61 11.3067 35.5354 11.36ZM36.0634 5.056L36.0154 5.12L36.0634 5.056ZM47.2011 3.408C47.8731 2.64 48.6198 2.16 49.4411 1.968C50.0065 1.82933 50.5398 1.85067 51.0411 2.032C51.4358 1.616 51.9478 1.46667 52.5771 1.584C53.1531 1.69067 53.6438 2.016 54.0491 2.56C54.0705 2.63467 54.1131 2.74667 54.1771 2.896C54.2518 3.04533 54.3211 3.21067 54.3851 3.392C54.8545 4.48 54.8918 5.90933 54.4971 7.68C54.0065 9.87733 53.1371 11.7387 51.8891 13.264C51.5051 13.7333 51.0731 14.1227 50.5931 14.432C49.8251 15.0187 48.9078 15.28 47.8411 15.216C47.1798 15.184 46.6251 15.0187 46.1771 14.72C44.3958 13.8347 43.8145 11.9893 44.4331 9.184C44.9451 6.88 45.8678 4.95467 47.2011 3.408ZM47.3931 11.904L47.3771 12L47.4091 12.176C47.4731 12.5067 47.5798 12.7627 47.7291 12.944C47.8785 13.1147 48.0011 13.2213 48.0971 13.264C48.2038 13.1787 48.3105 13.0987 48.4171 13.024C48.5238 12.9493 48.6198 12.8587 48.7051 12.752C49.4305 11.856 49.9958 10.6827 50.4011 9.232C50.8065 7.78133 50.9558 6.43733 50.8491 5.2C50.4331 5.73333 49.9958 6.34667 49.5371 7.04C49.0785 7.73333 48.7158 8.32533 48.4491 8.816C47.8411 9.95733 47.4891 10.9867 47.3931 11.904ZM56.5399 13.856C56.4012 14.3573 56.0492 14.6933 55.4839 14.864C54.9719 15.0133 54.5132 14.96 54.1079 14.704C53.6705 14.4373 53.5319 14.0427 53.6919 13.52C53.8305 12.9227 54.0972 11.968 54.4919 10.656C54.8865 9.344 55.1639 8.42133 55.3239 7.888C55.6972 6.56533 55.9319 5.69067 56.0279 5.264C56.3585 4.19733 56.5932 3.536 56.7319 3.28C56.8812 3.024 57.0092 2.848 57.1159 2.752C57.2225 2.64533 57.3932 2.52267 57.6279 2.384C57.8732 2.24533 58.1345 2.13867 58.4119 2.064C58.6892 1.98933 58.9665 1.94133 59.2439 1.92C59.5212 1.888 59.8039 1.86667 60.0919 1.856C60.3799 1.83467 60.6999 1.78133 61.0519 1.696C61.1905 1.696 61.3132 1.68533 61.4199 1.664C61.5372 1.64267 61.6492 1.62667 61.7559 1.616C62.0012 1.59467 62.2412 1.62133 62.4759 1.696C62.7212 1.77067 62.9025 1.904 63.0199 2.096C63.1479 2.288 63.2119 2.50667 63.2119 2.752C63.2119 2.99733 63.1585 3.25867 63.0519 3.536C62.9559 3.81333 62.8172 4.08 62.6359 4.336C62.2412 4.89067 61.7452 5.28533 61.1479 5.52C60.7319 5.648 60.4332 5.712 60.2519 5.712C60.0705 5.712 59.9425 5.69067 59.8679 5.648C59.8039 5.60533 59.7665 5.57333 59.7559 5.552C59.7452 5.53067 59.7079 5.568 59.6439 5.664C59.5479 5.80267 59.4785 5.95733 59.4359 6.128C59.3932 6.29867 59.3452 6.42667 59.2919 6.512C59.2385 6.58667 59.1639 6.74133 59.0679 6.976C58.9825 7.21067 58.8705 7.408 58.7319 7.568C58.5932 7.71733 58.5132 7.808 58.4919 7.84L59.8999 7.696C60.1239 7.67467 60.3159 7.72267 60.4759 7.84C60.6465 7.94667 60.7639 8.08 60.8279 8.24C60.9025 8.4 60.9239 8.56 60.8919 8.72C60.8599 8.86933 60.7639 8.98667 60.6039 9.072C60.4439 9.14667 60.3372 9.22667 60.2839 9.312C60.2412 9.38667 60.2039 9.46133 60.1719 9.536C60.1399 9.61067 60.0972 9.68533 60.0439 9.76C60.0012 9.83467 59.8999 9.904 59.7399 9.968C59.3985 10.128 58.7425 10.256 57.7719 10.352C57.7185 10.512 57.6439 10.704 57.5479 10.928C57.4625 11.1413 57.3719 11.3653 57.2759 11.6C56.9985 12.3147 56.8385 12.7467 56.7959 12.896C56.7639 13.0453 56.7372 13.168 56.7159 13.264C56.6519 13.552 56.5932 13.7493 56.5399 13.856ZM63.3211 13.856C63.1825 14.3573 62.8305 14.6933 62.2651 14.864C61.7531 15.0133 61.2945 14.96 60.8891 14.704C60.4518 14.4373 60.3131 14.0427 60.4731 13.52C60.6118 12.9227 60.8785 11.968 61.2731 10.656C61.6678 9.344 61.9451 8.42133 62.1051 7.888C62.4785 6.56533 62.7131 5.69067 62.8091 5.264C63.1398 4.19733 63.3745 3.536 63.5131 3.28C63.6625 3.024 63.7905 2.848 63.8971 2.752C64.0038 2.64533 64.1745 2.52267 64.4091 2.384C64.6545 2.24533 64.9158 2.13867 65.1931 2.064C65.4705 1.98933 65.7478 1.94133 66.0251 1.92C66.3025 1.888 66.5851 1.86667 66.8731 1.856C67.1611 1.83467 67.4811 1.78133 67.8331 1.696C67.9718 1.696 68.0945 1.68533 68.2011 1.664C68.3185 1.64267 68.4305 1.62667 68.5371 1.616C68.7825 1.59467 69.0225 1.62133 69.2571 1.696C69.5025 1.77067 69.6838 1.904 69.8011 2.096C69.9291 2.288 69.9931 2.50667 69.9931 2.752C69.9931 2.99733 69.9398 3.25867 69.8331 3.536C69.7371 3.81333 69.5985 4.08 69.4171 4.336C69.0225 4.89067 68.5265 5.28533 67.9291 5.52C67.5131 5.648 67.2145 5.712 67.0331 5.712C66.8518 5.712 66.7238 5.69067 66.6491 5.648C66.5851 5.60533 66.5478 5.57333 66.5371 5.552C66.5265 5.53067 66.4891 5.568 66.4251 5.664C66.3291 5.80267 66.2598 5.95733 66.2171 6.128C66.1745 6.29867 66.1265 6.42667 66.0731 6.512C66.0198 6.58667 65.9451 6.74133 65.8491 6.976C65.7638 7.21067 65.6518 7.408 65.5131 7.568C65.3745 7.71733 65.2945 7.808 65.2731 7.84L66.6811 7.696C66.9051 7.67467 67.0971 7.72267 67.2571 7.84C67.4278 7.94667 67.5451 8.08 67.6091 8.24C67.6838 8.4 67.7051 8.56 67.6731 8.72C67.6411 8.86933 67.5451 8.98667 67.3851 9.072C67.2251 9.14667 67.1185 9.22667 67.0651 9.312C67.0225 9.38667 66.9851 9.46133 66.9531 9.536C66.9211 9.61067 66.8785 9.68533 66.8251 9.76C66.7825 9.83467 66.6811 9.904 66.5211 9.968C66.1798 10.128 65.5238 10.256 64.5531 10.352C64.4998 10.512 64.4251 10.704 64.3291 10.928C64.2438 11.1413 64.1531 11.3653 64.0571 11.6C63.7798 12.3147 63.6198 12.7467 63.5771 12.896C63.5451 13.0453 63.5185 13.168 63.4971 13.264C63.4331 13.552 63.3745 13.7493 63.3211 13.856Z" fill="#FF7B71"/>
</g>
<defs>
<filter id="filter0_d_107_1863" x="0.456055" y="0.431885" width="73.5371" height="23.2161" filterUnits="userSpaceOnUse" color-interpolation-filters="sRGB">
<feFlood flood-opacity="0" result="BackgroundImageFix"/>
<feColorMatrix in="SourceAlpha" type="matrix" values="0 0 0 0 0 0 0 0 0 0 0 0 0 0 0 0 0 0 127 0" result="hardAlpha"/>
<feOffset dy="4"/>
<feGaussianBlur stdDeviation="2"/>
<feComposite in2="hardAlpha" operator="out"/>
<feColorMatrix type="matrix" values="0 0 0 0 0 0 0 0 0 0 0 0 0 0 0 0 0 0 0.25 0"/>
<feBlend mode="normal" in2="BackgroundImageFix" result="effect1_dropShadow_107_1863"/>
<feBlend mode="normal" in="SourceGraphic" in2="effect1_dropShadow_107_1863" result="shape"/>
</filter>
</defs>
</svg>
