<svg width="67" height="16" viewBox="0 0 67 16" fill="none" xmlns="http://www.w3.org/2000/svg">
<path d="M5.24 1.904C5.624 1.89333 5.99733 1.872 6.36 1.84C6.72267 1.79733 7.10133 1.76 7.496 1.728C7.89067 1.68533 8.28 1.648 8.664 1.616C9.048 1.584 9.39467 1.57333 9.704 1.584C10.3973 1.59467 10.744 1.712 10.744 1.936C11.0107 2.77867 10.824 3.41867 10.184 3.856C9.928 4.02667 9.50667 4.15467 8.92 4.24C8.33333 4.32533 7.92267 4.35733 7.688 4.336C7.35733 4.29333 7.096 4.272 6.904 4.272C6.76533 4.50667 6.55733 4.832 6.28 5.248C6.00267 5.65333 5.73067 6.05867 5.464 6.464L5.16 7.152C5.352 6.87467 5.85333 6.69333 6.664 6.608C7.45333 6.52267 8.09867 6.58133 8.6 6.784C9.60267 7.24267 10.152 7.94667 10.248 8.896C10.3013 9.504 10.1467 10.3147 9.784 11.328C9.50667 12.096 9.04267 12.7893 8.392 13.408C7.82667 13.952 7.19733 14.368 6.504 14.656C5.128 15.2427 3.61333 15.2853 1.96 14.784C1.65067 14.6987 1.39467 14.5547 1.192 14.352C1 14.16 0.861333 13.9467 0.776 13.712C0.690667 13.4773 0.664 13.2427 0.696 13.008C0.728 12.7627 0.829333 12.5547 1 12.384C1.384 11.9787 1.98133 11.8667 2.792 12.048C3.54933 12.208 4.08267 12.24 4.392 12.144C4.70133 12.0373 4.96267 11.8827 5.176 11.68C5.38933 11.4773 5.55467 11.2693 5.672 11.056C5.8 10.832 5.89067 10.6613 5.944 10.544C5.99733 10.416 6.03467 10.288 6.056 10.16C6.10933 9.81867 6.04 9.60533 5.848 9.52C5.73067 9.47733 5.53333 9.47733 5.256 9.52C4.97867 9.56267 4.66933 9.61067 4.328 9.664C3.98667 9.71733 3.64 9.76533 3.288 9.808C2.936 9.85067 2.632 9.85067 2.376 9.808C1.8 9.712 1.624 9.36 1.848 8.752C1.83733 8.72 1.84267 8.72533 1.864 8.768C1.88533 8.81067 1.896 8.816 1.896 8.784C1.608 8.60267 1.464 8.304 1.464 7.888C1.63467 7.39733 1.84267 6.91733 2.088 6.448C2.344 5.968 2.55733 5.568 2.728 5.248C2.90933 4.91733 3.048 4.66133 3.144 4.48C3.25067 4.288 3.352 4.09067 3.448 3.888C3.39467 3.90933 3.368 3.904 3.368 3.872C3.37867 3.82933 3.4 3.776 3.432 3.712C3.47467 3.648 3.51733 3.57867 3.56 3.504C3.61333 3.41867 3.656 3.344 3.688 3.28C3.54933 2.82133 3.70933 2.464 4.168 2.208C4.50933 2.016 4.86667 1.91467 5.24 1.904ZM3.576 3.696C3.62933 3.61067 3.672 3.536 3.704 3.472C3.74667 3.408 3.74133 3.38667 3.688 3.408C3.64533 3.42933 3.61867 3.472 3.608 3.536C3.59733 3.58933 3.58667 3.64267 3.576 3.696ZM8.936 1.936C9.18133 1.95733 9.31467 1.952 9.336 1.92C9.35733 1.888 9.224 1.89333 8.936 1.936ZM4.808 9.232C4.76533 9.22133 4.776 9.22133 4.84 9.232H4.808ZM13.2326 3.264C13.3926 2.95467 13.6486 2.65067 14.0006 2.352C14.3526 2.05333 14.7473 1.80267 15.1846 1.6C16.198 1.13067 17.1046 1.07733 17.9046 1.44C18.3313 1.632 18.5606 1.76 18.5926 1.824C18.6353 1.888 18.6513 1.95733 18.6406 2.032C18.63 2.10667 18.63 2.21867 18.6406 2.368C19.59 1.99467 20.2726 2.26667 20.6886 3.184C21.0513 4.00533 21.1473 5.12533 20.9766 6.544C20.7953 7.96267 20.438 9.17333 19.9046 10.176C19.51 11.296 18.886 12.3467 18.0326 13.328C17.702 13.7227 17.3926 14.0213 17.1046 14.224C16.8273 14.4373 16.63 14.5333 16.5126 14.512C16.2993 14.5547 16.1073 14.5973 15.9366 14.64C15.702 14.704 15.4993 14.736 15.3286 14.736C15.3073 14.7573 15.286 14.7733 15.2646 14.784C15.254 14.7947 15.2433 14.8107 15.2326 14.832L14.7526 14.976C14.7313 15.1467 14.5926 15.264 14.3366 15.328C14.0806 15.4027 13.7873 15.4187 13.4566 15.376C13.1366 15.3333 12.8113 15.2373 12.4806 15.088C12.15 14.9493 11.9046 14.7467 11.7446 14.48C11.4886 13.904 11.3233 13.4453 11.2486 13.104C11.0353 11.9733 11.0566 10.5227 11.3126 8.752C11.5046 7.45067 11.846 6.24533 12.3366 5.136C12.582 4.56 12.8806 3.936 13.2326 3.264ZM16.2246 5.072C15.4353 6.65067 14.9073 8.34667 14.6406 10.16C14.5553 10.7893 14.5393 11.376 14.5926 11.92H14.6246L14.6406 11.904C15.7713 10.1973 16.6246 8.34667 17.2006 6.352C17.3926 5.65867 17.478 5.10933 17.4566 4.704C17.446 4.29867 17.3766 4.03733 17.2486 3.92C17.206 3.96267 17.1793 3.984 17.1686 3.984C17.1686 3.984 17.1633 3.97333 17.1526 3.952C17.11 3.89867 17.0513 3.87733 16.9766 3.888C16.8273 4.09067 16.6886 4.29867 16.5606 4.512L16.2246 5.072ZM24.4104 14.528L24.1704 14.848C23.7864 15.1467 23.3704 15.3067 22.9224 15.328C22.453 15.3493 22.1384 15.2 21.9784 14.88C21.573 14.784 21.4824 14.4267 21.7064 13.808C21.909 13.2533 22.277 12.6987 22.8104 12.144C22.9917 11.9947 23.1304 11.84 23.2264 11.68C23.429 11.36 23.7917 10.9547 24.3144 10.464L27.9144 6.832C28.597 5.808 29.157 5.01333 29.5944 4.448C30.0424 3.88267 30.357 3.47733 30.5384 3.232C30.7197 2.976 30.917 2.736 31.1304 2.512C31.1517 2.448 31.1304 2.37867 31.0664 2.304C30.9384 2.144 30.885 2.032 30.9064 1.968C31.1517 1.38133 31.669 0.975999 32.4584 0.751999C33.1837 0.538666 33.8397 0.549333 34.4264 0.783999C35.0557 1.05067 35.3224 1.49333 35.2264 2.112C34.7144 3.36 33.653 4.75733 32.0424 6.304C31.6157 6.72 31.1997 7.136 30.7944 7.552L29.0344 9.344C28.917 9.49333 28.7944 9.63733 28.6664 9.776C28.5384 9.91467 28.2984 10.192 27.9464 10.608C26.581 12.2507 25.5144 13.4613 24.7464 14.24L24.4104 14.528ZM27.4824 12.336C27.429 12.144 27.4237 11.9467 27.4664 11.744C27.5197 11.5413 27.5784 11.3227 27.6424 11.088C27.749 10.6933 28.069 10.2453 28.6024 9.744C28.5704 9.488 28.661 9.23733 28.8744 8.992C29.0877 8.736 29.4024 8.51733 29.8184 8.336C29.9357 8.13333 30.1224 7.96267 30.3784 7.824C30.645 7.67467 30.9544 7.58933 31.3064 7.568C32.1064 7.536 32.9597 7.86133 33.8664 8.544C34.6984 9.19467 34.9917 10.048 34.7464 11.104C34.6397 11.5627 34.453 11.9947 34.1864 12.4C33.9304 12.8053 33.6797 13.1093 33.4344 13.312C33.189 13.504 32.9597 13.648 32.7464 13.744C32.5437 13.8293 32.3304 13.904 32.1064 13.968C31.797 14.064 31.477 14.1387 31.1464 14.192C30.8157 14.2453 30.6237 14.272 30.5704 14.272C30.517 14.272 30.4637 14.2667 30.4104 14.256C30.3677 14.256 30.3197 14.2507 30.2664 14.24C30.2237 14.2293 30.0957 14.208 29.8824 14.176C29.6797 14.144 29.445 14.0853 29.1784 14C28.9117 13.9253 28.6717 13.8187 28.4584 13.68C27.9784 13.3813 27.653 12.9333 27.4824 12.336ZM22.4104 5.28C22.741 3.84 23.7437 3.02933 25.4184 2.848L25.4344 2.832C26.3624 2.43733 27.1784 2.39467 27.8824 2.704C28.5437 2.98133 28.837 3.35467 28.7624 3.824C29.1037 4.208 29.2797 4.67733 29.2904 5.232C29.3117 5.72267 28.9277 6.29867 28.1384 6.96C27.925 7.13067 27.7064 7.30133 27.4824 7.472C27.269 7.64267 27.0397 7.86133 26.7944 8.128C26.5597 8.384 26.213 8.57067 25.7544 8.688C25.3064 8.80533 24.8584 8.82133 24.4104 8.736C23.973 8.65067 23.573 8.46933 23.2104 8.192C22.8584 7.904 22.6077 7.472 22.4584 6.896C22.3197 6.32 22.3037 5.78133 22.4104 5.28ZM32.1704 10.784L31.5944 10.848C31.541 10.8907 31.4877 10.928 31.4344 10.96C31.3917 10.9813 31.3437 11.0133 31.2904 11.056C31.237 11.0987 31.1197 11.1893 30.9384 11.328C30.7677 11.456 30.613 11.6 30.4744 11.76C30.133 12.176 30.1437 12.5013 30.5064 12.736C30.869 12.9813 31.2957 12.848 31.7864 12.336C32.181 11.9093 32.437 11.488 32.5544 11.072C32.5757 10.9973 32.597 10.9227 32.6184 10.848C32.6397 10.7733 32.6504 10.6987 32.6504 10.624L32.1704 10.784ZM26.6184 5.52L25.8184 5.76C25.5624 6.06933 25.221 6.29867 24.7944 6.448C24.7837 6.53333 24.7784 6.61333 24.7784 6.688C24.7784 6.76267 24.805 6.832 24.8584 6.896C25.5944 6.896 26.1277 6.63467 26.4584 6.112C26.565 5.94133 26.6184 5.744 26.6184 5.52ZM32.4104 11.36L32.5864 11.248C32.629 11.2267 32.693 11.1947 32.7784 11.152C32.725 11.184 32.6664 11.216 32.6024 11.248C32.549 11.2693 32.485 11.3067 32.4104 11.36ZM32.9384 5.056L32.8904 5.12L32.9384 5.056ZM44.0761 3.408C44.7481 2.64 45.4948 2.16 46.3161 1.968C46.8815 1.82933 47.4148 1.85067 47.9161 2.032C48.3108 1.616 48.8228 1.46667 49.4521 1.584C50.0281 1.69067 50.5188 2.016 50.9241 2.56C50.9455 2.63467 50.9881 2.74667 51.0521 2.896C51.1268 3.04533 51.1961 3.21067 51.2601 3.392C51.7295 4.48 51.7668 5.90933 51.3721 7.68C50.8815 9.87733 50.0121 11.7387 48.7641 13.264C48.3801 13.7333 47.9481 14.1227 47.4681 14.432C46.7001 15.0187 45.7828 15.28 44.7161 15.216C44.0548 15.184 43.5001 15.0187 43.0521 14.72C41.2708 13.8347 40.6895 11.9893 41.3081 9.184C41.8201 6.88 42.7428 4.95467 44.0761 3.408ZM44.2681 11.904L44.2521 12L44.2841 12.176C44.3481 12.5067 44.4548 12.7627 44.6041 12.944C44.7535 13.1147 44.8761 13.2213 44.9721 13.264C45.0788 13.1787 45.1855 13.0987 45.2921 13.024C45.3988 12.9493 45.4948 12.8587 45.5801 12.752C46.3055 11.856 46.8708 10.6827 47.2761 9.232C47.6815 7.78133 47.8308 6.43733 47.7241 5.2C47.3081 5.73333 46.8708 6.34667 46.4121 7.04C45.9535 7.73333 45.5908 8.32533 45.3241 8.816C44.7161 9.95733 44.3641 10.9867 44.2681 11.904ZM53.4149 13.856C53.2762 14.3573 52.9242 14.6933 52.3589 14.864C51.8469 15.0133 51.3882 14.96 50.9829 14.704C50.5455 14.4373 50.4069 14.0427 50.5669 13.52C50.7055 12.9227 50.9722 11.968 51.3669 10.656C51.7615 9.344 52.0389 8.42133 52.1989 7.888C52.5722 6.56533 52.8069 5.69067 52.9029 5.264C53.2335 4.19733 53.4682 3.536 53.6069 3.28C53.7562 3.024 53.8842 2.848 53.9909 2.752C54.0975 2.64533 54.2682 2.52267 54.5029 2.384C54.7482 2.24533 55.0095 2.13867 55.2869 2.064C55.5642 1.98933 55.8415 1.94133 56.1189 1.92C56.3962 1.888 56.6789 1.86667 56.9669 1.856C57.2549 1.83467 57.5749 1.78133 57.9269 1.696C58.0655 1.696 58.1882 1.68533 58.2949 1.664C58.4122 1.64267 58.5242 1.62667 58.6309 1.616C58.8762 1.59467 59.1162 1.62133 59.3509 1.696C59.5962 1.77067 59.7775 1.904 59.8949 2.096C60.0229 2.288 60.0869 2.50667 60.0869 2.752C60.0869 2.99733 60.0335 3.25867 59.9269 3.536C59.8309 3.81333 59.6922 4.08 59.5109 4.336C59.1162 4.89067 58.6202 5.28533 58.0229 5.52C57.6069 5.648 57.3082 5.712 57.1269 5.712C56.9455 5.712 56.8175 5.69067 56.7429 5.648C56.6789 5.60533 56.6415 5.57333 56.6309 5.552C56.6202 5.53067 56.5829 5.568 56.5189 5.664C56.4229 5.80267 56.3535 5.95733 56.3109 6.128C56.2682 6.29867 56.2202 6.42667 56.1669 6.512C56.1135 6.58667 56.0389 6.74133 55.9429 6.976C55.8575 7.21067 55.7455 7.408 55.6069 7.568C55.4682 7.71733 55.3882 7.808 55.3669 7.84L56.7749 7.696C56.9989 7.67467 57.1909 7.72267 57.3509 7.84C57.5215 7.94667 57.6389 8.08 57.7029 8.24C57.7775 8.4 57.7989 8.56 57.7669 8.72C57.7349 8.86933 57.6389 8.98667 57.4789 9.072C57.3189 9.14667 57.2122 9.22667 57.1589 9.312C57.1162 9.38667 57.0789 9.46133 57.0469 9.536C57.0149 9.61067 56.9722 9.68533 56.9189 9.76C56.8762 9.83467 56.7749 9.904 56.6149 9.968C56.2735 10.128 55.6175 10.256 54.6469 10.352C54.5935 10.512 54.5189 10.704 54.4229 10.928C54.3375 11.1413 54.2469 11.3653 54.1509 11.6C53.8735 12.3147 53.7135 12.7467 53.6709 12.896C53.6389 13.0453 53.6122 13.168 53.5909 13.264C53.5269 13.552 53.4682 13.7493 53.4149 13.856ZM60.1961 13.856C60.0575 14.3573 59.7055 14.6933 59.1401 14.864C58.6281 15.0133 58.1695 14.96 57.7641 14.704C57.3268 14.4373 57.1881 14.0427 57.3481 13.52C57.4868 12.9227 57.7535 11.968 58.1481 10.656C58.5428 9.344 58.8201 8.42133 58.9801 7.888C59.3535 6.56533 59.5881 5.69067 59.6841 5.264C60.0148 4.19733 60.2495 3.536 60.3881 3.28C60.5375 3.024 60.6655 2.848 60.7721 2.752C60.8788 2.64533 61.0495 2.52267 61.2841 2.384C61.5295 2.24533 61.7908 2.13867 62.0681 2.064C62.3455 1.98933 62.6228 1.94133 62.9001 1.92C63.1775 1.888 63.4601 1.86667 63.7481 1.856C64.0361 1.83467 64.3561 1.78133 64.7081 1.696C64.8468 1.696 64.9695 1.68533 65.0761 1.664C65.1935 1.64267 65.3055 1.62667 65.4121 1.616C65.6575 1.59467 65.8975 1.62133 66.1321 1.696C66.3775 1.77067 66.5588 1.904 66.6761 2.096C66.8041 2.288 66.8681 2.50667 66.8681 2.752C66.8681 2.99733 66.8148 3.25867 66.7081 3.536C66.6121 3.81333 66.4735 4.08 66.2921 4.336C65.8975 4.89067 65.4015 5.28533 64.8041 5.52C64.3881 5.648 64.0895 5.712 63.9081 5.712C63.7268 5.712 63.5988 5.69067 63.5241 5.648C63.4601 5.60533 63.4228 5.57333 63.4121 5.552C63.4015 5.53067 63.3641 5.568 63.3001 5.664C63.2041 5.80267 63.1348 5.95733 63.0921 6.128C63.0495 6.29867 63.0015 6.42667 62.9481 6.512C62.8948 6.58667 62.8201 6.74133 62.7241 6.976C62.6388 7.21067 62.5268 7.408 62.3881 7.568C62.2495 7.71733 62.1695 7.808 62.1481 7.84L63.5561 7.696C63.7801 7.67467 63.9721 7.72267 64.1321 7.84C64.3028 7.94667 64.4201 8.08 64.4841 8.24C64.5588 8.4 64.5801 8.56 64.5481 8.72C64.5161 8.86933 64.4201 8.98667 64.2601 9.072C64.1001 9.14667 63.9935 9.22667 63.9401 9.312C63.8975 9.38667 63.8601 9.46133 63.8281 9.536C63.7961 9.61067 63.7535 9.68533 63.7001 9.76C63.6575 9.83467 63.5561 9.904 63.3961 9.968C63.0548 10.128 62.3988 10.256 61.4281 10.352C61.3748 10.512 61.3001 10.704 61.2041 10.928C61.1188 11.1413 61.0281 11.3653 60.9321 11.6C60.6548 12.3147 60.4948 12.7467 60.4521 12.896C60.4201 13.0453 60.3935 13.168 60.3721 13.264C60.3081 13.552 60.2495 13.7493 60.1961 13.856Z" fill="#FF7B71"/>
</svg>
