<svg width="198" height="78" viewBox="0 0 198 78" fill="none" xmlns="http://www.w3.org/2000/svg">
<path d="M12.4174 31.5293C8.99275 30.5438 6.50435 29.3366 4.95217 27.9076C3.4 26.4786 2.62391 24.7109 2.62391 22.6043C2.62391 20.2268 3.57246 18.262 5.46957 16.7098C7.36667 15.1453 9.83659 14.363 12.8793 14.363C14.9612 14.363 16.8152 14.7696 18.4413 15.5826C20.0674 16.3833 21.3239 17.492 22.2109 18.9087C23.1101 20.313 23.5598 21.8529 23.5598 23.5283H19.55C19.55 21.6928 18.9649 20.2576 17.7946 19.2228C16.6366 18.1757 14.9982 17.6522 12.8793 17.6522C10.9207 17.6522 9.38696 18.0833 8.27826 18.9457C7.18188 19.808 6.6337 21.0091 6.6337 22.5489C6.6337 23.7808 7.15725 24.8217 8.20435 25.6717C9.25145 26.5217 11.0315 27.2978 13.5446 28C16.0576 28.7022 18.0225 29.4844 19.4391 30.3467C20.8558 31.1967 21.9029 32.1884 22.5804 33.3217C23.2703 34.4551 23.6152 35.7855 23.6152 37.313C23.6152 39.7645 22.6605 41.7293 20.7511 43.2076C18.8417 44.6736 16.2917 45.4065 13.1011 45.4065C11.0192 45.4065 9.07899 45.0123 7.28043 44.2239C5.48188 43.4232 4.09601 42.333 3.12283 40.9533C2.14964 39.5736 1.66304 38.0029 1.66304 36.2413H5.67283C5.67283 38.0645 6.3442 39.5058 7.68696 40.5652C9.04203 41.6246 10.8467 42.1543 13.1011 42.1543C15.1953 42.1543 16.8029 41.7293 17.9239 40.8793C19.0449 40.017 19.6054 38.8467 19.6054 37.3685C19.6054 35.8902 19.088 34.7446 18.0533 33.9315C17.0185 33.1185 15.1399 32.3178 12.4174 31.5293ZM50.0137 14.788V35.3359C50.0014 38.1815 49.1021 40.5098 47.3159 42.3207C45.542 44.1315 43.1337 45.1478 40.0909 45.3696L39.0376 45.4065C35.7239 45.4065 33.0815 44.5196 31.1105 42.7457C29.1518 40.9594 28.1601 38.5018 28.1355 35.3728V14.788H32.0898V35.2435C32.0898 37.4362 32.6873 39.1362 33.8822 40.3435C35.0894 41.5507 36.8079 42.1543 39.0376 42.1543C41.292 42.1543 43.0166 41.5569 44.2115 40.362C45.4065 39.1547 46.0039 37.4547 46.0039 35.262V14.788H50.0137ZM79.5125 45H75.5212L60.3136 21.7174V45H56.3038V14.788H60.3136L75.5582 38.1815V14.788H79.5125V45Z" fill="#00A0FA"/>
<path d="M91.7386 14.788L101.625 39.438L111.492 14.788H116.666V45H112.675V33.2293L113.063 20.5348L103.14 45H100.091L90.1865 20.5902L90.5745 33.2293V45H86.6017V14.788H91.7386ZM140.78 31.0304H127.679V41.7478H142.905V45H123.706V14.788H142.683V18.0587H127.679V27.7783H140.78V31.0304ZM164.547 37.1098H151.89L149.044 45H144.923L156.472 14.788H159.965L171.514 45H167.43L164.547 37.1098ZM153.091 33.8391H163.365L158.209 19.7033L153.091 33.8391ZM196.466 18.0587H186.747V45H182.774V18.0587H173.091V14.788H196.466V18.0587Z" fill="black"/>
<path d="M7.12 74.2109C6.64203 74.2109 6.16899 74.1616 5.70087 74.063C5.23768 73.9645 4.79913 73.8167 4.38522 73.6196C3.97623 73.4274 3.60174 73.1884 3.26174 72.9026C2.92174 72.6168 2.63348 72.2867 2.39696 71.9122C2.16043 71.5426 1.98797 71.1287 1.87957 70.6704C1.80072 70.3551 1.7613 70.0175 1.7613 69.6578C1.7613 69.5051 1.7687 69.3474 1.78348 69.1848C1.83768 68.5738 1.97319 68.0194 2.19 67.5217C2.41174 67.0241 2.69261 66.5806 3.03261 66.1913C3.37754 65.802 3.77174 65.4645 4.21522 65.1787C4.66362 64.888 5.13913 64.6441 5.64174 64.447C5.28203 64.1957 5.00609 63.9074 4.81391 63.5822C4.62667 63.257 4.51333 62.8825 4.47391 62.4587C4.44928 62.3059 4.43696 62.1581 4.43696 62.0152C4.43696 61.7097 4.50101 61.382 4.62913 61.0322C4.75725 60.6823 4.97159 60.3472 5.27217 60.027C5.57275 59.7067 5.92754 59.448 6.33652 59.2509C6.74551 59.0538 7.16928 58.9454 7.60783 58.9257H7.75565C8.46522 58.9257 9.19203 59.1622 9.93609 59.6352C10.0741 59.7239 10.1972 59.8126 10.3057 59.9013C10.419 59.9851 10.5126 60.0614 10.5865 60.1304C10.6654 60.1994 10.727 60.2586 10.7713 60.3078C10.8206 60.3522 10.8526 60.3768 10.8674 60.3817L9.80304 61.3943C9.65522 61.2712 9.50246 61.1455 9.34478 61.0174C9.1871 60.8893 9.01957 60.7759 8.84217 60.6774C8.66971 60.5788 8.48739 60.5 8.29522 60.4409C8.15232 60.3965 8.00203 60.3743 7.84435 60.3743C7.79015 60.3743 7.73594 60.3768 7.68174 60.3817C7.43043 60.4014 7.18899 60.4581 6.95739 60.5517C6.73072 60.6404 6.53362 60.7661 6.36609 60.9287C6.20348 61.0913 6.08029 61.2884 5.99652 61.52C5.93739 61.6826 5.90783 61.86 5.90783 62.0522C5.90783 62.1359 5.91275 62.2246 5.92261 62.3183C5.9571 62.5991 6.05812 62.8332 6.22565 63.0204C6.39812 63.2077 6.61739 63.353 6.88348 63.4565C7.14957 63.56 7.45507 63.6216 7.8 63.6413C7.90841 63.6512 8.01681 63.6561 8.12522 63.6561C8.36667 63.6561 8.62043 63.6364 8.88652 63.597L10.5865 63.3309L10.897 64.75C10.8871 64.75 10.8329 64.7599 10.7343 64.7796C10.6407 64.7943 10.5077 64.8165 10.3352 64.8461C10.1677 64.8707 9.96812 64.9028 9.73652 64.9422C9.50986 64.9816 9.26101 65.0235 8.99 65.0678C8.5613 65.1368 8.18681 65.2058 7.86652 65.2748C7.55116 65.3438 7.26536 65.4177 7.00913 65.4965C6.75783 65.5754 6.52623 65.6616 6.31435 65.7552C6.10246 65.8439 5.88565 65.9425 5.66391 66.0509C5.54565 66.1051 5.40522 66.179 5.24261 66.2726C5.08493 66.3662 4.91986 66.482 4.74739 66.62C4.57493 66.758 4.40246 66.9157 4.23 67.093C4.06246 67.2704 3.90725 67.47 3.76435 67.6917C3.62638 67.9086 3.50812 68.15 3.40957 68.4161C3.31594 68.6822 3.25928 68.968 3.23957 69.2735C3.23464 69.3523 3.23217 69.4287 3.23217 69.5026C3.23217 70.0052 3.34058 70.461 3.55739 70.87C3.7742 71.2839 4.08464 71.6338 4.4887 71.9196C4.89768 72.2054 5.36826 72.4099 5.90043 72.533C6.30449 72.6267 6.71841 72.6735 7.14217 72.6735C7.28014 72.6735 7.52406 72.6612 7.87391 72.6365C8.2287 72.6168 8.68203 72.5035 9.23391 72.2965C9.79072 72.0945 10.2958 71.8062 10.7491 71.4317L11.5991 72.6587C11.1951 72.9938 10.7984 73.2623 10.4091 73.4643C10.0199 73.6664 9.63797 73.8216 9.26348 73.93C8.88899 74.0433 8.52188 74.1172 8.16217 74.1517C7.80739 74.1912 7.46 74.2109 7.12 74.2109ZM8.94565 56.3535L7.74087 57.5583L6.5287 56.3461L7.73348 55.1413L8.94565 56.3535ZM18.0541 68.49C18.0541 69.1355 17.9162 69.7514 17.6402 70.3378C17.3643 70.9242 16.9972 71.4687 16.5389 71.9713C16.0856 72.4788 15.5657 72.942 14.9794 73.3609C14.393 73.7797 13.7894 74.1443 13.1685 74.4548L12.5328 73.1465C12.8876 72.9642 13.2399 72.7622 13.5898 72.5404C13.9396 72.3236 14.2698 72.0896 14.5802 71.8383C14.8907 71.587 15.1765 71.3209 15.4376 71.04C15.6988 70.7641 15.918 70.4733 16.0954 70.1678C16.2778 69.8623 16.4133 69.5445 16.502 69.2143C16.566 68.9778 16.598 68.7364 16.598 68.49C16.598 68.3914 16.5931 68.3003 16.5833 68.2165C16.5488 67.9357 16.4946 67.6351 16.4207 67.3148C16.3517 66.9896 16.2753 66.6717 16.1915 66.3613C16.1078 66.0509 16.024 65.7601 15.9402 65.4891C15.8565 65.2132 15.785 64.9841 15.7259 64.8017L17.1154 64.373C17.3027 64.9446 17.485 65.4325 17.6624 65.8365C17.8398 66.2357 18.0221 66.5633 18.2094 66.8196C18.3966 67.0709 18.5912 67.2557 18.7933 67.3739C19.0002 67.4922 19.2269 67.5513 19.4733 67.5513H19.5915V69H19.4659C19.3969 69 19.3082 68.9975 19.1998 68.9926C19.0914 68.9877 18.9707 68.968 18.8376 68.9335C18.7095 68.899 18.5765 68.8448 18.4385 68.7709C18.3054 68.697 18.1773 68.5935 18.0541 68.4604V68.49ZM19.4609 67.5513C19.8995 67.5513 20.2641 67.4848 20.5549 67.3517C20.8456 67.2138 21.092 67.0339 21.294 66.8122C21.5009 66.5855 21.6783 66.3293 21.8262 66.0435C21.9789 65.7528 22.1317 65.4546 22.2844 65.1491C22.4175 64.8732 22.5579 64.6022 22.7057 64.3361C22.8585 64.0651 23.0285 63.8261 23.2157 63.6191C23.4079 63.4072 23.6247 63.2372 23.8662 63.1091C24.1125 62.9761 24.3983 62.9096 24.7235 62.9096C25.1128 62.9096 25.4553 62.9884 25.7509 63.1461C26.0515 63.2988 26.3077 63.5009 26.5196 63.7522C26.7315 64.0035 26.8991 64.2893 27.0222 64.6096C27.1504 64.9299 27.2391 65.2551 27.2883 65.5852C27.313 65.7528 27.3253 65.9252 27.3253 66.1026C27.3253 66.2603 27.3105 66.4672 27.2809 66.7235C27.2514 66.9797 27.1725 67.263 27.0444 67.5735C26.9163 67.879 26.7414 68.1475 26.5196 68.3791C26.2979 68.6058 26.0269 68.7635 25.7066 68.8522C25.5046 68.9064 25.3025 68.9335 25.1005 68.9335C25.002 68.9335 24.8492 68.9212 24.6422 68.8965C24.4402 68.8719 24.1938 68.8054 23.9031 68.697C23.6173 68.5836 23.3414 68.4481 23.0753 68.2904C22.8092 68.1278 22.5628 67.9628 22.3362 67.7952C22.144 68.0564 21.942 68.2658 21.7301 68.4235C21.5231 68.5812 21.3014 68.7019 21.0649 68.7857C20.8283 68.8694 20.577 68.9261 20.3109 68.9557C20.0449 68.9852 19.7615 69 19.4609 69H19.3131V67.5513H19.4609ZM23.1862 66.5978C23.6346 66.928 24.0435 67.167 24.4131 67.3148C24.6595 67.4133 24.8812 67.4626 25.0783 67.4626C25.172 67.4626 25.2582 67.4528 25.337 67.433C25.4208 67.4133 25.5021 67.3567 25.5809 67.263C25.6598 67.1694 25.7263 67.0487 25.7805 66.9009C25.8396 66.753 25.8815 66.583 25.9062 66.3909C25.916 66.312 25.9209 66.2332 25.9209 66.1543C25.9209 66.0312 25.9111 65.903 25.8914 65.77C25.8864 65.7355 25.8741 65.6764 25.8544 65.5926C25.8347 65.5088 25.8051 65.4152 25.7657 65.3117C25.7312 65.2083 25.6844 65.1023 25.6253 64.9939C25.5662 64.8806 25.4947 64.7796 25.4109 64.6909C25.3272 64.5972 25.2286 64.5209 25.1153 64.4617C25.002 64.4026 24.8714 64.373 24.7235 64.373C24.625 64.373 24.5314 64.4026 24.4427 64.4617C24.3589 64.5159 24.2727 64.6022 24.184 64.7204C24.1002 64.8387 24.0091 64.9865 23.9105 65.1639C23.8169 65.3413 23.7085 65.5507 23.5853 65.7922L23.1862 66.5978ZM37.0523 64.1957C36.9094 64.1957 36.7739 64.2523 36.6458 64.3657C36.5177 64.4741 36.4019 64.6145 36.2984 64.787C36.1999 64.9594 36.1161 65.1541 36.0471 65.3709C35.9781 65.5828 35.9313 65.7922 35.9067 65.9991C35.8919 66.1125 35.8845 66.2233 35.8845 66.3317C35.8845 66.4204 35.8919 66.5313 35.9067 66.6643C35.9264 66.7925 35.9781 66.9083 36.0619 67.0117C36.1358 67.1103 36.227 67.1916 36.3354 67.2557C36.4487 67.3148 36.567 67.3641 36.6902 67.4035C36.8183 67.438 36.9415 67.4651 37.0597 67.4848C37.1829 67.4996 37.2889 67.5094 37.3775 67.5143C37.6239 67.5291 37.8555 67.5365 38.0723 67.5365C38.1265 67.5365 38.23 67.5365 38.3828 67.5365C38.5404 67.5316 38.7154 67.5217 38.9075 67.507C38.8928 67.1916 38.8558 66.8935 38.7967 66.6126C38.7375 66.3317 38.6612 66.0706 38.5675 65.8291C38.4739 65.5877 38.368 65.3709 38.2497 65.1787C38.1364 64.9816 38.0181 64.8116 37.8949 64.6687C37.8457 64.6194 37.789 64.5677 37.7249 64.5135C37.6658 64.4543 37.5993 64.4026 37.5254 64.3583C37.4564 64.309 37.3825 64.2696 37.3036 64.24C37.2248 64.2104 37.141 64.1957 37.0523 64.1957ZM33.7928 72.7622C34.5516 72.6094 35.2316 72.3975 35.8328 72.1265C36.4339 71.8555 36.9489 71.55 37.3775 71.21C37.8062 70.87 38.1438 70.5078 38.3902 70.1235C38.6415 69.7441 38.7942 69.3696 38.8484 69H38.5084C38.3902 69 38.2226 69 38.0058 69C37.7939 69 37.5525 68.9877 37.2815 68.963C36.2122 68.899 35.4213 68.5491 34.9089 67.9135C34.6822 67.6277 34.5393 67.2975 34.4802 66.923C34.4457 66.7259 34.4284 66.5288 34.4284 66.3317C34.4284 66.1445 34.4481 65.908 34.4875 65.6222C34.5319 65.3314 34.6304 65.0038 34.7832 64.6391C34.936 64.2696 35.1158 63.9517 35.3228 63.6857C35.5741 63.3752 35.8451 63.1412 36.1358 62.9835C36.4315 62.8209 36.737 62.7396 37.0523 62.7396C37.752 62.7396 38.3951 63.0549 38.9815 63.6857C39.2328 63.9616 39.452 64.2819 39.6393 64.6465C39.8315 65.0062 39.9867 65.393 40.1049 65.807C40.2232 66.2209 40.3045 66.652 40.3489 67.1004C40.3686 67.3123 40.3784 67.5242 40.3784 67.7361C40.3784 67.9726 40.3661 68.2091 40.3415 68.4457C40.2873 68.9877 40.1665 69.4928 39.9793 69.9609C39.792 70.4339 39.5531 70.87 39.2623 71.2691C38.9716 71.6683 38.6341 72.0304 38.2497 72.3557C37.8703 72.6809 37.4589 72.9642 37.0154 73.2057C36.5768 73.452 36.1136 73.6565 35.6258 73.8191C35.138 73.9867 34.6403 74.1099 34.1328 74.1887L33.7928 72.7622ZM60.545 67.7878C60.3479 67.5513 60.1951 67.2828 60.0867 66.9822C58.7858 68.3422 56.7335 69.0222 53.9297 69.0222C52.4318 69.0123 51.19 68.8349 50.2045 68.49C49.2239 68.1401 48.5119 67.5907 48.0684 66.8417C47.9255 66.6003 47.8147 66.3514 47.7358 66.0952C47.6619 65.839 47.6151 65.5828 47.5954 65.3265C47.5855 65.1984 47.5806 65.0728 47.5806 64.9496C47.5806 64.8264 47.588 64.6736 47.6028 64.4913C47.6176 64.3041 47.6545 64.0996 47.7136 63.8778C47.8368 63.4097 47.9551 63.0401 48.0684 62.7691C48.1867 62.4932 48.2581 62.338 48.2828 62.3035L49.5615 63.0057C49.5615 63.0106 49.5393 63.0599 49.495 63.1535C49.4506 63.2471 49.4013 63.3703 49.3471 63.523C49.2929 63.6758 49.2387 63.8532 49.1845 64.0552C49.1352 64.2572 49.1057 64.4691 49.0958 64.6909C49.0909 64.75 49.0884 64.8116 49.0884 64.8757C49.0884 65.0383 49.1057 65.2206 49.1402 65.4226C49.1747 65.6197 49.2535 65.8217 49.3767 66.0287C49.6723 66.5362 50.1996 66.9157 50.9584 67.167C51.7222 67.4183 52.7126 67.5464 53.9297 67.5513C55.0187 67.5513 55.9451 67.4577 56.7089 67.2704C57.4726 67.0783 58.1083 66.7752 58.6158 66.3613C58.8425 66.1839 59.0371 65.9893 59.1997 65.7774C59.3623 65.5655 59.5003 65.3462 59.6137 65.1196C59.7319 64.8929 59.8305 64.6638 59.9093 64.4322C59.9931 64.2006 60.067 63.9739 60.131 63.7522L61.5354 64.1365C61.5108 64.2252 61.4812 64.3361 61.4467 64.4691C61.4171 64.5972 61.39 64.7303 61.3654 64.8683C61.3408 65.0013 61.321 65.1319 61.3063 65.26C61.2915 65.3684 61.2841 65.462 61.2841 65.5409V65.6C61.2939 65.8119 61.326 66.0336 61.3802 66.2652C61.4344 66.4968 61.5379 66.7038 61.6906 66.8861C62.0355 67.3246 62.6096 67.5464 63.4128 67.5513H63.5976V69H63.3906C62.1094 68.9852 61.1609 68.5812 60.545 67.7878ZM54.2328 61.7343L53.0354 62.9317L51.8232 61.727L53.0206 60.5222L54.2328 61.7343ZM57.2632 61.7417L56.0658 62.9465L54.8536 61.7343L56.051 60.537L57.2632 61.7417ZM63.3073 67.5513H63.4699C63.7606 67.5513 64.0217 67.4946 64.2533 67.3813C64.4849 67.263 64.6894 67.1103 64.8668 66.923C65.0491 66.7309 65.2068 66.5116 65.3399 66.2652C65.4729 66.0188 65.5887 65.7626 65.6873 65.4965C65.7858 65.2255 65.8696 64.9545 65.9386 64.6835C66.0075 64.4125 66.0667 64.1562 66.1159 63.9148L67.5794 64.2252C67.54 64.3435 67.4907 64.4962 67.4316 64.6835C67.3774 64.8707 67.3232 65.0728 67.269 65.2896C67.2148 65.5014 67.168 65.7207 67.1286 65.9474C67.0891 66.1691 67.0694 66.3761 67.0694 66.5683C67.0694 66.7013 67.0817 66.8319 67.1064 66.96C67.131 67.0832 67.1729 67.1941 67.232 67.2926C67.2912 67.3912 67.3725 67.47 67.4759 67.5291C67.5794 67.5883 67.71 67.6178 67.8677 67.6178C68.119 67.6178 68.3432 67.5488 68.5403 67.4109C68.7423 67.2729 68.9197 67.093 69.0725 66.8713C69.2302 66.6496 69.3657 66.3983 69.479 66.1174C69.5973 65.8365 69.6958 65.5507 69.7746 65.26C69.8584 64.9693 69.9249 64.6884 69.9742 64.4174C70.0284 64.1414 70.0703 63.9025 70.0999 63.7004L71.519 63.9591L71.482 64.1957C71.4525 64.3583 71.418 64.5554 71.3786 64.787C71.3441 65.0136 71.312 65.2575 71.2825 65.5187C71.2529 65.7749 71.2381 66.0041 71.2381 66.2061C71.2381 66.3884 71.2504 66.5633 71.2751 66.7309C71.3046 66.8935 71.349 67.0388 71.4081 67.167C71.4722 67.2901 71.5535 67.3936 71.652 67.4774C71.7555 67.5562 71.8812 67.603 72.029 67.6178C72.1226 67.6277 72.2113 67.6326 72.2951 67.6326C72.438 67.6326 72.5784 67.6154 72.7164 67.5809C72.8593 67.5414 72.9849 67.4651 73.0933 67.3517C73.2067 67.2384 73.288 67.0955 73.3373 66.923C73.3865 66.7506 73.4112 66.5559 73.4112 66.3391C73.4112 66.0583 73.3717 65.7552 73.2929 65.43C73.219 65.1048 73.1278 64.787 73.0194 64.4765C72.9159 64.1612 72.8051 63.8704 72.6868 63.6043C72.5735 63.3333 72.4774 63.119 72.3986 62.9613L73.692 62.2813C73.7167 62.3306 73.7635 62.4267 73.8325 62.5696C73.9015 62.7075 73.9803 62.88 74.069 63.087C74.1577 63.289 74.2488 63.5206 74.3425 63.7817C74.4361 64.038 74.5223 64.3065 74.6012 64.5874C74.6849 64.8683 74.7515 65.1565 74.8007 65.4522C74.8549 65.7478 74.882 66.0361 74.882 66.317C74.882 66.7407 74.8229 67.1251 74.7046 67.47C74.5864 67.81 74.409 68.1007 74.1725 68.3422C73.9359 68.5836 73.6403 68.7684 73.2855 68.8965C72.9406 69.0246 72.539 69.0887 72.0807 69.0887H72.029C71.8417 69.0887 71.652 69.0591 71.4599 69C71.2726 68.9409 71.0928 68.862 70.9203 68.7635C70.7478 68.66 70.5877 68.5417 70.4399 68.4087C70.292 68.2707 70.1664 68.1229 70.0629 67.9652C69.7673 68.3101 69.4322 68.5836 69.0577 68.7857C68.6832 68.9877 68.2865 69.0887 67.8677 69.0887C67.6854 69.0887 67.4957 69.0641 67.2986 69.0148C67.1064 68.9704 66.9216 68.9014 66.7442 68.8078C66.5668 68.7142 66.4042 68.5984 66.2564 68.4604C66.1135 68.3225 66.0026 68.1623 65.9238 67.98C65.7759 68.1377 65.6183 68.2806 65.4507 68.4087C65.2832 68.5319 65.1009 68.6378 64.9038 68.7265C64.7067 68.8152 64.4874 68.8842 64.2459 68.9335C64.0094 68.9778 63.7483 69 63.4625 69H63.3073V67.5513ZM70.6173 60.3004L71.8146 59.103L73.0268 60.3152L71.8294 61.5126L70.6173 60.3004ZM67.3725 60.293L68.5699 59.0883L69.782 60.3004L68.5846 61.5052L67.3725 60.293ZM69.1538 58.0683L70.2477 56.9743L71.349 58.0757L70.2551 59.1696L69.1538 58.0683ZM76.2836 72.7622C77.0424 72.6094 77.7224 72.3975 78.3236 72.1265C78.9247 71.8555 79.4396 71.55 79.8683 71.21C80.297 70.87 80.6346 70.5078 80.8809 70.1235C81.1322 69.7441 81.285 69.3696 81.3392 69H80.9992C80.8809 69 80.7134 69 80.4966 69C80.2847 69 80.0433 68.9877 79.7722 68.963C78.703 68.899 77.9121 68.5491 77.3996 67.9135C77.173 67.6277 77.0301 67.2975 76.9709 66.923C76.9365 66.7259 76.9192 66.5288 76.9192 66.3317C76.9192 66.1445 76.9389 65.908 76.9783 65.6222C77.0227 65.3314 77.1212 65.0038 77.274 64.6391C77.4267 64.2696 77.6066 63.9517 77.8136 63.6857C78.0649 63.3752 78.3359 63.1412 78.6266 62.9835C78.9222 62.8209 79.2278 62.7396 79.5431 62.7396C80.2428 62.7396 80.8859 63.0549 81.4722 63.6857C81.6792 63.9172 81.8665 64.1784 82.034 64.4691C82.2015 64.7599 82.3444 65.0728 82.4627 65.4078C82.5809 65.738 82.6746 66.0854 82.7436 66.45C82.8125 66.8097 82.852 67.1768 82.8618 67.5513H83.564V69H82.7509C82.6031 69.7293 82.3346 70.3871 81.9453 70.9735C81.5609 71.5648 81.0928 72.0797 80.5409 72.5183C79.994 72.9568 79.383 73.3165 78.7079 73.5974C78.0378 73.8783 77.343 74.0754 76.6236 74.1887L76.2836 72.7622ZM79.5431 64.1957C79.4002 64.1957 79.2647 64.2523 79.1366 64.3657C79.0085 64.4741 78.8927 64.6145 78.7892 64.787C78.6907 64.9594 78.6069 65.1541 78.5379 65.3709C78.4689 65.5828 78.4221 65.7922 78.3975 65.9991C78.3827 66.1125 78.3753 66.2233 78.3753 66.3317C78.3753 66.4204 78.3827 66.5313 78.3975 66.6643C78.4172 66.7925 78.4689 66.9083 78.5527 67.0117C78.6266 67.1103 78.7178 67.1916 78.8262 67.2557C78.9395 67.3148 79.0578 67.3641 79.1809 67.4035C79.3091 67.438 79.4322 67.4651 79.5505 67.4848C79.6737 67.4996 79.7796 67.5094 79.8683 67.5143C80.1147 67.5291 80.3463 67.5365 80.5631 67.5365C80.6173 67.5365 80.7208 67.5365 80.8736 67.5365C81.0312 67.5316 81.2062 67.5217 81.3983 67.507C81.3836 67.1916 81.3466 66.8935 81.2875 66.6126C81.2283 66.3317 81.152 66.0706 81.0583 65.8291C80.9647 65.5877 80.8588 65.3709 80.7405 65.1787C80.6272 64.9816 80.5089 64.8116 80.3857 64.6687C80.3365 64.6194 80.2798 64.5677 80.2157 64.5135C80.1566 64.4543 80.0901 64.4026 80.0162 64.3583C79.9472 64.309 79.8733 64.2696 79.7944 64.24C79.7156 64.2104 79.6318 64.1957 79.5431 64.1957ZM83.2623 67.5513H84.1862C84.4819 67.5513 84.7899 67.5488 85.1102 67.5439C85.4304 67.5341 85.736 67.5045 86.0267 67.4552C86.3174 67.401 86.5835 67.3197 86.8249 67.2113C87.0664 67.098 87.2561 66.9378 87.3941 66.7309C87.5567 66.4796 87.6528 66.2086 87.6823 65.9178C87.6873 65.8538 87.6897 65.7897 87.6897 65.7257C87.6897 65.4941 87.6552 65.2452 87.5862 64.9791C87.532 64.7771 87.3965 64.5209 87.1797 64.2104C86.9678 63.8951 86.7042 63.56 86.3889 63.2052C86.0735 62.8455 85.7212 62.4784 85.3319 62.1039C84.9426 61.7294 84.546 61.3796 84.1419 61.0543L84.3119 59.5391L90.3875 56.9374L90.9567 58.2826L85.6645 60.5074C85.906 60.7143 86.1696 60.9459 86.4554 61.2022C86.7412 61.4584 87.0245 61.7417 87.3054 62.0522C87.6799 62.4661 87.9878 62.8628 88.2293 63.2422C88.4707 63.6167 88.658 63.9739 88.791 64.3139C88.9241 64.6539 89.0128 64.9742 89.0571 65.2748C89.0867 65.4719 89.1015 65.6591 89.1015 65.8365C89.1015 65.94 89.0916 66.0829 89.0719 66.2652C89.0571 66.4426 89.0103 66.6446 88.9315 66.8713C88.8575 67.098 88.7689 67.3049 88.6654 67.4922C88.2268 68.2707 87.4852 68.7561 86.4406 68.9483C86.2681 68.9828 86.0538 69 85.7975 69H83.2623V67.5513ZM90.1362 55.9396L84.1936 58.4526L84.2454 57.5065L89.7889 55.193L90.1362 55.9396ZM105.586 67.5513V69H105.438C105.118 69 104.832 68.9754 104.581 68.9261C104.334 68.8719 104.115 68.8004 103.923 68.7117C103.736 68.623 103.571 68.5196 103.428 68.4013C103.285 68.2781 103.162 68.15 103.058 68.017C102.851 68.1796 102.642 68.3225 102.43 68.4457C102.223 68.5688 101.999 68.6723 101.757 68.7561C101.521 68.8349 101.262 68.8965 100.981 68.9409C100.7 68.9803 100.385 69 100.035 69C99.4537 69 98.9141 68.8817 98.4164 68.6452C97.9237 68.4038 97.4679 68.0662 97.049 67.6326L97.8843 66.4574C98.1799 66.7333 98.478 66.9526 98.7786 67.1152C99.0792 67.2778 99.3773 67.3912 99.673 67.4552C99.8701 67.4996 100.067 67.5217 100.264 67.5217C100.358 67.5217 100.496 67.5143 100.678 67.4996C100.865 67.4799 101.092 67.4183 101.358 67.3148C101.609 67.2162 101.814 67.1103 101.972 66.997C102.134 66.8787 102.257 66.7777 102.341 66.6939L100.006 61.0765L101.351 60.5148C101.587 61.0913 101.802 61.6161 101.994 62.0891C102.191 62.5622 102.376 63.0106 102.548 63.4343C102.726 63.8581 102.898 64.277 103.066 64.6909C103.238 65.0999 103.42 65.5286 103.613 65.977C103.711 66.2135 103.805 66.4303 103.893 66.6274C103.987 66.8196 104.098 66.9846 104.226 67.1226C104.354 67.2557 104.514 67.3616 104.706 67.4404C104.899 67.5143 105.143 67.5513 105.438 67.5513H105.586ZM105.293 67.5513H106.719C107.005 67.5513 107.283 67.5464 107.554 67.5365C107.825 67.5217 108.077 67.4848 108.308 67.4257C108.54 67.3665 108.744 67.2803 108.922 67.167C109.099 67.0487 109.237 66.8861 109.336 66.6791C109.385 66.5757 109.422 66.4451 109.447 66.2874C109.461 66.1839 109.469 66.073 109.469 65.9548C109.469 65.8907 109.464 65.7946 109.454 65.6665C109.444 65.5335 109.412 65.3536 109.358 65.127C109.304 64.8954 109.225 64.6539 109.121 64.4026L108.478 62.8209L109.794 62.1704C109.794 62.1754 109.816 62.2271 109.86 62.3257C109.905 62.4193 109.961 62.5474 110.03 62.71C110.104 62.8726 110.183 63.0623 110.267 63.2791C110.351 63.491 110.43 63.7177 110.503 63.9591C110.725 64.6736 110.853 65.3043 110.888 65.8513C110.893 65.9301 110.895 66.009 110.895 66.0878C110.895 66.5362 110.821 66.9304 110.673 67.2704C110.526 67.6055 110.329 67.8839 110.082 68.1057C109.841 68.3274 109.562 68.5048 109.247 68.6378C108.932 68.7709 108.584 68.8645 108.205 68.9187C107.83 68.9729 107.441 69 107.037 69H105.293V67.5513ZM107.865 71.417L106.667 72.6143L105.455 71.4096L106.653 70.2048L107.865 71.417ZM110.895 71.4243L109.698 72.6291L108.486 71.417L109.683 70.2196L110.895 71.4243ZM117.165 68.49C117.165 69.1355 117.027 69.7514 116.752 70.3378C116.476 70.9242 116.109 71.4687 115.65 71.9713C115.197 72.4788 114.677 72.942 114.091 73.3609C113.504 73.7797 112.901 74.1443 112.28 74.4548L111.644 73.1465C111.999 72.9642 112.351 72.7622 112.701 72.5404C113.051 72.3236 113.381 72.0896 113.692 71.8383C114.002 71.587 114.288 71.3209 114.549 71.04C114.81 70.7641 115.029 70.4733 115.207 70.1678C115.389 69.8623 115.525 69.5445 115.613 69.2143C115.677 68.9778 115.709 68.7364 115.709 68.49C115.709 68.3914 115.704 68.3003 115.695 68.2165C115.66 67.9357 115.606 67.6351 115.532 67.3148C115.463 66.9896 115.387 66.6717 115.303 66.3613C115.219 66.0509 115.135 65.7601 115.052 65.4891C114.968 65.2132 114.896 64.9841 114.837 64.8017L116.227 64.373C116.414 64.9446 116.596 65.4325 116.774 65.8365C116.951 66.2357 117.133 66.5633 117.321 66.8196C117.508 67.0709 117.703 67.2557 117.905 67.3739C118.112 67.4922 118.338 67.5513 118.585 67.5513H118.703V69H118.577C118.508 69 118.42 68.9975 118.311 68.9926C118.203 68.9877 118.082 68.968 117.949 68.9335C117.821 68.899 117.688 68.8448 117.55 68.7709C117.417 68.697 117.289 68.5935 117.165 68.4604V68.49ZM118.424 67.5513H120.028C120.684 67.5513 121.339 67.4897 121.994 67.3665C122.65 67.2384 123.295 67.0709 123.931 66.8639C124.567 66.657 125.187 66.4204 125.794 66.1543C126.4 65.8883 126.984 65.6148 127.545 65.3339C127.205 65.2157 126.88 65.0875 126.57 64.9496C126.259 64.8116 125.954 64.6712 125.653 64.5283C125.422 64.4199 125.195 64.3164 124.973 64.2178C124.756 64.1143 124.544 64.0232 124.337 63.9443C124.135 63.8655 123.943 63.8039 123.761 63.7596C123.579 63.7103 123.411 63.6857 123.258 63.6857C123.056 63.6857 122.864 63.73 122.682 63.8187C122.5 63.9074 122.33 64.0207 122.172 64.1587C122.019 64.2917 121.881 64.4371 121.758 64.5948C121.635 64.7475 121.529 64.8929 121.44 65.0309C121.351 65.1639 121.282 65.2772 121.233 65.3709C121.189 65.4596 121.167 65.5064 121.167 65.5113L119.836 64.9126C119.841 64.9028 119.861 64.8609 119.895 64.787C119.935 64.7081 119.989 64.6096 120.058 64.4913C120.132 64.373 120.218 64.2375 120.317 64.0848C120.42 63.932 120.538 63.7768 120.671 63.6191C121.056 63.1559 121.462 62.8086 121.891 62.577C122.325 62.3454 122.78 62.2296 123.258 62.2296C123.495 62.2296 123.734 62.2567 123.975 62.3109C124.222 62.3651 124.471 62.439 124.722 62.5326C124.973 62.6213 125.229 62.7248 125.491 62.843C125.752 62.9613 126.015 63.082 126.281 63.2052C126.572 63.3432 126.865 63.4787 127.161 63.6117C127.462 63.7448 127.762 63.8655 128.063 63.9739C128.363 64.0774 128.664 64.1612 128.964 64.2252C129.265 64.2893 129.568 64.3213 129.874 64.3213L130.154 65.7257C129.81 65.8686 129.467 66.0238 129.127 66.1913C128.787 66.3539 128.432 66.5264 128.063 66.7087C127.521 66.9797 126.937 67.2507 126.311 67.5217C125.69 67.7928 125.037 68.0391 124.352 68.2609C123.672 68.4777 122.968 68.6551 122.238 68.793C121.509 68.931 120.772 69 120.028 69H118.424V67.5513ZM124.411 59.6574L123.207 60.8622L121.994 59.65L123.199 58.4452L124.411 59.6574ZM139.041 69C139.016 69 138.955 69 138.856 69C138.762 68.9951 138.642 68.9828 138.494 68.963C138.351 68.9384 138.191 68.9014 138.013 68.8522C137.836 68.8029 137.656 68.7339 137.474 68.6452C137.001 68.4235 136.644 68.1278 136.402 67.7583C136.161 67.3838 136.04 66.9428 136.04 66.4352C136.04 65.5433 136.442 64.6145 137.245 63.6487C137.407 63.4565 137.563 63.2841 137.71 63.1313C137.863 62.9786 137.996 62.8504 138.11 62.747C137.962 62.6139 137.843 62.5104 137.755 62.4365C137.666 62.3626 137.622 62.3232 137.622 62.3183L138.553 61.1874C138.558 61.1972 138.61 61.2441 138.708 61.3278C138.807 61.4116 138.935 61.5274 139.093 61.6752C139.255 61.823 139.438 61.998 139.64 62.2C139.842 62.3971 140.049 62.6139 140.26 62.8504C140.866 63.5403 141.317 64.1833 141.613 64.7796C141.909 65.3758 142.056 65.9277 142.056 66.4352C142.056 66.9428 141.943 67.3838 141.716 67.7583C141.495 68.1328 141.167 68.4259 140.733 68.6378C140.576 68.7167 140.416 68.7807 140.253 68.83C140.09 68.8743 139.935 68.9113 139.787 68.9409C139.64 68.9655 139.499 68.9828 139.366 68.9926C139.238 68.9975 139.13 69 139.041 69ZM139.13 63.7965C138.987 63.9246 138.819 64.0872 138.627 64.2843C138.44 64.4814 138.262 64.6983 138.095 64.9348C137.927 65.1713 137.784 65.4177 137.666 65.6739C137.553 65.9301 137.496 66.1839 137.496 66.4352C137.496 66.5091 137.501 66.5855 137.511 66.6643C137.526 66.7432 137.553 66.822 137.592 66.9009C137.636 66.9748 137.698 67.0487 137.777 67.1226C137.856 67.1965 137.962 67.263 138.095 67.3222C138.188 67.3665 138.284 67.4035 138.383 67.433C138.482 67.4577 138.573 67.4774 138.656 67.4922C138.74 67.507 138.817 67.5168 138.886 67.5217C138.955 67.5267 139.006 67.5291 139.041 67.5291C139.09 67.5291 139.154 67.5291 139.233 67.5291C139.312 67.5242 139.398 67.5143 139.492 67.4996C139.585 67.4848 139.684 67.4651 139.787 67.4404C139.891 67.4158 139.989 67.3813 140.083 67.337C140.265 67.2384 140.396 67.1201 140.475 66.9822C140.559 66.8393 140.6 66.657 140.6 66.4352C140.6 66.11 140.475 65.7183 140.223 65.26C139.972 64.8017 139.608 64.3139 139.13 63.7965ZM147.39 69C146.847 69 146.384 68.9359 146 68.8078C145.621 68.6797 145.298 68.4826 145.032 68.2165C144.869 68.0539 144.743 67.879 144.655 67.6917C144.571 67.5045 144.507 67.3197 144.463 67.1374C144.423 66.9551 144.401 66.7826 144.396 66.62C144.391 66.4525 144.389 66.3096 144.389 66.1913C144.389 66.1519 144.389 66.0361 144.389 65.8439C144.394 65.6468 144.399 65.3955 144.403 65.09C144.408 64.7845 144.411 64.4346 144.411 64.0404C144.411 63.6512 144.408 63.2397 144.403 62.8061C144.403 62.3823 144.399 61.9413 144.389 61.483C144.379 61.0248 144.362 60.5813 144.337 60.1526C144.317 59.7239 144.29 59.3297 144.256 58.97C144.226 58.6054 144.189 58.3072 144.145 58.0757L145.593 57.8096C145.638 58.0609 145.675 58.3688 145.704 58.7335C145.739 59.0981 145.766 59.4948 145.786 59.9235C145.81 60.3522 145.827 60.8006 145.837 61.2687C145.852 61.7319 145.86 62.1852 145.86 62.6287V66.3391C145.86 66.5067 145.867 66.6643 145.882 66.8122C145.901 66.9551 145.968 67.0807 146.081 67.1891C146.195 67.3025 146.362 67.3912 146.584 67.4552C146.811 67.5193 147.079 67.5513 147.39 67.5513H147.537V69H147.39ZM147.245 67.5513H149.824C150.021 67.5513 150.219 67.5119 150.416 67.433C150.618 67.3542 150.798 67.2483 150.955 67.1152C151.118 66.9822 151.251 66.8319 151.354 66.6643C151.463 66.4919 151.524 66.317 151.539 66.1396C151.544 66.0804 151.546 66.0213 151.546 65.9622C151.546 65.7355 151.502 65.4842 151.413 65.2083C151.33 64.9323 151.199 64.6367 151.022 64.3213C150.844 64.0059 150.637 63.6955 150.401 63.39C150.164 63.0796 149.915 62.7864 149.654 62.5104C149.398 62.2296 149.139 61.9709 148.878 61.7343C148.617 61.4978 148.376 61.2933 148.154 61.1209L148.346 59.4874L154.88 56.6713L155.449 58.0165L149.588 60.4778C149.957 60.7784 150.285 61.0814 150.571 61.387C150.857 61.6875 151.113 61.9906 151.34 62.2961C151.566 62.6016 151.768 62.9071 151.946 63.2126C152.128 63.5181 152.3 63.8236 152.463 64.1291C152.631 64.4346 152.796 64.7426 152.958 65.053C153.121 65.3635 153.296 65.6764 153.483 65.9917C153.626 66.2283 153.776 66.4426 153.934 66.6348C154.096 66.822 154.274 66.9822 154.466 67.1152C154.658 67.2483 154.868 67.3542 155.094 67.433C155.326 67.507 155.58 67.5464 155.856 67.5513H156.321V69H156.107C155.752 69 155.439 68.9778 155.168 68.9335C154.902 68.8891 154.641 68.8251 154.385 68.7413C154.03 68.6132 153.705 68.4259 153.409 68.1796C153.118 67.9332 152.862 67.6671 152.64 67.3813C152.478 67.6917 152.266 67.9677 152.005 68.2091C151.842 68.352 151.67 68.4728 151.487 68.5713C151.31 68.6699 151.125 68.7487 150.933 68.8078C150.741 68.867 150.544 68.9113 150.342 68.9409C150.14 68.9704 149.935 68.9901 149.728 69H147.245V67.5513ZM154.377 55.9396L148.435 58.4526L148.486 57.5065L154.03 55.193L154.377 55.9396ZM156.027 67.5513H156.19C156.48 67.5513 156.741 67.4946 156.973 67.3813C157.205 67.263 157.409 67.1103 157.587 66.923C157.769 66.7309 157.927 66.5116 158.06 66.2652C158.193 66.0188 158.308 65.7626 158.407 65.4965C158.506 65.2255 158.589 64.9545 158.658 64.6835C158.727 64.4125 158.786 64.1562 158.836 63.9148L160.299 64.2252C160.26 64.3435 160.21 64.4962 160.151 64.6835C160.097 64.8707 160.043 65.0728 159.989 65.2896C159.935 65.5014 159.888 65.7207 159.848 65.9474C159.809 66.1691 159.789 66.3761 159.789 66.5683C159.789 66.7013 159.801 66.8319 159.826 66.96C159.851 67.0832 159.893 67.1941 159.952 67.2926C160.011 67.3912 160.092 67.47 160.196 67.5291C160.299 67.5883 160.43 67.6178 160.587 67.6178C160.839 67.6178 161.063 67.5488 161.26 67.4109C161.462 67.2729 161.639 67.093 161.792 66.8713C161.95 66.6496 162.085 66.3983 162.199 66.1174C162.317 65.8365 162.416 65.5507 162.494 65.26C162.578 64.9693 162.645 64.6884 162.694 64.4174C162.748 64.1414 162.79 63.9025 162.82 63.7004L164.239 63.9591L164.202 64.1957C164.172 64.3583 164.138 64.5554 164.098 64.787C164.064 65.0136 164.032 65.2575 164.002 65.5187C163.973 65.7749 163.958 66.0041 163.958 66.2061C163.958 66.3884 163.97 66.5633 163.995 66.7309C164.024 66.8935 164.069 67.0388 164.128 67.167C164.192 67.2901 164.273 67.3936 164.372 67.4774C164.475 67.5562 164.601 67.603 164.749 67.6178C164.842 67.6277 164.931 67.6326 165.015 67.6326C165.158 67.6326 165.298 67.6154 165.436 67.5809C165.579 67.5414 165.705 67.4651 165.813 67.3517C165.926 67.2384 166.008 67.0955 166.057 66.923C166.106 66.7506 166.131 66.5559 166.131 66.3391C166.131 66.0583 166.091 65.7552 166.013 65.43C165.939 65.1048 165.848 64.787 165.739 64.4765C165.636 64.1612 165.525 63.8704 165.407 63.6043C165.293 63.3333 165.197 63.119 165.118 62.9613L166.412 62.2813C166.436 62.3306 166.483 62.4267 166.552 62.5696C166.621 62.7075 166.7 62.88 166.789 63.087C166.877 63.289 166.969 63.5206 167.062 63.7817C167.156 64.038 167.242 64.3065 167.321 64.5874C167.405 64.8683 167.471 65.1565 167.52 65.4522C167.575 65.7478 167.602 66.0361 167.602 66.317C167.602 66.7407 167.543 67.1251 167.424 67.47C167.306 67.81 167.129 68.1007 166.892 68.3422C166.656 68.5836 166.36 68.7684 166.005 68.8965C165.66 69.0246 165.259 69.0887 164.8 69.0887H164.749C164.561 69.0887 164.372 69.0591 164.18 69C163.992 68.9409 163.812 68.862 163.64 68.7635C163.468 68.66 163.307 68.5417 163.16 68.4087C163.012 68.2707 162.886 68.1229 162.783 67.9652C162.487 68.3101 162.152 68.5836 161.777 68.7857C161.403 68.9877 161.006 69.0887 160.587 69.0887C160.405 69.0887 160.215 69.0641 160.018 69.0148C159.826 68.9704 159.641 68.9014 159.464 68.8078C159.287 68.7142 159.124 68.5984 158.976 68.4604C158.833 68.3225 158.722 68.1623 158.644 67.98C158.496 68.1377 158.338 68.2806 158.17 68.4087C158.003 68.5319 157.821 68.6378 157.624 68.7265C157.426 68.8152 157.207 68.8842 156.966 68.9335C156.729 68.9778 156.468 69 156.182 69H156.027V67.5513ZM163.337 60.3004L164.534 59.103L165.747 60.3152L164.549 61.5126L163.337 60.3004ZM160.092 60.293L161.29 59.0883L162.502 60.3004L161.304 61.5052L160.092 60.293ZM161.874 58.0683L162.967 56.9743L164.069 58.0757L162.975 59.1696L161.874 58.0683ZM172.255 64.1957C172.113 64.1957 171.977 64.2523 171.849 64.3657C171.721 64.4741 171.605 64.6145 171.502 64.787C171.403 64.9594 171.319 65.1541 171.25 65.3709C171.181 65.5828 171.134 65.7922 171.11 65.9991C171.095 66.1125 171.088 66.2233 171.088 66.3317C171.088 66.4204 171.095 66.5313 171.11 66.6643C171.13 66.7925 171.181 66.9083 171.265 67.0117C171.339 67.1103 171.43 67.1916 171.538 67.2557C171.652 67.3148 171.77 67.3641 171.893 67.4035C172.021 67.438 172.145 67.4651 172.263 67.4848C172.386 67.4996 172.492 67.5094 172.581 67.5143C172.827 67.5291 173.059 67.5365 173.275 67.5365C173.33 67.5365 173.433 67.5365 173.586 67.5365C173.744 67.5316 173.918 67.5217 174.111 67.507C174.096 67.1916 174.059 66.8935 174 66.6126C173.941 66.3317 173.864 66.0706 173.771 65.8291C173.677 65.5877 173.571 65.3709 173.453 65.1787C173.34 64.9816 173.221 64.8116 173.098 64.6687C173.049 64.6194 172.992 64.5677 172.928 64.5135C172.869 64.4543 172.802 64.4026 172.728 64.3583C172.66 64.309 172.586 64.2696 172.507 64.24C172.428 64.2104 172.344 64.1957 172.255 64.1957ZM168.996 72.7622C169.755 72.6094 170.435 72.3975 171.036 72.1265C171.637 71.8555 172.152 71.55 172.581 71.21C173.009 70.87 173.347 70.5078 173.593 70.1235C173.845 69.7441 173.997 69.3696 174.052 69H173.712C173.593 69 173.426 69 173.209 69C172.997 69 172.756 68.9877 172.485 68.963C171.415 68.899 170.624 68.5491 170.112 67.9135C169.885 67.6277 169.742 67.2975 169.683 66.923C169.649 66.7259 169.632 66.5288 169.632 66.3317C169.632 66.1445 169.651 65.908 169.691 65.6222C169.735 65.3314 169.834 65.0038 169.986 64.6391C170.139 64.2696 170.319 63.9517 170.526 63.6857C170.777 63.3752 171.048 63.1412 171.339 62.9835C171.635 62.8209 171.94 62.7396 172.255 62.7396C172.955 62.7396 173.598 63.0549 174.185 63.6857C174.436 63.9616 174.655 64.2819 174.842 64.6465C175.035 65.0062 175.19 65.393 175.308 65.807C175.426 66.2209 175.508 66.652 175.552 67.1004C175.572 67.3123 175.582 67.5242 175.582 67.7361C175.582 67.9726 175.569 68.2091 175.545 68.4457C175.49 68.9877 175.37 69.4928 175.182 69.9609C174.995 70.4339 174.756 70.87 174.465 71.2691C174.175 71.6683 173.837 72.0304 173.453 72.3557C173.073 72.6809 172.662 72.9642 172.218 73.2057C171.78 73.452 171.317 73.6565 170.829 73.8191C170.341 73.9867 169.843 74.1099 169.336 74.1887L168.996 72.7622ZM181.015 68.49C181.015 69.1355 180.877 69.7514 180.601 70.3378C180.325 70.9242 179.958 71.4687 179.5 71.9713C179.047 72.4788 178.527 72.942 177.94 73.3609C177.354 73.7797 176.75 74.1443 176.129 74.4548L175.494 73.1465C175.849 72.9642 176.201 72.7622 176.551 72.5404C176.901 72.3236 177.231 72.0896 177.541 71.8383C177.852 71.587 178.137 71.3209 178.399 71.04C178.66 70.7641 178.879 70.4733 179.056 70.1678C179.239 69.8623 179.374 69.5445 179.463 69.2143C179.527 68.9778 179.559 68.7364 179.559 68.49C179.559 68.3914 179.554 68.3003 179.544 68.2165C179.51 67.9357 179.456 67.6351 179.382 67.3148C179.313 66.9896 179.236 66.6717 179.152 66.3613C179.069 66.0509 178.985 65.7601 178.901 65.4891C178.817 65.2132 178.746 64.9841 178.687 64.8017L180.076 64.373C180.264 64.9446 180.446 65.4325 180.623 65.8365C180.801 66.2357 180.983 66.5633 181.17 66.8196C181.358 67.0709 181.552 67.2557 181.754 67.3739C181.961 67.4922 182.188 67.5513 182.434 67.5513H182.552V69H182.427C182.358 69 182.269 68.9975 182.161 68.9926C182.052 68.9877 181.932 68.968 181.799 68.9335C181.67 68.899 181.537 68.8448 181.399 68.7709C181.266 68.697 181.138 68.5935 181.015 68.4604V68.49ZM185.585 62.1483C185.516 62.1483 185.435 62.1828 185.341 62.2517C185.248 62.3158 185.154 62.4143 185.061 62.5474C184.967 62.6804 184.878 62.843 184.794 63.0352C184.716 63.2274 184.654 63.4491 184.61 63.7004C184.595 63.7941 184.588 63.8828 184.588 63.9665C184.588 64.0749 184.602 64.1883 184.632 64.3065C184.666 64.4248 184.738 64.5332 184.846 64.6317C184.96 64.7303 185.102 64.8042 185.275 64.8535C185.452 64.9028 185.652 64.9348 185.874 64.9496C186.125 64.9594 186.361 64.9643 186.583 64.9643C186.8 64.9643 186.99 64.9594 187.152 64.9496C187.118 64.4716 187.024 64.0207 186.871 63.597C186.724 63.1732 186.524 62.8209 186.273 62.54C186.194 62.4513 186.093 62.3651 185.97 62.2813C185.851 62.1926 185.723 62.1483 185.585 62.1483ZM182.274 67.5513H182.422C182.964 67.5513 183.464 67.5267 183.922 67.4774C184.385 67.4232 184.797 67.3567 185.157 67.2778C185.521 67.1941 185.829 67.1029 186.081 67.0043C186.332 66.9058 186.517 66.8072 186.635 66.7087C186.699 66.6545 186.751 66.6052 186.79 66.5609C186.83 66.5165 186.869 66.4722 186.908 66.4278H186.162C185.896 66.4278 185.637 66.4081 185.386 66.3687C185.134 66.3243 184.898 66.2603 184.676 66.1765C184.454 66.0928 184.252 65.9893 184.07 65.8661C183.888 65.738 183.733 65.5926 183.604 65.43C183.535 65.3413 183.467 65.2354 183.398 65.1122C183.329 64.9841 183.272 64.8387 183.228 64.6761C183.183 64.5135 183.156 64.3287 183.146 64.1217V63.9961C183.146 63.8286 183.161 63.6438 183.191 63.4417C183.329 62.6928 183.592 62.067 183.981 61.5643C184.203 61.2687 184.452 61.0494 184.728 60.9065C185.004 60.7587 185.29 60.6848 185.585 60.6848C186.236 60.6848 186.827 60.973 187.359 61.5496C187.586 61.8009 187.788 62.0941 187.965 62.4291C188.143 62.7593 188.286 63.1141 188.394 63.4935C188.507 63.868 188.584 64.2548 188.623 64.6539C188.638 64.8264 188.645 64.9964 188.645 65.1639C188.645 65.3955 188.631 65.6246 188.601 65.8513C188.542 66.2997 188.419 66.689 188.231 67.0191C188.044 67.3493 187.805 67.6301 187.514 67.8617C187.229 68.0933 186.899 68.283 186.524 68.4309C186.154 68.5738 185.753 68.6871 185.319 68.7709C184.891 68.8546 184.44 68.9138 183.967 68.9483C183.494 68.9778 183.013 68.9951 182.525 69H182.274V67.5513ZM186.731 58.0683L185.526 59.273L184.314 58.0609L185.519 56.8561L186.731 58.0683Z" fill="#929497"/>
</svg>
