<svg width="22" height="22" viewBox="0 0 22 22" fill="none" xmlns="http://www.w3.org/2000/svg">
<path d="M6.85669 16.8209L9.69836 19.0209C10.065 19.3876 10.89 19.5709 11.44 19.5709H14.9234C16.0234 19.5709 17.215 18.7459 17.49 17.6459L19.69 10.9542C20.1484 9.67089 19.3234 8.57089 17.9484 8.57089H14.2817C13.7317 8.57089 13.2734 8.11255 13.365 7.47088L13.8234 4.53755C14.0067 3.71255 13.4567 2.79589 12.6317 2.52089C11.8984 2.24589 10.9817 2.61255 10.615 3.16255L6.85669 8.75422" stroke="#04D400" stroke-width="1.5" stroke-miterlimit="10"/>
<path d="M2.18164 16.8208V7.83749C2.18164 6.55416 2.73164 6.09583 4.01497 6.09583H4.93164C6.21497 6.09583 6.76497 6.55416 6.76497 7.83749V16.8208C6.76497 18.1042 6.21497 18.5625 4.93164 18.5625H4.01497C2.73164 18.5625 2.18164 18.1042 2.18164 16.8208Z" stroke="#04D400" stroke-width="1.5" stroke-linecap="round" stroke-linejoin="round"/>
</svg>
