<svg width="87" height="19" viewBox="0 0 87 19" fill="none" xmlns="http://www.w3.org/2000/svg">
<path d="M4.32 17.8642C3.64 17.8909 3.01333 17.8042 2.44 17.6042C1.88 17.4176 1.42 17.1576 1.06 16.8242C0.713333 16.4909 0.493333 16.1042 0.4 15.6642C0.306667 15.2109 0.386667 14.7509 0.64 14.2842C0.986667 13.7242 1.68 13.5576 2.72 13.7842C3.50667 13.9442 4.04667 14.0309 4.34 14.0442C4.64667 14.0576 4.90667 14.0176 5.12 13.9242C6.09333 13.6042 6.64 13.2576 6.76 12.8842C6.84 12.6042 6.66667 12.2776 6.24 11.9042C6.06667 11.7442 5.87333 11.5842 5.66 11.4242C5.44667 11.2642 5.26667 11.1042 5.12 10.9442C4.45333 10.4509 3.92667 9.88422 3.54 9.24422C3.16667 8.59089 3.01333 7.88422 3.08 7.12422C3.14667 6.36422 3.27333 5.73756 3.46 5.24422C3.64667 4.73756 3.88 4.29089 4.16 3.90422C4.65333 3.22422 5.29333 2.67089 6.08 2.24422C6.98667 1.77756 7.71333 1.47756 8.26 1.34422C9.34 1.10422 10.4333 1.08422 11.54 1.28422C11.9133 1.35089 12.2333 1.47756 12.5 1.66422C12.7667 1.85089 13.0333 2.04422 13.3 2.24422C13.7667 2.71089 13.88 3.18422 13.64 3.66422C13.5467 3.87756 13.4 4.05089 13.2 4.18422C13 4.31756 12.7867 4.39089 12.56 4.40422C12.5867 4.76422 12.52 5.03089 12.36 5.20422C12.0533 5.51089 11.52 5.71089 10.76 5.80422C9.66667 5.72422 8.92667 5.78422 8.54 5.98422C8.08667 6.22422 7.92 6.74422 8.04 7.54422C8.06667 7.71756 8.17333 7.89756 8.36 8.08422C8.56 8.27089 8.78667 8.47089 9.04 8.68422C9.30667 8.89756 9.58 9.13756 9.86 9.40422C10.1533 9.67089 10.4067 9.97756 10.62 10.3242C11.3667 11.5509 11.3067 12.9842 10.44 14.6242C9.8 15.8509 8.70667 16.7709 7.16 17.3842C6.36 17.7042 5.41333 17.8642 4.32 17.8642ZM18.8952 2.22422V2.26422C18.8952 2.27756 18.8952 2.28422 18.8952 2.28422C18.9085 2.28422 18.9152 2.29089 18.9152 2.30422V2.34422H18.9352L19.0552 2.66422C19.1885 3.05089 18.8418 4.25089 18.0152 6.26422C17.1352 8.41089 16.7285 10.0842 16.7952 11.2842C16.9418 12.1376 17.6552 11.4509 18.9352 9.22422C19.9485 7.49089 20.9285 5.59089 21.8752 3.52422C21.9952 3.24422 22.1218 2.95756 22.2552 2.66422C22.3885 2.35756 22.5552 2.10422 22.7552 1.90422C23.1952 1.42422 23.7285 1.29756 24.3552 1.52422C24.5685 1.27089 24.8152 1.09756 25.0952 1.00422C25.3885 0.910889 25.6618 0.890889 25.9152 0.944223C26.1818 0.997556 26.4085 1.12422 26.5952 1.32422C26.7818 1.51089 26.8818 1.76422 26.8952 2.08422C26.9352 2.35089 26.7952 2.98422 26.4752 3.98422C26.1685 4.98422 25.8818 5.89756 25.6152 6.72422C25.3485 7.55089 25.0752 8.45089 24.7952 9.42422C24.1152 11.7309 23.5752 13.9042 23.1752 15.9442C23.1618 16.3709 22.9752 16.7242 22.6152 17.0042C22.2685 17.2842 21.8752 17.4642 21.4352 17.5442C21.0085 17.6376 20.6018 17.6242 20.2152 17.5042C19.7485 17.3709 19.5018 17.0376 19.4752 16.5042C19.4752 16.3576 19.4685 16.2109 19.4552 16.0642C19.4818 16.5176 19.1552 16.9042 18.4752 17.2242C18.2885 17.3176 18.1152 17.4042 17.9552 17.4842C17.0218 17.7642 16.0418 17.7042 15.0152 17.3042C14.5352 17.1042 14.1018 16.8376 13.7152 16.5042C13.3418 16.1576 13.0818 15.7509 12.9352 15.2842C12.4685 13.7909 12.5552 11.8309 13.1952 9.40422C13.4618 8.36422 13.7885 7.35089 14.1752 6.36422C14.5618 5.37756 14.8418 4.66422 15.0152 4.22422C15.2018 3.78422 15.3352 3.48422 15.4152 3.32422C15.4952 3.15089 15.5818 2.98422 15.6752 2.82422C15.9018 2.37089 16.0952 2.06422 16.2552 1.90422L16.4952 1.68422C16.5218 1.65756 16.5485 1.64422 16.5752 1.64422C16.6018 1.63089 16.6352 1.61089 16.6752 1.58422C16.7818 1.51756 16.8952 1.47089 17.0152 1.44422L17.2952 1.38422H17.4152C17.8018 1.33089 18.1352 1.41089 18.4152 1.62422C18.4152 1.63756 18.4285 1.64422 18.4552 1.64422L18.6152 1.78422L18.6752 1.84422L18.7352 1.92422C18.7352 1.93756 18.7352 1.94422 18.7352 1.94422C18.7485 1.94422 18.7552 1.95089 18.7552 1.96422L18.7752 1.98422V2.02422C18.7885 2.02422 18.7952 2.03089 18.7952 2.04422V2.06422C18.8085 2.07756 18.8218 2.08422 18.8352 2.08422V2.10422C18.8352 2.11756 18.8352 2.12422 18.8352 2.12422C18.8485 2.12422 18.8552 2.13089 18.8552 2.14422C18.8552 2.14422 18.8618 2.15089 18.8752 2.16422V2.18422C18.8752 2.19756 18.8818 2.21089 18.8952 2.22422ZM19.4352 15.5442V15.4842C19.4218 15.4976 19.4152 15.5509 19.4152 15.6442C19.4152 15.6042 19.4218 15.5776 19.4352 15.5642V15.5442ZM27.0866 8.94422C27.3532 8.05089 27.5666 7.36422 27.7266 6.88422C27.8999 6.39089 28.0666 5.95089 28.2266 5.56422C28.3866 5.17756 28.5666 4.80422 28.7666 4.44422C28.9799 4.08422 29.2066 3.75756 29.4466 3.46422C29.6999 3.15756 29.9666 2.91756 30.2466 2.74422C30.5266 2.57089 30.8199 2.48422 31.1266 2.48422C31.4332 2.48422 31.7532 2.60422 32.0866 2.84422C32.6199 4.17756 32.9466 5.07089 33.0666 5.52422C33.2266 6.19089 33.3732 7.13089 33.5066 8.34422C33.6266 8.03756 33.7599 7.71756 33.9066 7.38422C34.0666 7.03756 34.2199 6.69089 34.3666 6.34422C34.7799 5.46422 35.0399 4.79756 35.1466 4.34422C35.4399 3.41089 36.0466 2.71089 36.9666 2.24422C37.7666 1.84422 38.5132 1.71756 39.2066 1.86422C39.4866 1.91756 39.6799 2.03089 39.7866 2.20422C39.9066 2.37756 39.9066 2.55756 39.7866 2.74422C39.6799 2.93089 39.6399 3.11089 39.6666 3.28422C39.7066 3.44422 39.7399 3.63756 39.7666 3.86422C39.8066 4.47756 39.6999 5.02422 39.4466 5.50422C39.1932 5.97089 38.9332 6.55756 38.6666 7.26422C38.3999 7.95756 38.1266 8.69756 37.8466 9.48422C37.5799 10.2709 37.3066 11.0709 37.0266 11.8842C36.7466 12.6976 36.4732 13.4376 36.2066 14.1042C35.6199 15.6376 35.1399 16.4842 34.7666 16.6442C34.2599 16.9509 33.8866 17.1309 33.6466 17.1842C33.3399 17.2376 32.9066 17.2376 32.3466 17.1842C31.9999 17.1576 31.6999 16.7109 31.4466 15.8442C31.2999 15.3776 31.1666 14.7309 31.0466 13.9042C30.8332 12.4642 30.6866 11.6709 30.6066 11.5242C30.0732 13.2576 29.6932 14.3509 29.4666 14.8042C29.2532 15.2576 29.0866 15.5576 28.9666 15.7042C28.8599 15.8509 28.7266 16.0442 28.5666 16.2842C28.3932 16.7642 27.9799 17.1176 27.3266 17.3442C26.7666 17.5576 26.2599 17.5909 25.8066 17.4442C25.3132 17.2842 25.1666 16.9776 25.3666 16.5242C25.5132 14.9242 26.0866 12.3976 27.0866 8.94422Z" fill="#F2AE00"/>
<path d="M46.1842 2.10422C46.3176 2.46422 46.3909 2.70422 46.4042 2.82422C46.4309 3.07756 46.3376 3.29089 46.1242 3.46422C46.1242 3.47756 46.1109 3.49756 46.0842 3.52422C46.2042 4.15089 46.2309 4.73756 46.1642 5.28422C46.0976 5.83089 46.0109 6.35756 45.9042 6.86422C46.6242 5.63756 47.1976 4.73756 47.6242 4.16422C48.5042 2.97756 49.3242 2.13089 50.0842 1.62422C50.3376 1.47756 50.6442 1.37089 51.0042 1.30422C51.3776 1.22422 51.7309 1.21089 52.0642 1.26422C52.3976 1.31756 52.6709 1.45089 52.8842 1.66422C53.1109 1.87756 53.2109 2.19756 53.1842 2.62422C52.8109 5.22422 52.4109 7.65089 51.9842 9.90422C51.5576 12.1442 51.0042 14.2842 50.3242 16.3242V16.3642H50.3042C50.1442 16.8442 49.7442 17.1842 49.1042 17.3842C48.4776 17.5709 47.9176 17.5842 47.4242 17.4242C46.8242 17.2509 46.5509 16.9309 46.6042 16.4642L46.6242 16.0042V15.9642C46.6776 15.6442 46.7042 15.4309 46.7042 15.3242C46.7176 15.2042 46.7309 15.1176 46.7442 15.0642C46.7709 14.7176 46.8242 14.3976 46.9042 14.1042C46.9976 13.7976 47.0642 13.5509 47.1042 13.3642C47.1442 13.1776 47.1842 13.0042 47.2242 12.8442C47.2642 12.6709 47.2909 12.5376 47.3042 12.4442C46.7976 13.1376 46.4376 13.5576 46.2242 13.7042C45.6909 14.0776 45.0709 14.2509 44.3642 14.2242C43.9242 14.1976 43.6709 14.0976 43.6042 13.9242C43.4709 13.5509 43.3776 13.3309 43.3242 13.2642C43.2442 13.1576 43.1776 12.9776 43.1242 12.7242C42.7776 14.2576 42.4376 15.3442 42.1042 15.9842C41.9709 16.2376 41.8376 16.4642 41.7042 16.6642C41.5176 17.1042 41.0909 17.4109 40.4242 17.5842C39.7976 17.7576 39.1976 17.7442 38.6242 17.5442C38.0376 17.3576 37.7576 17.0242 37.7842 16.5442C37.8109 16.0642 37.9109 15.4642 38.0842 14.7442C38.2442 14.0109 38.4376 13.2376 38.6642 12.4242C39.3442 9.85089 39.8242 8.17756 40.1042 7.40422C40.3976 6.63089 40.6442 6.02422 40.8442 5.58422C41.3242 4.55756 41.7509 3.81089 42.1242 3.34422C42.5376 2.50422 43.2242 1.99756 44.1842 1.82422C44.9442 1.67756 45.6109 1.77089 46.1842 2.10422ZM56.6723 14.1842C57.4457 14.2642 58.019 14.3042 58.3923 14.3042C58.779 14.3042 59.359 14.2509 60.1323 14.1442C60.3723 14.2242 60.5123 14.3242 60.5523 14.4442C60.5923 14.5642 60.6057 14.6909 60.5923 14.8242C60.579 14.9442 60.5857 15.0642 60.6123 15.1842C60.639 15.3042 60.7657 15.4042 60.9923 15.4842C61.1123 15.5242 61.1457 15.6442 61.0923 15.8442C61.0523 16.0309 60.9457 16.2376 60.7723 16.4642C60.3323 17.0376 59.8123 17.4376 59.2123 17.6642C58.2523 17.9042 57.499 18.0442 56.9523 18.0842C56.0457 18.1509 55.059 18.1176 53.9923 17.9842C52.819 17.7709 52.2523 17.2842 52.2923 16.5242C52.2923 13.7242 52.9057 10.9109 54.1323 8.08422C54.5323 7.16422 54.9857 6.19756 55.4923 5.18422C55.599 4.97089 55.659 4.73089 55.6723 4.46422C55.699 4.19756 55.719 3.93756 55.7323 3.68422C55.7457 3.43089 55.7857 3.20422 55.8523 3.00422C55.919 2.80422 56.059 2.66422 56.2723 2.58422C59.0457 1.47756 61.239 1.05089 62.8523 1.30422C63.4123 1.31756 63.779 1.51089 63.9523 1.88422C64.139 2.24422 64.159 2.65089 64.0123 3.10422C63.879 3.55756 63.6057 3.98422 63.1923 4.38422C62.7923 4.78422 62.2857 5.03089 61.6723 5.12422C60.8857 5.35089 60.4057 5.50422 60.2323 5.58422C59.899 5.74422 59.659 5.95756 59.5123 6.22422C59.3257 6.51756 59.1523 6.79756 58.9923 7.06422C58.8323 7.33089 58.719 7.61756 58.6523 7.92422L58.5723 8.36422C58.8257 8.48422 59.1323 8.52422 59.4923 8.48422C59.8657 8.43089 60.2057 8.38422 60.5123 8.34422C60.8323 8.29089 61.0857 8.28422 61.2723 8.32422C61.4723 8.36422 61.5123 8.56422 61.3923 8.92422C61.2857 9.27089 61.079 9.66422 60.7723 10.1042C60.479 10.5442 60.059 10.8642 59.5123 11.0642C59.1657 11.1309 58.9257 11.1842 58.7923 11.2242C58.6723 11.2509 58.579 11.2709 58.5123 11.2842C58.419 11.2976 58.1523 11.3176 57.7123 11.3442C57.0857 12.4109 56.7057 13.2376 56.5723 13.8242C56.519 14.0642 56.5523 14.1842 56.6723 14.1842ZM73.7006 3.14422C74.154 3.38422 74.4406 3.73756 74.5606 4.20422C74.294 5.69756 74.054 7.18422 73.8406 8.66422C73.6273 10.1309 73.4206 11.3642 73.2206 12.3642C73.0206 13.3509 72.8806 14.0909 72.8006 14.5842C72.734 15.0776 72.654 15.5709 72.5606 16.0642L72.4406 16.4842C72.414 16.6309 72.3873 16.7642 72.3606 16.8842C72.334 17.0176 72.3073 17.1576 72.2806 17.3042C71.9073 17.7309 71.4006 17.9442 70.7606 17.9442C70.0806 17.9442 69.5406 17.7709 69.1406 17.4242C68.9006 17.2376 68.8606 16.8442 69.0206 16.2442C69.0873 16.0042 69.1273 15.6976 69.1406 15.3242C69.1673 14.9376 69.194 14.6176 69.2206 14.3642V14.3242C68.8206 14.4709 68.4606 14.6642 68.1406 14.9042C67.8206 15.1309 67.6206 15.2776 67.5406 15.3442C67.4606 15.3976 67.354 15.4442 67.2206 15.4842C67.0873 15.5109 66.9673 15.5309 66.8606 15.5442C66.6073 15.5576 66.434 15.5976 66.3406 15.6642C65.5673 17.0509 64.874 17.8242 64.2606 17.9842C63.874 18.1042 63.4873 18.1309 63.1006 18.0642C62.714 18.0109 62.4073 17.7842 62.1806 17.3842C61.754 16.9842 61.8606 15.8909 62.5006 14.1042C62.8473 13.1576 63.3406 12.0242 63.9806 10.7042C64.634 9.37089 65.2606 8.21089 65.8606 7.22422C67.154 5.10422 68.574 3.31756 70.1206 1.86422C70.374 1.75756 70.6473 1.63756 70.9406 1.50422C71.234 1.35756 71.5206 1.27756 71.8006 1.26422C72.094 1.25089 72.394 1.28422 72.7006 1.36422C73.0073 1.44422 73.2673 1.56422 73.4806 1.72422C73.974 2.09756 74.0473 2.57089 73.7006 3.14422ZM69.4206 8.40422C69.1406 9.20422 68.8606 9.94422 68.5806 10.6242C68.3006 11.2909 68.0606 11.8776 67.8606 12.3842L69.4406 12.3242C69.5473 11.4709 69.6673 10.6242 69.8006 9.78422C69.934 8.94422 70.0606 8.10422 70.1806 7.26422L69.4206 8.40422ZM68.8806 12.4042C69.0673 12.4042 69.254 12.3909 69.4406 12.3642V12.3442C69.2673 12.3576 69.1073 12.3709 68.9606 12.3842C68.814 12.3976 68.7873 12.4042 68.8806 12.4042ZM80.8897 11.5842C80.5297 12.6242 80.163 13.6242 79.7897 14.5842C79.4164 15.5442 79.103 16.2709 78.8497 16.7642C78.6097 17.2709 78.3964 17.6176 78.2097 17.8042C78.023 17.9909 77.8297 18.1176 77.6297 18.1842C77.443 18.2509 77.2497 18.2776 77.0497 18.2642C76.863 18.2509 76.6697 18.2376 76.4697 18.2242C75.3497 18.0509 75.003 17.2442 75.4297 15.8042C75.7097 14.6576 75.9364 13.7242 76.1097 13.0042C76.283 12.2709 76.423 11.6709 76.5297 11.2042C76.6497 10.7242 76.7497 10.3309 76.8297 10.0242C76.9097 9.70422 76.9964 9.39089 77.0897 9.08422C77.183 8.77756 77.2964 8.43089 77.4297 8.04422C77.5764 7.65756 77.763 7.14422 77.9897 6.50422C77.483 6.57089 77.0297 6.51756 76.6297 6.34422C76.043 6.09089 75.803 5.54422 75.9097 4.70422C75.963 4.31756 76.1697 3.95756 76.5297 3.62422C76.7164 3.45089 76.9364 3.26422 77.1897 3.06422C77.7097 2.65089 78.743 2.21089 80.2897 1.74422C81.8897 1.26422 83.263 1.03756 84.4097 1.06422C84.7164 1.01089 85.0297 1.05089 85.3497 1.18422C85.683 1.30422 85.9497 1.47089 86.1497 1.68422C86.3497 1.89756 86.4497 2.13089 86.4497 2.38422C86.463 2.63756 86.303 2.86422 85.9697 3.06422C85.8097 3.17089 85.6964 3.35089 85.6297 3.60422C85.563 3.84422 85.4897 4.10422 85.4097 4.38422C85.3297 4.65089 85.2097 4.89756 85.0497 5.12422C84.903 5.35089 84.663 5.48422 84.3297 5.52422C84.1564 5.61756 83.9097 5.68422 83.5897 5.72422C83.283 5.76422 83.0764 5.79756 82.9697 5.82422C82.8764 5.83756 82.823 5.87089 82.8097 5.92422C82.5697 6.63089 82.283 7.49089 81.9497 8.50422C81.6164 9.50422 81.263 10.5309 80.8897 11.5842ZM78.1897 6.28422C78.163 6.28422 78.1497 6.29089 78.1497 6.30422C78.1497 6.30422 78.163 6.30422 78.1897 6.30422V6.28422Z" fill="#676767"/>
</svg>
