<svg width="428" height="871" viewBox="0 0 428 871" fill="none" xmlns="http://www.w3.org/2000/svg">
<g opacity="0.61">
<g style="mix-blend-mode:difference" opacity="0.2" clip-path="url(#clip0_401_2661)">
<rect width="1440" height="728" transform="translate(-107 1440) rotate(-90)" fill="#222222"/>
<path d="M-97.3094 872.064C-100.577 870.464 -103.797 868.896 -107 867.424L-107 869.056C-103.861 870.496 -100.707 872.032 -97.5035 873.6C-91.5016 876.544 -85.3055 879.584 -78.9638 882.048C-57.8518 890.24 -30.1716 897.312 -3.31651 879.04C7.60349 871.616 16.5174 853.088 24.3798 836.768C31.3848 822.24 37.4353 809.696 42.5151 810.816C44.8447 811.328 46.9317 814.72 48.873 821.152C49.7628 824.128 50.2158 829.184 50.2158 836.224C50.2158 860.8 44.7315 904.128 39.2958 936.192C33.3909 971.072 23.9754 1014.02 12.6833 1020.67C9.09187 1022.78 5.45186 1021.06 1.89275 1015.49C-2.68557 1008.35 -6.69766 1000.7 -10.5965 993.312C-18.2486 978.752 -25.4801 964.992 -36.2059 955.872C-51.5101 942.88 -67.4776 941.312 -83.6553 951.2C-87.5704 953.6 -91.178 956 -94.365 958.144C-99.0728 961.28 -103.182 964.032 -107 965.888L-107 967.552C-103.101 965.664 -98.911 962.88 -94.1062 959.648C-90.9192 957.536 -87.3277 955.104 -83.4127 952.736C-67.429 942.976 -51.6557 944.544 -36.5295 957.376C-25.933 966.368 -18.7501 980.032 -11.1627 994.496C-7.26387 1001.92 -3.21943 1009.6 1.39124 1016.8C5.17683 1022.69 9.0595 1024.54 12.926 1022.27C24.5416 1015.42 34.1027 971.968 40.0723 936.768C45.5242 904.576 51.0247 861.056 51.0247 836.288C51.0246 828.96 50.5393 823.616 49.5687 820.384C47.4979 813.504 45.2168 809.856 42.6122 809.28C37.128 808.064 30.948 820.864 23.7974 835.712C15.9998 851.904 7.15051 870.272 -3.59153 877.568C-30.2687 895.712 -57.8194 888.672 -78.8182 880.512C-85.1275 878.048 -91.3236 875.04 -97.3094 872.096L-97.3094 872.064Z" fill="white" fill-opacity="0.2"/>
<path d="M438.531 43.3919C439.858 39.2639 440.586 32.6079 440.586 24.6079C440.586 17.4719 439.987 9.02394 438.596 0.0319365L437.415 0.0319365C438.838 9.02394 439.453 17.4719 439.453 24.6079C439.453 32.0959 438.774 38.4959 437.577 42.2079C431.51 60.9919 420.784 69.3119 409.443 78.1119C399.656 85.6959 389.529 93.5679 382.394 108.8L382.054 108.8L382.054 109.504C374.241 127.04 370.439 150.624 370.439 181.664C370.439 212.704 374.111 243.776 377.055 269.344C379.078 286.816 380.809 301.92 380.809 311.648C380.809 317.344 380.21 320.832 378.997 322.272C377.379 324.192 374.321 322.752 369.953 318.016C349.537 295.904 300.874 251.232 280.733 254.336C264.846 256.768 248.426 271.872 232.556 286.496C209.567 307.648 185.818 329.504 163.104 313.6C137.204 295.424 90.9029 215.392 86.9879 158.464C86.7614 155.136 86.6482 151.552 86.6482 147.808C86.6482 110.752 97.8108 56.5759 113.972 0.0959155L112.759 0.0959156C96.6299 56.6079 85.5157 110.752 85.5157 147.808C85.5157 151.648 85.629 155.328 85.8717 158.752C89.8514 216.416 136.589 297.376 162.732 315.712C185.867 331.936 209.842 309.856 233.041 288.544C248.814 274.016 265.138 259.008 280.83 256.608C298.787 253.856 344.295 292.8 369.42 320C374.305 325.28 377.541 326.656 379.595 324.224C381.197 322.368 381.957 318.24 381.957 311.68C381.957 301.696 380.21 286.496 378.172 268.896C375.227 243.424 371.571 211.712 371.571 181.696C371.571 151.68 375.324 127.808 383.041 110.688C390.014 95.6159 400.093 87.8079 409.832 80.2239C421.35 71.2959 432.238 62.8479 438.499 43.4239L438.531 43.3919Z" fill="white" fill-opacity="0.2"/>
<path d="M-106.903 896.416C-106.903 896.416 -106.968 896.32 -107 896.256L-107 897.568C-105.916 899.584 -104.784 901.6 -103.133 903.008C-98.4095 906.976 -93.4914 905.856 -88.7352 904.768C-86.082 904.16 -83.348 903.52 -80.6625 903.776C-76.4401 904.16 -72.0721 905.888 -67.8335 907.52C-64.3391 908.864 -60.7314 910.272 -57.2047 910.944C-35.8015 915.04 -16.4528 911.328 0.307331 899.936C3.78556 897.568 9.1404 888.288 14.8026 878.464C22.0503 865.92 29.5406 852.928 34.0865 852.416C35.1057 852.288 35.8984 852.8 36.5294 853.984C38.3413 857.376 38.681 866.464 37.5162 881.024C36.675 891.584 34.4424 901.76 32.2746 911.584C31.0128 917.312 29.7023 923.264 28.6993 929.184C28.4081 930.848 28.1331 932.576 27.8257 934.368C24.2828 955.648 19.4133 984.768 10.9038 988.96C6.84315 990.944 2.20013 987.04 -2.89587 977.344C-10.9201 962.08 -19.2192 946.272 -31.8217 935.584C-43.9065 925.344 -67.4129 913.536 -80.1286 918.048C-82.7332 918.976 -84.4966 921.12 -86.1953 923.2C-88.4763 925.984 -90.628 928.608 -94.5268 927.424C-97.4065 926.528 -99.0889 924.32 -100.561 922.368C-102.341 920.032 -103.958 917.984 -107 918.56L-107 919.52C-104.104 918.944 -102.6 920.864 -100.82 923.168C-99.2993 925.184 -97.5682 927.456 -94.5915 928.352C-90.5147 929.6 -88.2822 926.88 -85.9364 924C-84.2701 921.952 -82.5553 919.872 -80.0315 918.976C-67.3967 914.496 -44.0198 926.24 -31.9997 936.448C-19.4781 947.072 -11.2112 962.816 -3.21942 978.016C2.006 987.936 6.79462 991.936 11.0332 989.856C19.8016 985.568 24.7196 956.128 28.3111 934.624C28.6023 932.832 28.8935 931.104 29.1847 929.44C30.1877 923.552 31.4819 917.632 32.7438 911.936C34.9116 902.048 37.1603 891.84 38.0177 881.152C38.4707 875.424 38.7134 870.496 38.7134 866.464C38.7134 859.872 38.1148 855.552 36.8853 853.28C36.1573 851.936 35.219 851.328 34.0865 851.456C29.3788 852 21.8238 865.088 14.5114 877.76C8.88155 887.52 3.55906 896.736 0.177906 899.04C-16.5176 910.4 -35.8015 914.08 -57.1238 910.016C-60.6182 909.344 -64.2258 907.936 -67.7041 906.592C-71.9588 904.928 -76.343 903.232 -80.5977 902.848C-83.3156 902.592 -86.082 903.232 -88.7513 903.84C-93.6694 904.96 -98.2962 906.048 -102.907 902.144C-104.606 900.704 -105.754 898.56 -106.887 896.448L-106.903 896.416Z" fill="white" fill-opacity="0.2"/>
<path d="M460.144 791.776C457.702 749.312 432.836 703.776 411.773 703.2C379.482 702.304 353.678 739.008 328.732 774.528C324.494 780.544 320.11 786.784 315.806 792.672L313.218 796.224C301.052 812.928 287.252 831.872 272.353 838.048C259.718 843.264 230.323 851.232 220.163 842.56C212.721 836.192 208.467 818.08 204.358 800.576C201.51 788.48 198.825 777.056 195.152 769.024L194.974 768.64C186.594 750.336 182.296 734.944 182.081 722.464C181.984 716.8 181.854 709.76 181.385 699.808C180.754 686.464 179.767 678.592 179.056 672.832C178.603 669.184 178.263 666.528 178.263 664.192C178.263 658.432 180.334 653.6 187.161 637.632C207.367 590.432 242.505 591.328 276.494 592.16C319.252 593.248 363.482 594.368 377.476 498.624C379.482 484.864 380.517 471.456 380.517 458.784C380.517 422.784 372.38 392.16 357.011 370.176C334.443 337.92 299.24 329.344 269.392 348.864C200.507 393.888 161.114 501.472 123.582 617.184C89.463 722.368 80.0637 822.528 73.9323 908.192C73.4955 914.4 73.269 920.288 73.269 925.728C73.269 960.448 82.1992 976.96 93.5074 997.856C97.8431 1005.86 102.308 1014.14 106.886 1024.42C112.112 1036.19 115.687 1051.14 119.149 1065.63C124.795 1089.25 130.118 1111.55 141.976 1120.77C167.132 1140.32 186.724 1092.29 204.034 1049.89C212.042 1030.27 219.597 1011.74 227.152 1000.86C257.113 957.824 307.637 970.688 336.029 1009.73C344.894 1021.92 355.846 1045.28 367.462 1070.02C386.681 1110.98 408.473 1157.41 426.77 1165.6C435.376 1169.47 441.394 1168.45 445.148 1162.53C448.286 1157.57 449.807 1149.22 449.807 1136.99C449.807 1116.86 445.617 1088.06 441.184 1057.57C435.765 1020.29 429.617 978.016 429.617 941.984C429.617 924.8 430.96 910.56 433.742 898.496C436.945 884.608 441.556 872.832 446.037 861.472C453.414 842.688 460.387 824.96 460.387 799.872C460.387 797.248 460.306 794.528 460.144 791.808L460.144 791.776ZM432.998 897.792C430.167 910.08 428.792 924.512 428.792 941.952C428.792 978.208 434.956 1020.61 440.391 1057.98C444.808 1088.38 448.982 1117.09 448.982 1136.99C448.982 1148.7 447.558 1156.64 444.63 1161.25C441.087 1166.85 435.295 1167.78 426.948 1164.03C408.893 1155.94 387.199 1109.7 368.044 1068.93C356.413 1044.13 345.412 1020.7 336.481 1008.42C307.863 969.056 256.903 956.128 226.667 999.584C219.031 1010.56 211.427 1029.18 203.387 1048.9C186.271 1090.85 166.857 1138.4 142.267 1119.3C130.716 1110.3 125.442 1088.29 119.877 1064.96C116.399 1050.37 112.791 1035.3 107.485 1023.36C102.891 1013.02 98.3931 1004.7 94.0575 996.672C82.8948 976.032 74.0779 959.744 74.0779 925.696C74.0779 920.32 74.3044 914.496 74.7412 908.384C80.8564 822.912 90.2395 722.944 124.278 618.016C161.729 502.56 201.025 395.2 269.667 350.336C299.289 330.976 334.2 339.456 356.558 371.424C371.717 393.088 379.725 423.296 379.725 458.752C379.725 471.264 378.722 484.512 376.716 498.144C370.52 540.544 357.771 567.392 337.776 580.16C319.867 591.616 297.833 591.04 276.527 590.496C242.359 589.632 207.027 588.736 186.562 636.512C176.791 659.328 176.629 659.968 178.279 673.152C178.991 678.848 179.961 686.688 180.592 699.904C181.062 709.792 181.191 716.832 181.288 722.464C181.515 735.328 185.883 751.061 194.392 769.664L194.57 770.048C198.161 777.888 200.831 789.216 203.646 801.216C207.82 819.008 212.155 837.408 219.872 844C230.21 852.832 259.815 844.832 272.547 839.584C287.608 833.376 301.473 814.336 313.719 797.536L316.308 793.984C320.611 788.096 324.995 781.856 329.234 775.808C354.083 740.448 379.757 703.872 411.789 704.768C432.513 705.344 456.957 750.144 459.368 791.936C459.513 794.592 459.594 797.248 459.594 799.808C459.594 824.352 452.703 841.856 445.423 860.416C440.925 871.872 436.266 883.712 433.03 897.76L432.998 897.792Z" fill="white" fill-opacity="0.2"/>
<path d="M211.023 43.5518C210.424 45.1838 209.324 47.6799 207.917 50.8479C202.546 63.0079 193.567 83.3918 193.567 97.7598C193.567 103.392 194.942 107.584 197.66 110.24C201.057 113.568 208.952 106.24 214.178 101.376C215.456 100.192 216.556 99.1679 217.348 98.5279C218.982 97.2159 220.471 95.9998 221.813 95.0078C230.808 88.2238 240.094 81.1838 250.189 75.9678C251.241 75.4238 252.438 74.9119 253.684 74.3359C259.071 71.9359 265.752 68.9919 269.036 61.6319C270.314 58.7839 271.156 55.9998 271.56 53.3758C271.738 52.1598 271.835 50.9758 271.835 49.7918C271.835 41.0878 266.836 35.1038 261.999 29.3118C260.899 27.9998 259.75 26.6238 258.715 25.2798L257.728 23.9998C240.758 1.95183 230.501 -11.3602 216.281 29.1838C214.889 33.1198 213.013 38.2398 211.039 43.5838L211.023 43.5518ZM257.275 25.3118L258.262 26.5918C259.33 27.9678 260.462 29.3438 261.578 30.6558C266.221 36.2238 271.026 41.9518 271.026 49.7598C271.026 50.7838 270.945 51.8078 270.784 52.8638C270.428 55.2638 269.635 57.8559 268.438 60.5439C265.332 67.5199 258.78 70.4318 253.506 72.7678C252.228 73.3438 251.031 73.8558 249.979 74.3998C239.852 79.6478 230.533 86.6878 221.522 93.5038C220.179 94.5278 218.675 95.7118 217.041 97.0558C216.232 97.7278 215.116 98.7519 213.822 99.9359C209.049 104.384 201.057 111.808 198.016 108.8C195.573 106.4 194.376 102.784 194.376 97.7598C194.376 83.9998 203.241 63.9038 208.531 51.9038C209.939 48.7038 211.055 46.1758 211.686 44.4798C213.66 39.1358 215.553 34.0159 216.944 30.0479C230.727 -9.21613 240.725 3.77584 257.291 25.3118L257.275 25.3118Z" fill="white" fill-opacity="0.2"/>
<path d="M192.871 17.3118C190.267 24.3838 187.355 31.4237 184.281 38.8797C174.865 61.6957 164.188 87.5197 164.188 110.752C164.188 115.328 164.593 119.68 165.434 124.064C173.28 165.088 195.201 159.2 207.577 152.064C215.132 147.68 222.622 142.048 229.854 136.576C238.282 130.208 247.002 123.616 255.884 119.04C261.239 116.256 266.885 114.88 272.337 113.536C289.081 109.408 304.886 105.504 304.886 61.3438C304.886 57.8558 304.789 54.0798 304.595 50.1438C304.336 45.1198 303.948 40.9917 303.382 37.4717C301.473 25.7277 297.865 22.2078 292.413 16.8958C290.763 15.2958 288.903 13.4718 286.88 11.1998C283.79 7.74375 280.862 3.9678 278.047 0.0317943L277.206 0.0317944C280.215 4.25579 283.337 8.31979 286.638 12.0318C288.66 14.3038 290.537 16.1277 292.187 17.7597C297.525 22.9757 301.052 26.3997 302.896 37.7597C303.463 41.2157 303.851 45.2798 304.094 50.2398C304.288 54.1438 304.385 57.8878 304.385 61.3438C304.385 104.672 289.501 108.32 272.256 112.576C266.788 113.92 261.125 115.328 255.738 118.112C246.824 122.72 238.104 129.312 229.66 135.712C222.428 141.184 214.97 146.816 207.431 151.168C195.217 158.24 173.571 164.064 165.871 123.776C165.062 119.52 164.657 115.264 164.657 110.816C164.657 87.9358 175.27 62.2397 184.637 39.5517C187.727 32.0957 190.639 25.0237 193.243 17.9517C195.217 12.6077 196.948 7.90375 198.178 4.38374C198.679 2.94375 199.181 1.50372 199.682 0.0637344L199.1 0.0637344C198.663 1.31174 198.226 2.59181 197.789 3.8398C196.56 7.3598 194.829 12.0637 192.855 17.3757L192.871 17.3118Z" fill="white" fill-opacity="0.2"/>
<path d="M-42.4021 115.04C-42.4021 119.232 -42.4183 123.328 -42.4345 127.36C-42.4345 131.232 -42.4668 135.04 -42.4668 138.784C-42.4668 160.608 -41.8682 177.984 -38.9401 197.12C-37.4032 207.136 -34.9927 216.512 -32.6469 225.6C-28.7481 240.736 -25.0595 255.072 -25.0595 272.192C-25.0595 275.04 -25.1566 277.92 -25.3669 280.736C-26.289 293.376 -30.0585 302.816 -33.6985 311.968C-37.7914 322.24 -41.6579 331.968 -41.6579 345.568C-41.6579 346.816 -41.6256 348.064 -41.5609 349.344C-41.1241 357.76 -37.3061 371.2 -33.6014 384.224C-31.2233 392.608 -28.9745 400.512 -27.9392 406.112C-26.4185 414.272 -25.6905 420.384 -25.1404 424.832C-23.5226 438.272 -22.9241 439.968 -10.4025 446.528C-6.94041 448.32 -3.70485 449.632 -0.582543 450.912C11.0331 455.616 20.2059 459.328 28.9581 483.808C34.863 500.32 37.7264 521.28 37.7264 547.904C37.7264 574.272 34.9439 601.824 32.4687 626.144C31.1744 638.848 29.9611 650.88 29.492 659.776C29.2169 664.96 29.039 672.96 29.039 681.152C29.039 704.64 33.3908 732.16 39.6192 734.08C42.5798 734.976 47.0125 730.432 51.3643 703.488L51.8497 700.48C68.4966 597.856 90.2072 526.272 126.801 453.44C136.896 433.344 141.604 417.984 141.604 405.152C141.604 402.144 141.329 399.168 140.811 396.384C138.239 382.72 129.519 372.768 119.424 361.216C114.215 355.264 108.31 348.512 102.616 340.512C75.0809 301.856 54.9558 246.4 45.9609 184.352C43.3078 166.048 41.965 148.16 41.965 131.232C41.965 75.968 55.6514 36.96 69.7261 0.0319775L68.7069 0.0319776C54.6807 36.896 41.1561 75.904 41.1561 131.232C41.1561 148.32 42.5151 166.336 45.1844 184.8C54.2278 247.2 74.4662 302.976 102.146 341.824C107.857 349.856 113.794 356.608 119.02 362.592C128.985 373.984 137.576 383.808 140.051 396.928C140.552 399.552 140.795 402.304 140.795 405.152C140.795 417.568 136.168 432.544 126.235 452.32C89.5439 525.344 67.7686 597.12 51.0893 700L50.604 703.008C47.3522 723.168 43.4857 733.632 39.7649 732.48C34.588 730.88 29.8641 706.4 29.864 681.12C29.864 672.992 30.0258 665.056 30.3009 659.936C30.77 651.104 31.9833 639.104 33.2776 626.432C35.7528 602.048 38.5515 574.4 38.5515 547.872C38.5515 520.928 35.6395 499.648 29.6375 482.848C20.6912 457.856 11.3728 454.08 -0.404584 449.312C-3.5269 448.032 -6.74627 446.752 -10.1921 444.928C-22.6652 438.432 -22.827 437.088 -24.3477 424.416C-24.8977 419.904 -25.6257 413.76 -27.1626 405.504C-28.2304 399.776 -30.4953 391.808 -32.8896 383.392C-36.3678 371.136 -40.3313 357.216 -40.752 349.152C-40.8167 347.936 -40.849 346.72 -40.849 345.536C-40.849 332.48 -37.0634 322.976 -33.0675 312.896C-29.3628 303.584 -25.5287 293.952 -24.5742 280.896C-24.3639 277.984 -24.2506 275.008 -24.2506 272.096C-24.2506 254.592 -28.1495 239.424 -31.9189 224.8C-34.2323 215.776 -36.6428 206.464 -38.1474 196.608C-41.0594 177.632 -41.6418 160.416 -41.6418 138.752C-41.6418 135.008 -41.6418 131.232 -41.6094 127.36C-41.5932 123.328 -41.577 119.232 -41.577 115.04C-41.577 95.488 -40.4284 78.0159 -38.0503 61.5679C-35.0574 40.7999 -30.8674 20.416 -25.9817 -6.17557e-05L-26.8715 -6.17169e-05C-31.6924 20.2559 -35.8501 40.48 -38.8268 61.1199C-41.2211 77.696 -42.3859 95.328 -42.3859 115.04L-42.4021 115.04Z" fill="white" fill-opacity="0.2"/>
<path d="M207.092 16.5439C205.781 20.2559 203.937 25.2799 201.996 30.5279C199.213 38.0479 196.22 45.3118 193.033 53.0558C192.321 54.7838 191.496 56.7039 190.639 58.7199C185.106 71.6159 177.535 89.2799 177.535 105.536C177.535 110.016 178.117 114.176 179.282 117.888C188.067 145.984 209.033 129.088 221.555 119.008C223.075 117.792 224.515 116.608 225.793 115.648C234.497 109.056 243.508 102.24 253.004 97.3439C254.784 96.4159 256.887 95.4879 259.103 94.5279C269.263 90.0479 283.192 83.9359 288.207 68.5439C289.032 66.0159 289.55 63.3279 289.744 60.6079C289.809 59.8079 289.825 58.9439 289.825 58.1119C289.825 39.2959 275.378 20.5439 264.814 6.81589C262.905 4.31988 261.174 2.07988 259.669 -0.000125661L258.828 -0.000125624C260.462 2.27188 262.387 4.79989 264.555 7.61589C275.022 21.1839 289.339 39.8079 289.339 58.1119C289.339 58.9119 289.307 59.6799 289.259 60.4799C289.081 63.0718 288.579 65.5999 287.803 68.0319C282.901 83.1039 269.085 89.1839 259.006 93.5999C256.79 94.5919 254.687 95.4879 252.891 96.4159C243.378 101.344 234.351 108.16 225.631 114.752C224.353 115.712 222.913 116.864 221.393 118.112C209.001 128.096 188.277 144.768 179.719 117.376C178.603 113.792 178.036 109.824 178.036 105.536C178.036 89.6319 185.543 72.1278 191.027 59.3598C191.901 57.3438 192.71 55.4239 193.454 53.6319C196.625 45.9199 199.634 38.6559 202.416 31.1039C204.358 25.8559 206.202 20.8319 207.512 17.1199C209.259 12.1279 210.99 7.07187 212.835 1.69588C213.029 1.11987 213.207 0.575911 213.401 0.0319046L212.819 0.0319046C212.689 0.415907 212.56 0.799895 212.414 1.2159C210.586 6.55989 208.855 11.6159 207.108 16.6079L207.092 16.5439Z" fill="white" fill-opacity="0.2"/>
<path d="M321.905 182.88C323.103 181.056 324.736 177.664 325.092 169.12C326.419 137.152 328.409 88.7998 347.207 47.9998L347.418 47.5198C353.856 33.5678 362.01 22.2397 371.652 13.8557C374.305 11.5197 375.842 7.77581 375.842 3.51981C375.842 2.3678 375.729 1.18378 375.486 -0.000209277L374.904 -0.000209252C375.179 1.15178 375.357 2.3358 375.357 3.51981C375.357 7.35981 373.933 10.8158 371.458 12.9918C361.751 21.4398 353.549 32.8638 347.062 46.9118L346.852 47.3918C327.94 88.4478 325.934 136.992 324.607 169.088C324.267 177.248 322.73 180.48 321.614 182.176C318.929 186.24 314.771 186.752 313.493 186.304C303.592 181.856 291.265 176.32 277.789 178.4C254.962 181.888 235.338 199.968 216.362 217.408C201.138 231.424 183.877 247.296 176.014 241.792C162.02 231.968 141.944 191.84 133.968 175.072C128.904 164.416 126.332 151.712 126.332 137.376C126.332 129.184 127.206 122.112 127.934 117.6C132.739 88.1598 143.723 46.4958 158.817 0.0318284L158.235 0.0318284C143.206 46.3358 132.253 87.9038 127.465 117.312C126.72 121.856 125.831 129.056 125.831 137.376C125.831 151.968 128.451 164.864 133.612 175.712C141.62 192.544 161.762 232.8 175.852 242.688C183.909 248.32 201.251 232.352 216.572 218.272C235.5 200.864 255.075 182.848 277.821 179.36C291.232 177.28 303.511 182.816 313.412 187.232C314.755 187.712 319.107 187.2 321.922 182.944L321.905 182.88Z" fill="white" fill-opacity="0.2"/>
<path d="M307.248 122.656C309.27 115.36 310.128 105.376 310.953 95.7121C311.568 88.5441 312.199 81.1521 313.299 75.1361C313.994 71.3281 315.046 67.136 316.146 62.688C318.427 53.504 321.032 43.1041 321.032 33.6321C321.032 31.8081 320.935 30.048 320.74 28.384C320.692 27.936 320.627 27.52 320.563 27.072C318.524 13.504 309.918 6.27209 302.023 0.0320827L300.712 0.0320828C300.712 0.0320828 300.809 0.0960171 300.858 0.160012C308.915 6.49601 318.039 13.664 320.11 27.36C320.174 27.776 320.223 28.1921 320.271 28.6081C320.449 30.1761 320.546 31.8721 320.546 33.6321C320.546 42.8801 317.974 53.184 315.709 62.272C314.593 66.752 313.541 70.9761 312.846 74.8161C311.729 80.9281 311.099 88.384 310.468 95.584C309.643 105.184 308.785 115.104 306.811 122.24C302.427 138.048 294.403 136.384 285.91 134.656C282.593 133.984 279.147 133.28 276.009 133.76C249.089 137.888 227.589 157.664 206.817 176.8C197.385 185.472 187.031 186.112 177.697 178.592C167.585 170.432 159.416 153.344 155.29 131.712C153.996 124.96 153.349 117.952 153.349 110.816C153.349 79.9361 165.321 50.944 175.885 25.376C178.878 18.144 181.692 11.2961 184.119 4.7361C184.75 3.0401 185.316 1.50403 185.85 0.0640244L185.252 0.0640245C184.782 1.34402 184.281 2.72005 183.731 4.19205C181.32 10.72 178.505 17.5681 175.513 24.8001C164.9 50.4961 152.88 79.6481 152.88 110.848C152.88 118.08 153.543 125.216 154.854 132.064C159.027 153.952 167.294 171.232 177.535 179.488C186.999 187.136 197.482 186.464 207.043 177.664C227.799 158.56 249.251 138.816 276.074 134.72C279.164 134.24 282.593 134.944 285.894 135.616C294.177 137.312 302.735 139.072 307.264 122.72L307.248 122.656Z" fill="white" fill-opacity="0.2"/>
<path d="M-26.0625 115.04C-26.0625 141.952 -23.6035 170.56 -20.9827 200.928C-18.0383 235.072 -14.9969 270.4 -14.9969 308C-14.9969 310.72 -14.9969 313.408 -15.0454 315.968C-15.2072 329.024 -16.2911 340.096 -17.2456 349.856C-18.0707 358.304 -18.7987 365.6 -18.7987 372.608C-18.7987 389.248 -14.366 401.472 -3.52685 414.816C1.69857 421.248 7.95938 425.952 13.9937 430.496C24.6872 438.528 35.7528 446.848 42.3048 465.184C44.5535 471.488 46.3007 483.584 48.1612 496.384C51.3967 518.752 55.0529 544.096 62.6888 547.552C72.2661 551.84 85.3539 512.96 92.3912 492.064C93.7016 488.192 94.8341 484.832 95.6429 482.624C104.735 458.112 110.785 437.856 110.785 418.592C110.785 415.968 110.672 413.344 110.429 410.784C109.038 395.424 103.538 381.472 93.1354 366.88C62.5917 324 40.2502 262.336 30.22 193.248C27.1462 172.032 25.5931 151.168 25.5931 131.2C25.5931 75.9998 36.8691 35.1358 49.423 -0.000186406L48.8244 -0.00018638C36.3028 35.1358 25.1078 75.9998 25.1078 131.2C25.1078 151.232 26.6771 172.192 29.767 193.504C39.8134 262.816 62.2196 324.64 92.8604 367.648C103.149 382.08 108.585 395.84 109.944 410.944C110.171 413.44 110.284 416 110.284 418.592C110.284 437.6 104.266 457.696 95.2385 482.048C94.4134 484.256 93.281 487.648 91.9706 491.52C84.998 512.224 72.0234 550.752 62.7697 546.624C55.4088 543.296 51.8012 518.24 48.6141 496.128C46.7537 483.232 45.0065 471.072 42.6931 464.64C36.0602 446.048 24.9299 437.696 14.1716 429.6C8.15351 425.088 1.92507 420.384 -3.268 414.016C-13.9615 400.864 -18.3133 388.896 -18.3133 372.64C-18.3133 365.728 -17.6015 358.496 -16.7765 350.08C-15.8058 340.288 -14.7219 329.152 -14.5601 316.032C-14.5277 313.44 -14.5116 310.752 -14.5116 308.032C-14.5116 270.336 -17.553 234.976 -20.5135 200.736C-23.1182 170.464 -25.5934 141.888 -25.5934 115.072C-25.5934 98.4958 -24.6389 83.8718 -22.6814 70.3038C-19.3326 47.0398 -14.2042 23.7758 -8.20225 0.0317985L-8.75229 0.0317986C-14.7219 23.6798 -19.8179 46.8478 -23.1667 70.0479C-25.1404 83.7119 -26.0949 98.4318 -26.0949 115.104L-26.0625 115.04Z" fill="white" fill-opacity="0.2"/>
<path d="M315.968 143.36C316.793 136.8 317.553 130.432 318.265 124.224C322.18 90.7519 325.578 61.8878 338.795 32.9918L339.054 32.4159C342.095 25.7598 343.567 20.5438 343.567 16.3838C343.567 15.7438 343.535 15.1038 343.454 14.4958C342.726 8.22382 338.293 5.08781 332.583 1.66379C331.693 1.1198 330.819 0.54383 329.946 -0.000161005L328.36 -0.000160936C329.719 0.895835 331.094 1.75982 332.453 2.59182C338.018 5.95182 342.322 8.95985 343.001 14.7199C343.486 18.8799 342.095 24.3518 338.698 31.7758L338.439 32.3518C325.125 61.4398 321.727 90.4319 317.796 124.032C317.068 130.208 316.324 136.608 315.499 143.136C312.522 166.592 301.36 162.624 290.585 158.784C285.877 157.12 280.992 155.36 276.915 156C252.05 159.808 231.488 178.72 211.605 197.024C209.227 199.2 206.914 201.536 204.665 203.808C193.001 215.552 182.938 225.728 170.546 211.2C161.228 200.288 153.592 183.904 146.215 168.096C144.888 165.248 143.562 162.4 142.235 159.616C139.339 153.504 137.867 145.184 137.867 134.912C137.867 95.4878 159.076 34.8478 171.856 -0.0321976L171.258 -0.0321975C158.429 35.0398 137.382 95.4239 137.382 134.912C137.382 145.44 138.902 153.984 141.879 160.288C143.206 163.072 144.532 165.92 145.859 168.768C153.268 184.64 160.92 201.056 170.303 212.064C182.922 226.848 193.599 216.096 204.891 204.704C207.14 202.432 209.454 200.096 211.832 197.92C231.682 179.68 252.195 160.768 276.98 156.992C280.992 156.384 285.845 158.112 290.52 159.776C301.521 163.68 312.91 167.744 316 143.392L315.968 143.36Z" fill="white" fill-opacity="0.2"/>
<path d="M548.944 816.8C555.124 824.896 562.792 834.976 568.099 831.488C570.267 830.08 571.884 826.496 572.904 820.864C573.098 819.808 573.195 818.624 573.195 817.376C573.195 805.024 563.537 785.44 555.027 768.16C549.608 757.184 544.495 746.784 543.056 740.544C536.212 710.72 532.961 669.568 530.081 633.28C528.949 618.944 527.881 605.408 526.635 592.928C523.82 564.448 522.38 536.96 522.38 511.2C522.38 426.912 537.717 356.16 567.953 300.864C571.35 294.656 573.065 285.664 573.065 274.048C573.065 237.952 555.302 176.032 522.38 132.448C502.692 106.368 462.425 68.4799 414.07 107.872C394.689 123.648 385.662 147.104 385.662 181.696C385.662 208 390.548 238.016 396.21 272.768C403.182 315.52 411.077 364 411.077 416.16C411.077 456.768 406.337 494.048 396.614 530.144C366.588 641.504 311.827 644.736 267.467 635.136C250.222 631.392 236.568 637.472 227.977 652.672C221.91 663.424 218.707 678.048 218.707 695.008C218.707 727.136 231.31 767.232 255.415 781.696C278.096 795.296 298.723 763.04 322.601 725.696C349.521 683.552 380.032 635.808 420.752 645.088C440.941 649.696 460.306 664.256 472.569 684.096C481.871 699.136 482.696 712.416 483.57 726.496C484.233 737.248 484.929 748.352 489.103 761.376C492.29 771.328 497.725 774.432 503.469 777.728C507.432 780 511.525 782.368 514.89 787.136C516.734 789.76 517.139 794.336 517.559 799.136C518.126 805.504 518.757 812.736 522.914 816.544C525.81 819.2 529.224 815.68 532.524 812.288C535.274 809.44 538.121 806.528 540.483 807.392C542.376 808.096 545.418 812.064 548.928 816.672L548.944 816.8ZM532.119 810.752C528.884 814.08 525.81 817.248 523.335 814.976C519.614 811.552 519.048 805.12 518.498 798.912C518.061 793.92 517.608 788.8 515.456 785.728C511.962 780.768 507.788 778.368 503.76 776.032C498.178 772.832 492.921 769.792 489.928 760.448C485.867 747.776 485.188 736.864 484.524 726.336C483.618 711.872 482.777 698.24 473.184 682.72C460.792 662.688 441.233 647.936 420.881 643.296C379.773 633.952 349.1 681.952 322.035 724.288C298.367 761.312 277.918 793.312 255.706 779.968C232.038 765.76 219.662 726.496 219.662 695.04C219.662 678.624 222.752 664.448 228.608 654.08C236.988 639.232 250.383 633.312 267.37 636.992C312.021 646.656 367.155 643.36 397.439 531.04C407.243 494.656 412.016 457.088 412.016 416.16C412.016 363.712 404.088 315.104 397.1 272.224C391.454 237.632 386.584 207.744 386.584 181.728C386.584 147.52 395.174 125.28 414.41 109.6C462.377 70.5279 502.304 108.128 521.846 133.984C553.312 175.68 572.127 237.952 572.127 274.08C572.127 285.12 570.509 293.696 567.322 299.52C536.892 355.168 521.458 426.4 521.458 511.2C521.458 537.056 522.898 564.672 525.729 593.28C526.959 605.728 528.026 619.264 529.159 633.568C532.039 669.984 535.306 711.232 542.198 741.312C543.703 747.84 548.637 757.856 554.348 769.44C562.744 786.464 572.256 805.76 572.256 817.376C572.256 818.4 572.176 819.36 572.03 820.224C571.092 825.344 569.717 828.448 567.808 829.696C562.938 832.896 555.464 823.104 549.462 815.232C545.854 810.496 542.748 806.432 540.677 805.664C537.992 804.672 535.015 807.744 532.119 810.72L532.119 810.752Z" fill="white" fill-opacity="0.2"/>
<path d="M240.256 906.976C240.256 904.192 238.574 902.272 234.95 900.928C212.673 892.608 181.126 874.592 164.302 814.4C159.092 795.808 154.983 774.784 151.699 750.176C151.036 745.216 149.24 739.936 147.493 734.784C145.228 728.16 142.898 721.28 142.898 714.944C142.898 714.208 142.931 713.472 142.995 712.8C143.319 709.248 144.354 706.592 145.357 704.032C146.49 701.152 147.558 698.432 147.558 694.656C147.558 693.248 147.412 691.776 147.088 690.208C146.555 687.52 145.503 686.112 144.484 684.768C143.044 682.848 141.685 681.056 141.928 675.616C142.154 670.208 144.241 667.296 146.441 664.224C147.978 662.08 149.58 659.84 150.47 656.672C151.117 654.368 151.812 650.208 151.812 646.528C151.812 643.968 151.473 642.144 150.793 641.12C150.146 640.16 149.224 639.968 148.075 640.608C144.257 642.72 140.698 658.88 138.336 669.6C137.641 672.768 137.042 675.488 136.573 677.248C132.302 693.184 128.694 709.088 125.718 722.528C113.18 779.232 105.528 830.944 102.325 880.576C101.969 886.176 101.791 891.008 101.791 895.392C101.791 919.84 107.194 938.784 124.925 976.48C129.277 985.728 133.014 995.264 136.621 1004.45C144.71 1025.06 151.101 1041.34 159.141 1040.96C165.483 1040.64 172.245 1029.76 180.415 1006.66C193.567 969.472 213.547 944.8 226.764 928.448C234.901 918.368 240.289 911.744 240.289 906.912L240.256 906.976ZM179.978 1006.18C171.905 1028.99 165.256 1039.78 159.076 1040.06C151.278 1040.45 144.953 1024.32 136.945 1003.9C133.321 994.688 129.584 985.152 125.216 975.872C107.582 938.368 102.211 919.584 102.211 895.424C102.211 891.072 102.389 886.272 102.745 880.736C105.932 831.2 113.584 779.584 126.106 722.976C129.083 709.536 132.69 693.664 136.945 677.76C137.43 675.968 138.029 673.216 138.725 670.048C141.038 659.52 144.549 643.584 148.14 641.6C149.143 641.056 149.92 641.152 150.437 641.952C151.117 642.976 151.262 645.056 151.262 646.592C151.262 649.92 150.615 653.984 149.968 656.256C149.143 659.232 147.59 661.376 146.085 663.488C143.885 666.56 141.62 669.728 141.361 675.584C141.086 681.6 142.656 683.616 144.144 685.6C145.147 686.944 146.085 688.192 146.571 690.592C146.862 692.064 147.008 693.376 147.008 694.688C147.008 698.112 145.988 700.736 144.921 703.488C143.885 706.144 142.801 708.896 142.478 712.672C142.413 713.408 142.381 714.208 142.381 714.976C142.381 721.6 144.759 728.576 147.056 735.328C148.852 740.608 150.567 745.632 151.198 750.4C154.482 775.104 158.623 796.16 163.849 814.848C180.771 875.392 212.463 893.504 234.837 901.856C238.137 903.104 239.755 904.768 239.755 906.976C239.755 911.296 234.173 918.176 226.457 927.712C213.207 944.096 193.179 968.832 179.962 1006.18L179.978 1006.18Z" fill="white" fill-opacity="0.2"/>
<path d="M531.941 771.264C532.216 769.216 532.346 765.536 532.346 760.864C532.346 751.136 531.618 715.008 522.202 658.656C514.34 611.552 510.004 556.448 510.004 503.552C510.004 416.448 516.605 358.592 552.665 284.064C555.221 278.784 556.515 271.68 556.515 263.008C556.515 230.624 538.687 181.632 515.925 151.488C498.146 127.936 461.843 93.6959 418.438 129.056C399.753 144.288 397.18 163.392 397.18 181.76C397.18 204.48 401.807 232.896 407.178 265.824C414.41 310.176 422.596 360.48 422.596 416.224C422.596 460.672 417.419 501.472 406.774 540.96C373.124 665.792 310.419 667.488 266.189 657.888C252.486 654.912 241.647 659.136 235.678 669.728C232.086 676.096 230.258 684.64 230.258 695.072C230.258 718.784 240.046 748.672 258.763 759.904C275.669 770.048 294.096 741.216 315.434 707.84C342.694 665.184 376.619 612.096 422.078 622.464C435.101 625.44 447.477 632.288 458.866 642.88C477.002 659.744 492.387 682.016 504.601 709.12C512.657 727.008 518.303 744.96 522.413 758.048C526.166 769.984 528.415 777.184 530.146 776.672C530.922 776.448 531.505 774.72 531.941 771.264ZM522.833 757.536C518.708 744.416 513.062 726.432 504.973 708.48C492.71 681.28 477.277 658.912 459.093 641.984C447.655 631.328 435.214 624.448 422.159 621.472C376.505 611.072 342.483 664.288 315.159 707.072C293.934 740.288 275.604 768.96 258.941 758.976C240.45 747.872 230.776 718.432 230.776 695.072C230.776 684.928 232.539 676.64 236.034 670.432C241.906 660 252.616 655.904 266.173 658.816C310.548 668.416 373.448 666.72 407.243 541.376C417.937 501.728 423.13 460.768 423.13 416.192C423.13 360.288 414.928 309.92 407.68 265.472C402.325 232.64 397.714 204.32 397.714 181.728C397.714 163.68 400.254 144.928 418.665 129.92C461.859 94.7519 498 128.832 515.699 152.256C537.959 181.728 556.062 231.424 556.062 262.976C556.062 271.424 554.817 278.272 552.342 283.392C534.87 319.52 523.755 353.12 517.365 389.184C511.881 420.224 509.535 454.432 509.535 503.584C509.535 556.608 513.871 611.808 521.749 659.008C531.132 715.2 531.86 751.2 531.86 760.896C531.86 765.472 531.715 769.088 531.456 771.04C531.068 773.984 530.599 775.552 530.049 775.744C528.641 776.16 526.198 768.352 522.801 757.568L522.833 757.536Z" fill="white" fill-opacity="0.2"/>
<path d="M241.437 695.072C241.437 712.224 250.205 731.072 258.084 737.248C263.309 741.344 272.223 738.208 281.962 728.896C291.135 720.128 298.189 708.416 299.499 699.776C299.693 698.464 299.806 697.12 299.806 695.84C299.806 694.4 299.677 692.96 299.434 691.584C297.477 680.448 294.015 680.704 286.444 681.248C281.784 681.6 275.41 682.048 266.658 680.16C254.897 677.6 245.934 681.248 243.168 686.176C242.278 687.744 241.453 689.92 241.453 695.072L241.437 695.072ZM266.561 681.76C275.378 683.68 281.801 683.2 286.476 682.848C294.063 682.304 296.911 682.08 298.674 692.128C299.078 694.464 299.111 696.896 298.739 699.36C297.493 707.584 290.617 718.88 281.623 727.488C272.094 736.608 263.406 739.712 258.391 735.776C250.755 729.792 242.262 711.616 242.246 695.072C242.246 690.56 242.942 688.704 243.686 687.36C246.323 682.688 255.026 679.232 266.545 681.76L266.561 681.76Z" fill="white" fill-opacity="0.2"/>
<path d="M492.921 601.6C492.921 598.656 492.791 595.04 492.532 590.528C492.419 588.576 489.798 542.144 489.798 492.32C489.798 472.896 490.203 455.584 491.012 440.864C495.008 367.296 512.755 303.616 528.56 273.152C531.472 267.552 532.944 260.864 532.944 253.248C532.944 236.192 525.438 215.2 512.366 195.616C489.459 161.312 445.601 150.944 428.339 167.936C423.761 172.448 421.334 178.752 421.334 186.176C421.334 186.784 421.334 187.424 421.382 188.064C422.078 201.504 424.845 220.192 428.355 243.808C434.923 288.064 443.902 348.672 444.436 414.4C444.905 470.56 433.661 534.752 428.29 556.576C426.527 563.712 425.751 568.32 425.751 571.52C425.751 578.048 428.873 578.304 434.066 578.784C438.191 579.168 443.837 579.648 450.276 583.648C461.989 590.88 470.87 599.072 477.358 605.056C484.557 611.68 488.892 615.712 491.157 612.864C492.403 611.296 492.953 607.808 492.953 601.6L492.921 601.6ZM477.536 604.192C471.032 598.208 462.134 589.984 450.389 582.752C443.886 578.752 438.191 578.24 434.05 577.856C428.986 577.408 426.204 577.152 426.204 571.552C426.204 568.544 426.996 563.936 428.695 557.024C433.985 535.552 444.905 473.248 444.905 417.696C444.905 416.608 444.905 415.488 444.905 414.4C444.371 348.544 435.376 287.872 428.792 243.552C425.298 219.968 422.531 201.344 421.836 187.968C421.431 180.032 423.68 173.568 428.517 168.832C445.665 151.968 489.248 162.304 512.027 196.416C524.985 215.808 532.411 236.544 532.411 253.28C532.411 260.608 530.987 267.072 528.172 272.48C512.302 303.072 494.506 366.944 490.494 440.768C489.685 455.52 489.281 472.864 489.281 492.32C489.281 542.176 491.918 588.672 492.015 590.624C492.274 595.104 492.403 598.688 492.403 601.6C492.403 607.392 491.901 610.72 490.834 612.064C488.812 614.624 484.557 610.688 477.503 604.192L477.536 604.192Z" fill="white" fill-opacity="0.2"/>
<path d="M511.46 673.216C511.46 670.24 511.072 666.432 510.376 662.464C502.514 617.664 498.696 565.696 498.696 503.584C498.696 426.24 502.271 349.6 545.563 262.528C546.809 260.032 547.44 256.736 547.44 252.768C547.44 228.416 523.852 183.424 509.632 170.08C508.338 168.864 506.963 167.552 505.523 166.144C487.922 149.152 458.446 120.736 422.79 149.792C408.537 161.408 408.537 172.224 408.537 181.792C408.537 200.992 412.921 227.872 417.985 258.976C425.475 304.896 433.953 356.96 433.953 416.224C433.953 466.944 429.245 507.968 418.681 549.312C417.047 555.712 415.251 561.856 413.682 567.296C410.527 578.176 408.036 586.752 408.036 592.288C408.036 596.608 409.556 598.72 412.695 598.816C413.196 598.816 413.989 598.688 415.105 598.464C445.811 592.544 474.478 616.064 500.314 668.352C504.827 677.472 508.063 681.344 509.94 679.84C510.943 679.04 511.46 676.736 511.46 673.216ZM500.654 667.68C484.039 634.048 466.017 612 447.073 602.176C431.849 594.272 420.072 596.544 415.057 597.504C413.957 597.728 413.164 597.856 412.695 597.856C408.958 597.76 408.521 594.624 408.521 592.288C408.521 587.008 411.11 578.08 414.102 567.776C415.688 562.336 417.467 556.16 419.118 549.728C429.714 508.256 434.454 467.104 434.454 416.224C434.454 356.8 425.961 304.672 418.454 258.656C413.391 227.616 409.023 200.8 409.023 181.76C409.023 172.512 409.023 162.016 422.968 150.656C458.413 121.792 487.76 150.08 505.297 167.008C506.753 168.416 508.111 169.728 509.422 170.944C523.545 184.192 546.954 228.736 546.954 252.768C546.954 256.48 546.372 259.552 545.223 261.856C525.114 302.304 511.946 344.192 504.957 389.856C498.728 430.56 498.211 468.352 498.211 503.584C498.211 565.792 502.045 617.856 509.923 662.784C510.603 666.656 510.975 670.368 510.975 673.216C510.975 675.392 510.765 678.144 509.762 678.944C508.823 679.712 506.38 679.264 500.67 667.68L500.654 667.68Z" fill="white" fill-opacity="0.2"/>
<path d="M-107 845.184L-107 847.52C-98.2801 852.448 -88.7352 855.904 -78.2358 857.92C-59.9873 861.472 -36.0927 864.608 -13.0717 857.216C3.72084 851.84 11.195 841.024 11.195 822.176C11.195 810.144 8.25062 796.16 4.82093 779.936C2.44279 768.672 -5.79822e-05 757.024 -1.77961 744.608C-1.95757 743.424 -2.11934 742.24 -2.28112 741.024C-7.08592 705.6 -7.76539 665.664 -4.28717 623.296C-3.34886 611.936 -1.74727 600.416 -0.194203 589.248C2.07068 572.992 4.41647 556.192 4.80473 539.136C5.01505 529.888 4.52971 523.296 3.36491 518.656C-0.0647739 505.056 -8.62283 511.68 -17.6824 518.656C-23.0372 522.784 -28.5862 527.072 -33.5528 527.776C-59.9549 531.52 -84.0113 502.336 -107 463.776L-107 466.72C-84.0598 504.992 -59.9873 533.76 -33.4719 529.984C-28.3274 529.248 -22.6975 524.928 -17.2618 520.704C-8.31544 513.792 -0.598648 507.84 2.36189 519.616C3.42962 523.872 3.8826 530.304 3.68846 539.008C3.31638 555.808 0.986781 572.48 -1.26193 588.608C-2.83117 599.808 -4.44895 611.392 -5.38726 622.88C-8.88166 665.568 -8.18602 705.824 -3.34886 741.536C-3.18708 742.752 -3.0253 743.936 -2.84735 745.152C-1.05162 757.728 1.42359 769.44 3.80172 780.736C7.1667 796.704 10.0787 810.528 10.0787 822.112C10.0787 839.648 2.87959 849.792 -13.2496 854.944C-36.1574 862.304 -59.9549 859.168 -78.1225 855.648C-88.6705 853.6 -98.2477 850.112 -107 845.12L-107 845.184Z" fill="white" fill-opacity="0.2"/>
<path d="M345.719 873.888C344.732 876.032 344.263 877.952 344.263 879.744C344.263 884.224 347.143 887.36 351.495 892.096C356.008 897.024 362.188 903.744 368.449 915.392L370.277 918.816C377.427 932.16 380.695 938.272 382.459 936.768C383.251 936.096 383.607 934.016 383.607 930.08C383.607 926.72 383.365 921.792 382.782 913.568C382.54 910.176 382.426 906.72 382.426 903.296C382.426 875.552 390.289 852.416 396.032 835.52C399.397 825.632 402.05 817.824 402.05 812.224C402.05 809.888 401.581 807.968 400.643 806.528C389.14 788.8 356.315 850.784 345.719 873.888ZM400.141 807.776C400.885 808.896 401.241 810.368 401.241 812.224C401.241 817.344 398.653 824.96 395.352 834.624C389.545 851.68 381.601 875.04 381.601 903.296C381.601 906.784 381.731 910.336 381.973 913.792C382.556 921.92 382.799 926.816 382.799 930.08C382.799 933.152 382.572 934.912 382.135 935.296C380.873 936.384 376.877 928.928 370.827 917.632L368.999 914.208C362.673 902.432 356.429 895.616 351.883 890.688C347.774 886.208 345.072 883.264 345.072 879.712C345.072 878.336 345.476 876.768 346.318 874.944C359.47 846.24 389.949 792.064 400.141 807.776Z" fill="white" fill-opacity="0.2"/>
<path d="M359.211 873.44C359.211 884.64 368.141 899.072 372.38 899.136C374.111 899.136 375.13 897.024 375.163 893.28C375.308 876.768 380.598 859.328 384.465 846.592C386.746 839.04 388.412 833.6 388.412 830.368C388.412 829.344 388.25 828.512 387.927 827.936C387.522 827.2 386.908 826.912 386.05 827.04C378.269 828.224 362.69 857.44 359.697 869.28C359.373 870.528 359.227 871.936 359.227 873.408L359.211 873.44ZM386.115 829.28C386.794 829.184 387.053 829.44 387.134 829.6C387.167 829.664 387.264 829.824 387.264 830.4C387.264 833.024 385.516 838.784 383.478 845.472C379.547 858.432 374.176 876.16 374.03 893.248C374.014 895.776 373.496 896.896 372.38 896.896C368.594 896.832 360.328 883.424 360.328 873.44C360.328 872.288 360.441 871.232 360.683 870.304C363.903 857.536 379.061 830.368 386.099 829.28L386.115 829.28Z" fill="white" fill-opacity="0.2"/>
<path d="M212.479 913.024C212.479 910.272 210.505 908.064 206.089 905.92C189.571 897.888 167.715 871.36 156.099 830.144C144.338 788.448 141.28 760.672 139.647 745.728C138.838 738.304 138.417 734.592 137.43 733.696C137.058 733.344 136.605 733.472 136.087 734.016C133.434 736.896 118.826 788.544 115.784 862.816L115.655 865.952C115.38 872.64 115.137 878.432 115.137 883.968C115.137 903.36 117.871 918.976 133.45 955.456C135.909 961.216 138.191 967.104 140.407 972.8C147.25 990.432 153.139 1005.66 159.853 1004.67C164.997 1003.9 170.109 993.824 175.917 972.96C182.356 949.856 195.136 935.776 203.581 926.464C208.936 920.544 212.479 916.672 212.479 912.96L212.479 913.024ZM175.496 972.576C169.85 992.864 164.722 1003.07 159.82 1003.81C153.381 1004.77 147.557 989.728 140.811 972.288C138.595 966.592 136.314 960.672 133.839 954.912C118.357 918.688 115.639 903.2 115.639 884.064C115.639 878.56 115.881 872.8 116.156 866.112L116.286 862.976C119.246 790.4 133.806 737.664 136.33 734.944C136.848 734.4 137.09 734.496 137.236 734.656C137.996 735.36 138.449 739.36 139.177 746.016C140.828 760.992 143.885 788.864 155.679 830.688C167.375 872.128 189.377 898.848 205.992 906.912C210.036 908.896 212.01 910.912 212.01 913.088C212.01 916.224 208.192 920.416 203.371 925.76C194.877 935.136 182.016 949.28 175.513 972.64L175.496 972.576Z" fill="white" fill-opacity="0.2"/>
<path d="M443.239 788.768C441.977 766.88 434.373 746.272 423.874 736.224C414.28 727.072 398.006 722.112 374.968 750.528C365.068 762.72 355.086 776.032 345.428 788.896C317.812 825.696 291.718 860.448 265.542 874.816C235.937 891.04 211.508 878.016 188.681 833.792C168.912 795.488 157.571 744.896 157.571 694.944C157.571 657.408 164.253 623.904 176.37 600.64C189.684 575.072 209.179 562.272 232.717 563.68C238.185 564 243.831 564.512 249.817 565.056C271.075 566.976 295.163 569.184 315.208 562.4C338.261 554.592 352.498 536.064 358.742 505.792C362.091 489.568 363.773 474.208 363.773 460.096C363.773 434.464 358.111 412.64 347.418 396.992C329.218 370.4 298.059 364.032 269.878 381.12C209.405 417.824 173.312 506.08 134.648 636.544C105.285 735.648 96.2253 819.36 90.8058 895.04C90.4013 900.672 90.191 906.048 90.191 911.008C90.191 942.624 98.3284 957.664 108.634 976.704C112.597 984.032 116.674 991.584 120.864 1000.99C125.669 1011.81 128.597 1021.22 131.186 1029.54C135.327 1042.88 138.902 1054.37 148.48 1067.07C167.488 1092.22 179.153 1058.56 191.496 1022.94C198.016 1004.13 204.762 984.64 212.754 974.208C262.953 908.672 316.502 935.104 349.877 981.728C359.422 995.04 368.433 1014.5 377.961 1035.1C389.625 1060.29 401.678 1086.34 415.154 1101.22C420.946 1107.62 424.877 1109.44 427.174 1106.78C428.857 1104.83 429.666 1100.51 429.666 1093.63C429.666 1081.34 427.093 1061.82 424.1 1039.2C419.927 1007.49 414.717 968.032 414.717 933.152C414.717 914.688 416.206 898.848 419.134 886.08C422.062 873.376 426.284 862.624 430.377 852.224C437.107 835.104 443.449 818.976 443.449 796.128C443.449 793.728 443.384 791.264 443.239 788.8L443.239 788.768ZM418.697 885.664C415.688 898.72 414.232 914.24 414.232 933.12C414.232 968.096 419.441 1007.65 423.631 1039.39C426.608 1061.95 429.164 1081.41 429.18 1093.6C429.18 1100.13 428.436 1104.16 426.915 1105.95C424.78 1108.42 421.01 1106.59 415.381 1100.38C401.985 1085.57 389.949 1059.58 378.317 1034.43C368.756 1013.79 359.745 994.304 350.152 980.928C330.593 953.6 308.284 937.472 285.635 934.304C259.75 930.656 235.128 943.808 212.479 973.408C204.422 983.936 197.644 1003.49 191.092 1022.4C178.878 1057.63 167.359 1090.91 148.738 1066.27C139.242 1053.73 135.699 1042.27 131.59 1029.06C129.002 1020.7 126.057 1011.26 121.22 1000.38C117.03 990.944 112.921 983.36 108.957 976.032C98.7491 957.152 90.6764 942.208 90.6764 911.04C90.6764 906.144 90.8867 900.8 91.2749 895.2C96.6945 819.616 105.738 736 135.052 637.056C173.636 506.784 209.68 418.688 269.991 382.08C298.043 365.056 329.024 371.36 347.11 397.792C357.674 413.248 363.272 434.784 363.272 460.128C363.272 474.112 361.589 489.344 358.273 505.44C352.093 535.392 337.986 553.728 315.111 561.472C295.115 568.256 271.042 566.048 249.817 564.128C243.831 563.584 238.185 563.072 232.717 562.752C209.033 561.344 189.426 574.208 176.014 599.968C163.8 623.424 157.07 657.152 157.07 694.944C157.07 745.152 168.459 796.032 188.325 834.496C200.459 857.984 212.964 872.48 226.586 878.848C238.752 884.512 251.516 883.52 265.655 875.776C291.912 861.376 318.023 826.592 345.687 789.728C355.345 776.864 365.326 763.552 375.211 751.36C398.07 723.168 414.167 728.064 423.647 737.12C434.001 747.008 441.508 767.328 442.737 788.896C442.883 791.328 442.947 793.76 442.947 796.128C442.947 818.624 436.638 834.656 429.973 851.616C425.864 862.048 421.625 872.864 418.665 885.664L418.697 885.664Z" fill="white" fill-opacity="0.2"/>
<path d="M423.178 767.776C420.088 759.392 415.769 754.464 410.349 753.184C394.447 749.376 371.231 777.28 356.202 802.336C337.436 833.6 317.408 864.64 298.027 879.84C297.073 880.576 294.371 881.728 290.957 883.168C279.439 888.064 260.171 896.224 260.171 908.064C260.171 909.152 260.333 910.272 260.673 911.36C262.145 916.288 265.057 917.728 269.538 915.808C273.21 914.24 277.449 910.624 281.186 907.424C285.133 904.032 288.547 901.12 290.488 901.184C295.487 901.312 297.687 905.92 299.823 910.368C301.489 913.856 303.204 917.44 306.197 918.752C310.047 920.416 312.943 917.28 315.742 914.24C318.33 911.424 320.999 908.544 324.445 909.44C330.771 911.136 353.565 950.752 373.69 985.664C390.337 1014.59 404.719 1039.55 407.47 1039.14C407.68 1039.14 407.842 1038.94 407.955 1038.69C408.958 1036.29 409.443 1031.97 409.443 1025.41C409.443 1015.07 408.279 1000.7 406.92 984.032C405.286 963.84 403.425 940.96 403.425 921.088C403.425 905.568 404.541 893.952 406.839 885.6C408.084 881.056 409.573 875.968 411.142 870.624C418.163 846.752 426.883 817.056 426.883 791.904C426.883 782.592 425.637 774.464 423.194 767.808L423.178 767.776ZM406.386 885.088C404.056 893.6 402.908 905.376 402.908 921.024C402.908 940.96 404.768 963.872 406.402 984.128C407.745 1000.74 408.909 1015.1 408.909 1025.34C408.909 1031.65 408.457 1035.81 407.534 1038.02C407.534 1038.02 407.486 1038.11 407.389 1038.14C404.833 1038.53 389.852 1012.48 373.965 984.928C353.792 949.888 330.933 910.208 324.478 908.448C320.87 907.488 318.136 910.464 315.483 913.344C312.636 916.448 309.95 919.36 306.278 917.76C303.43 916.544 301.845 913.184 300.162 909.664C297.962 905.056 295.681 900.288 290.488 900.16C288.45 900.096 284.988 903.072 280.976 906.496C277.255 909.664 273.049 913.28 269.425 914.848C265.17 916.672 262.436 915.36 261.077 910.848C260.802 909.92 260.656 908.96 260.656 908.032C260.656 896.96 280.426 888.576 291.054 884.096C294.63 882.592 297.202 881.504 298.205 880.704C317.651 865.472 337.711 834.368 356.51 803.04C371.474 778.112 394.527 750.336 410.285 754.112C415.575 755.392 419.781 760.16 422.79 768.32C425.184 774.816 426.382 782.72 426.382 791.84C426.382 816.704 417.694 846.304 410.705 870.08C409.136 875.456 407.648 880.512 406.386 885.088Z" fill="white" fill-opacity="0.2"/>
<path d="M402.875 778.72C389.545 775.872 368.643 804.096 360.603 818.208C346.738 842.56 334.912 859.552 327.098 870.784C319.349 881.92 315.062 888.064 315.062 892.032C315.062 894.752 316.842 896.256 321.226 897.184C354.164 904.16 372.008 946.304 382.653 971.488C387.328 982.528 390.402 989.792 392.942 990.112C393.67 990.208 394.349 989.696 394.932 988.576C396.161 986.272 396.744 982.656 396.744 977.12C396.744 970.912 396.016 963.072 395.174 953.984C394.074 942.208 392.845 928.832 392.845 915.168C392.845 896.544 395.191 881.536 400.012 869.248C406.806 851.936 414.07 826.336 414.07 806.272C414.07 799.04 413.148 792.864 411.304 787.872C409.362 782.592 406.515 779.488 402.859 778.72L402.875 778.72ZM413.601 806.272C413.601 826.08 406.402 851.456 399.656 868.64C394.754 881.12 392.376 896.32 392.376 915.136C392.376 928.896 393.621 942.304 394.721 954.144C395.563 963.168 396.275 970.976 396.275 977.088C396.275 982.336 395.741 985.76 394.608 987.84C394.107 988.768 393.573 989.184 392.974 989.12C390.645 988.832 387.441 981.28 383.025 970.848C372.315 945.568 354.406 903.232 321.274 896.224C317.311 895.392 315.547 894.08 315.547 892.032C315.547 888.544 319.996 882.144 327.373 871.552C335.203 860.32 347.029 843.296 360.91 818.944C368.902 804.928 389.642 776.864 402.81 779.68C406.321 780.448 409.055 783.392 410.915 788.448C412.695 793.28 413.585 799.264 413.585 806.304L413.601 806.272Z" fill="white" fill-opacity="0.2"/>
<path d="M269.764 505.312C295.066 508.608 312.49 494.24 320.336 479.68C323.928 473.024 325.917 465.728 325.917 459.104C325.917 449.792 322.213 442.784 315.483 439.392C272.175 417.536 226.521 491.968 222.703 501.088C221.603 503.712 221.458 505.536 222.121 506.72C223.302 508.864 227.168 508.192 234.173 506.976C242.472 505.536 255.01 503.392 269.764 505.312ZM222.671 505.536C222.574 505.376 222.541 505.216 222.541 504.96C222.541 504.512 222.687 503.648 223.334 502.08C227.12 493.024 272.369 419.232 315.289 440.896C321.614 444.096 325.109 450.528 325.109 459.072C325.109 465.216 323.216 472.128 319.786 478.464C312.053 492.8 294.856 506.944 269.813 503.68C254.994 501.76 242.424 503.904 234.109 505.344C227.993 506.4 223.593 507.168 222.671 505.504L222.671 505.536Z" fill="white" fill-opacity="0.2"/>
<path d="M-14.7381 115.04C-14.7381 140.064 -12.3438 167.776 -9.82006 197.152C-6.79482 232.224 -3.67251 268.48 -3.67251 308C-3.67251 310.912 -3.68868 313.792 -3.72104 316.512C-3.75339 318.88 -3.78575 321.184 -3.81811 323.488C-3.89899 329.472 -3.97988 335.104 -3.97988 340.544C-3.97988 374.592 -0.469303 395.68 18.0219 409.568C29.7184 418.336 42.968 428.32 51.5261 452.192C53.9527 458.944 56.0073 465.696 57.8354 471.68C62.0578 485.504 65.3904 496.416 70.0011 496.832C74.2397 497.216 79.3357 488.736 86.5186 469.376C93.4103 450.784 96.7591 435.52 96.7591 422.656C96.7591 421.504 96.7268 420.32 96.6783 419.2C95.8047 400.512 87.9908 387.968 78.1062 372.096C73.6087 364.896 68.5289 356.704 63.6756 347.104C42.6607 305.536 27.3403 254.464 19.3646 199.424C15.9997 176.192 14.2848 153.248 14.2848 131.2C14.2848 76.736 24.2341 34.752 35.7527 -2.20773e-06L35.1703 -2.18227e-06C23.7003 34.752 13.7995 76.768 13.7995 131.2C13.7995 153.344 15.5143 176.384 18.8955 199.68C26.9035 254.88 42.2724 306.112 63.3359 347.776C68.2054 357.408 73.3014 365.6 77.7988 372.832C87.5863 388.544 95.3355 400.992 96.1929 419.264C96.2415 420.384 96.2738 421.504 96.2738 422.624C96.2738 435.264 92.9574 450.368 86.1303 468.8C79.0445 487.872 74.0779 496.224 70.0335 495.872C65.6816 495.488 62.4137 484.768 58.256 471.168C56.4279 465.184 54.3572 458.4 51.9305 451.616C43.2916 427.488 29.9611 417.472 18.1999 408.64C-0.0325019 394.944 -3.49455 374.144 -3.49455 340.512C-3.49455 335.072 -3.41366 329.44 -3.33277 323.488C-3.30041 321.216 -3.26806 318.88 -3.2357 316.512C-3.20335 313.76 -3.18717 310.912 -3.18717 307.968C-3.18718 268.384 -6.32566 232.064 -9.35091 196.96C-11.8746 167.648 -14.269 139.936 -14.269 115.008C-14.269 100.544 -13.4601 87.936 -11.7938 76.384C-8.21847 51.584 -2.34594 26.176 4.51344 -0.0320443L3.96339 -0.0320443C-2.84746 26.08 -8.68762 51.392 -12.2629 76.128C-13.9454 87.744 -14.7543 100.48 -14.7543 115.008L-14.7381 115.04Z" fill="white" fill-opacity="0.2"/>
<path d="M268.308 530.08C292.85 533.792 312.716 524.192 324.251 503.072C330.285 492.032 333.602 478.464 333.602 464.864C333.602 445.472 326.791 429.984 316.259 425.344C285.457 411.872 257.76 432.736 239.932 452.576C218.998 475.936 204.18 505.792 199.326 520.192C197.563 525.44 196.463 529.152 196.463 531.392C196.463 532.224 196.608 532.864 196.883 533.344C197.935 535.2 200.944 534.432 206.897 532.928C217.462 530.272 237.101 525.312 268.308 530.048L268.308 530.08ZM197.191 532.672C197.013 532.384 196.932 531.968 196.932 531.424C196.932 529.44 198.048 525.696 199.714 520.736C210.667 488.256 260.559 401.984 316.13 426.304C326.435 430.816 333.1 445.952 333.1 464.864C333.1 478.208 329.832 491.52 323.911 502.368C312.49 523.296 292.753 532.8 268.341 529.12C237.085 524.384 217.397 529.344 206.817 532.032C201.365 533.408 198.081 534.24 197.175 532.672L197.191 532.672Z" fill="white" fill-opacity="0.2"/>
<path d="M269.894 548.48C300.437 552.16 324.575 540.608 337.84 515.904C344.7 503.136 348.324 487.648 348.324 471.072C348.324 439.392 335.365 412.576 316.081 404.288C287.641 392.096 259.637 402.592 232.847 435.456C205.717 468.768 188.18 514.848 180.123 539.36C176.03 551.84 174.315 557.184 175.561 559.232C176.597 560.928 179.541 559.808 185.397 557.632C198.097 552.896 224.515 543.008 269.861 548.48L269.894 548.48ZM175.901 558.496C175.739 558.24 175.674 557.888 175.674 557.344C175.674 554.752 177.519 549.152 180.56 539.872C207.351 458.208 257.016 379.968 315.984 405.248C335.042 413.408 347.838 439.872 347.838 471.072C347.838 487.36 344.263 502.624 337.501 515.2C324.332 539.712 300.324 551.168 269.91 547.52C224.499 542.048 198.048 551.936 185.333 556.704C179.978 558.72 176.758 559.904 175.901 558.528L175.901 558.496Z" fill="white" fill-opacity="0.2"/>
<path d="M168.394 916.736C168.394 907.68 163.978 901.184 157.345 894.24C145.762 882.112 140.148 856.768 137.139 843.168C135.618 836.288 135.052 833.696 134.081 834.016C133.272 834.304 132.933 836.064 132.609 845.472C131.638 873.824 145.309 937.44 155.598 944.768C157.976 946.464 160.144 945.216 161.842 941.12C166.421 930.208 168.362 922.88 168.362 916.704L168.394 916.736ZM156.002 942.656C146.603 935.968 133.709 876.832 133.709 848.512C133.709 847.52 133.709 846.56 133.758 845.632C133.952 840.096 134.146 837.632 134.308 836.64C134.728 837.824 135.424 840.992 136.104 844.064C139.161 857.92 144.872 883.712 156.811 896.224C164.318 904.096 167.246 909.856 167.246 916.736C167.246 922.336 165.369 929.216 160.985 939.712C159.577 943.072 157.944 944.064 155.986 942.656L156.002 942.656Z" fill="white" fill-opacity="0.2"/>
<path d="M167.812 888.896C147.735 867.104 140.73 827.264 136.864 795.008C136.492 791.904 135.683 791.616 135.246 791.712C131.978 792.48 125.717 822.688 125.717 867.776C125.717 872.864 125.798 878.08 125.96 883.232C126.591 903.84 141.119 952.416 151.877 969.856C154.676 974.4 156.989 976.448 158.785 975.968C163.25 974.752 165.224 966.912 167.521 957.792C169.947 948.16 172.698 937.248 179.104 931.904C182.841 928.8 184.734 924.736 184.734 919.808C184.734 911.456 179.039 901.024 167.828 888.864L167.812 888.896ZM178.78 930.464C172.099 936 169.268 947.2 166.777 957.088C164.593 965.792 162.7 973.312 158.655 974.4C157.118 974.816 154.951 972.832 152.378 968.64C141.75 951.392 127.384 903.424 126.769 883.136C126.607 877.984 126.526 872.832 126.526 867.776C126.526 823.456 132.722 793.92 135.343 793.312C135.764 793.216 135.99 794.56 136.087 795.36C139.986 827.936 147.072 868.16 167.424 890.272C184.329 908.64 188.422 922.432 178.78 930.432L178.78 930.464Z" fill="white" fill-opacity="0.2"/>
<path d="M306.536 467.872C306.536 466.176 305.938 464.704 304.773 463.456C298.868 457.216 278.419 457.344 265.979 473.888C264.361 476.032 264.571 479.136 266.61 481.504C272.013 487.712 289.194 490.336 304.191 473.408C305.744 471.648 306.536 469.792 306.536 467.904L306.536 467.872ZM267.176 479.552C266.464 478.72 266.027 477.856 266.027 477.184C266.027 476.608 266.383 476.032 266.61 475.744C278.517 459.936 298.69 459.584 304.239 465.44C304.983 466.24 305.404 467.104 305.404 467.872C305.404 468.864 304.757 470.176 303.624 471.456C289.21 487.712 272.24 485.376 267.176 479.552Z" fill="white" fill-opacity="0.2"/>
<path d="M356.186 259.712C357.852 257.44 358.564 251.84 358.564 241.056C358.564 234.304 358.289 226.272 357.982 216.96C357.593 205.44 357.157 192.352 357.157 178.848C357.157 136.064 361.751 107.2 371.652 87.9678C378.608 70.0798 389.949 60.2239 399.963 51.5199C412.129 40.9279 422.628 31.8078 422.628 11.6159C422.628 9.47185 422.499 7.19985 422.256 4.89583C422.094 3.35982 421.884 1.72786 421.625 0.0318769L420.784 0.0318769C421.075 1.82387 421.302 3.58385 421.48 5.21584C421.706 7.42384 421.835 9.59984 421.835 11.6159C421.835 30.7518 411.563 39.6799 399.656 50.0479C389.561 58.8479 378.123 68.7999 371.07 86.9119C361.039 106.4 356.364 135.616 356.364 178.848C356.364 192.416 356.801 205.504 357.189 217.088C357.496 226.368 357.771 234.4 357.771 241.088C357.771 251.008 357.124 256.512 355.749 258.4C354.989 259.424 353.97 259.456 352.611 258.464C325.092 238.112 290.262 221.056 279.536 222.72C260.753 225.6 243.006 241.92 225.842 257.728C204.859 277.056 185.041 295.296 168.508 283.712C145.535 267.584 105.657 193.984 102.907 154.144C102.777 152.224 102.713 150.08 102.713 147.776C102.713 116.736 113.956 62.0478 132.528 0.0638109L131.59 0.063811C113.083 61.9838 101.904 116.64 101.904 147.776C101.904 150.176 101.968 152.384 102.114 154.368C104.897 194.656 145.098 268.992 168.249 285.248C185.09 297.056 205.053 278.688 226.198 259.232C243.297 243.488 260.964 227.232 279.6 224.352C289 222.912 322.811 238.176 352.32 260C353.937 261.184 355.215 261.12 356.202 259.776L356.186 259.712Z" fill="white" fill-opacity="0.2"/>
<path d="M-3.57539 115.04C-3.57539 138.176 -1.26196 165.024 1.18089 193.44C4.28702 229.408 7.49021 266.624 7.49022 308C7.49022 311.04 7.47404 314.048 7.44169 317.024L7.34462 324.064C7.26373 329.888 7.18285 335.36 7.18285 340.512C7.18285 385.344 19.6397 387.552 32.8246 389.92C40.0561 391.2 47.5464 392.544 53.9043 400.416C56.1692 403.232 59.0488 410.784 62.0902 418.816C68.5613 435.872 75.9061 455.2 82.7816 445.92C85.7421 441.92 87.2305 437.12 87.2305 431.648C87.2305 428.64 86.7775 425.376 85.8877 421.984C81.9404 406.848 70.26 390.688 60.8769 377.696C55.5544 370.336 50.9599 363.968 49.8922 360.48C48.7921 356.832 48.6465 352.736 48.6465 349.248C48.6465 347.904 48.6788 346.528 48.695 345.152C48.7274 343.744 48.7436 342.336 48.7436 340.96C48.7436 335.68 48.42 330.112 46.1066 325.088C43.324 319.04 39.7002 318.272 36.2058 317.536C33.0673 316.864 30.1068 316.256 27.5992 312.128C20.0604 299.648 14.7864 255.872 11.3082 226.912C10.289 218.4 9.39919 211.04 8.60648 205.536C4.9503 180.352 3.10603 155.328 3.10603 131.232C3.10603 77.728 11.9715 34.9439 22.5841 0.0319508L21.6296 0.0319508C11.0817 34.976 2.29714 77.7599 2.29714 131.232C2.29714 155.488 4.1576 180.64 7.82996 205.984C8.62267 211.424 9.51244 218.784 10.5316 227.296C14.2525 258.208 19.3485 300.544 27.0977 313.344C29.7832 317.792 33.0188 318.464 36.1411 319.136C39.6355 319.872 42.9357 320.576 45.5242 326.176C47.6596 330.816 47.9508 336.032 47.9508 340.96C47.9508 342.336 47.9185 343.744 47.9023 345.12C47.87 346.496 47.8538 347.904 47.8538 349.28C47.8538 352.992 48.0156 357.344 49.2127 361.344C50.3613 365.12 54.794 371.264 60.4239 379.072C69.2408 391.296 81.3256 408 85.1759 422.784C87.5217 431.808 86.5996 438.912 82.3286 444.704C76.1002 453.12 68.9981 434.432 62.7373 417.952C59.518 409.472 56.7354 402.144 54.3411 399.168C47.8214 391.072 40.2341 389.728 32.9055 388.416C19.5427 386.048 7.99174 383.968 7.99174 340.608C7.99174 335.456 8.07262 329.984 8.15351 324.192L8.25058 317.152C8.28293 314.144 8.29911 311.136 8.29911 308.096C8.2991 266.56 5.07973 229.312 1.9736 193.248C-0.46925 164.896 -2.78268 138.144 -2.78268 115.136C-2.78268 102.816 -2.11939 92.2239 -0.744276 82.7519C3.02514 56.6079 9.73892 28.9919 17.4881 0.0959158L16.5659 0.0959159C8.88149 28.7999 2.23243 56.2559 -1.52082 82.3039C-2.9121 91.9359 -3.59157 102.688 -3.59157 115.136L-3.57539 115.04Z" fill="white" fill-opacity="0.2"/>
<path d="M335.106 211.392C339.426 205.44 339.911 192.864 340.591 175.488C340.672 173.6 340.736 171.648 340.817 169.664C341.044 164.16 341.141 158.4 341.254 152.32C341.739 124.032 342.305 91.968 355.636 63.008L355.798 62.656C362.9 46.592 375.421 37.056 386.471 28.608C397.601 20.128 407.211 12.7681 407.211 1.12004C407.211 0.768054 407.178 0.384051 407.162 0.0320611L406.677 0.0320612C406.693 0.384051 406.742 0.768054 406.742 1.12004C406.742 12.1281 397.278 19.3281 386.309 27.712C375.211 36.1921 362.625 45.792 355.442 62.016L355.28 62.368C341.836 91.584 341.27 123.84 340.785 152.288C340.672 158.368 340.574 164.128 340.348 169.6C340.267 171.584 340.186 173.536 340.121 175.424C339.458 192.544 338.973 204.928 334.847 210.624C330.932 216 323.588 215.264 311.066 208.16C299.467 201.6 288.87 199.136 278.678 200.704C257.89 203.904 239.221 221.088 221.15 237.696C202.287 255.04 184.475 271.456 172.245 262.88C151.877 248.608 115.93 179.68 113.972 151.136C113.924 150.496 113.875 149.408 113.875 147.744C113.875 123.904 123.905 69.9521 145.567 0.0320726L145.001 0.0320726C123.404 69.9201 113.39 123.84 113.39 147.744C113.39 149.44 113.438 150.592 113.487 151.264C115.477 180.032 151.618 249.44 172.083 263.776C184.507 272.48 202.4 256 221.36 238.56C239.382 221.984 258.003 204.832 278.711 201.664C288.854 200.096 299.402 202.528 310.937 209.088C323.782 216.384 331.03 217.088 335.139 211.424L335.106 211.392Z" fill="white" fill-opacity="0.2"/>
<path d="M481.402 794.88C478.652 747.232 450.033 690.496 428.161 675.296C390.192 648.896 359.616 695.84 330.043 741.248C301.505 785.056 274.553 826.464 241.728 806.336C213.142 788.8 197.709 732.16 197.709 687.776C197.709 663.84 201.996 643.168 209.793 629.504C219.047 613.28 233.106 606.912 250.448 611.072C310.031 625.376 375.211 629.632 394.43 498.24C396.631 483.168 397.747 468.288 397.747 453.984C397.747 398.656 381.731 363.36 368.287 343.488C342.516 305.376 303.964 292.128 272.369 310.56C245.579 326.176 219.581 356.928 192.92 404.512C153.284 475.264 119.214 571.648 88.7351 699.136L87.4085 704.64C74.5795 758.272 61.3138 813.728 54.0014 872.128C53.5646 875.584 53.0469 879.424 52.4969 883.52C50.0702 901.568 47.0611 924 47.0611 943.264C47.0611 950.976 47.5627 957.664 48.5495 963.104C50.054 971.424 52.9337 976.096 55.7163 980.64C57.787 984.032 59.9387 987.52 61.4755 992.512C62.4786 995.744 63.7081 1002.08 65.0185 1008.74C67.1216 1019.52 69.3056 1030.72 71.4087 1034.24C75.4531 1041.06 77.8798 1039.17 80.2418 1037.38C81.9242 1036.06 83.5259 1034.85 85.904 1036.45L87.7806 1037.7C97.3902 1044.16 103.284 1054.84 105.463 1069.73C106.094 1074.05 106.887 1079.42 107.906 1085.79C110.866 1104.19 115.428 1111.74 119.845 1119.04C123.242 1124.64 126.445 1129.95 129.034 1139.97C129.034 1140.22 129.034 1140.54 129.034 1140.86C129.034 1152.38 131.946 1239.74 142.801 1246.46C145.729 1248.26 148.9 1244.35 152.249 1234.78C156.439 1222.82 156.924 1213.76 156.924 1207.97C156.924 1205.15 156.795 1202.59 156.682 1200.13C156.585 1198.02 156.488 1196.03 156.488 1194.14C156.488 1187.1 157.491 1180 169.64 1170.27C172.633 1167.87 175.076 1166.02 177.114 1164.48C187.112 1156.93 187.242 1156.67 191.383 1137.5C192.402 1132.74 193.68 1126.82 195.444 1119.3C201.203 1094.59 207.739 1089.54 216.022 1083.14C220.39 1079.74 225.356 1075.9 230.938 1068.64C236.907 1060.86 241.712 1051.74 246.355 1042.91C254.59 1027.26 262.371 1012.48 275.362 1007.78C297.865 999.616 319.349 1023.78 339.216 1051.1C348.858 1064.35 360.069 1091.58 371.943 1120.42C392.101 1169.38 414.96 1224.86 436.121 1225.06C448.205 1225.18 457.475 1219.04 463.687 1206.82C470.45 1193.5 473.734 1173.28 473.734 1144.96C473.734 1103.9 466.729 1053.47 460.565 1008.96C455.712 973.92 451.506 943.648 451.506 924.32C451.506 919.936 451.732 916.224 452.169 913.312C454.968 894.656 460.953 879.872 466.745 865.536C474.429 846.56 481.677 828.608 481.677 802.976C481.677 800.352 481.596 797.664 481.451 794.976L481.402 794.88ZM451.036 912.576C450.551 915.776 450.325 919.584 450.325 924.224C450.325 943.872 454.547 974.272 459.417 1009.47C465.564 1053.86 472.553 1104.16 472.553 1144.9C472.553 1172.58 469.382 1192.29 462.846 1205.15C456.86 1216.93 447.866 1222.85 436.088 1222.75C415.462 1222.56 392.78 1167.52 372.785 1118.94C360.862 1089.98 349.602 1062.66 339.83 1049.22C319.754 1021.63 298.027 997.216 275.119 1005.54C261.789 1010.37 253.894 1025.38 245.53 1041.25C240.919 1050.02 236.147 1059.07 230.274 1066.72C224.79 1073.86 219.905 1077.66 215.569 1080.99C207.043 1087.58 200.329 1092.8 194.376 1118.3C192.613 1125.86 191.335 1131.81 190.299 1136.58C187.635 1148.91 183.089 1157.5 176.661 1162.37C174.623 1163.9 172.164 1165.76 169.171 1168.16C157.572 1177.47 155.307 1184.74 155.307 1194.11C155.307 1196.1 155.404 1198.14 155.517 1200.32C155.63 1202.72 155.76 1205.22 155.76 1207.94C155.76 1213.89 155.258 1222.14 151.295 1233.47C148.269 1242.14 145.519 1245.76 143.125 1244.29C133.693 1238.46 130.15 1157.02 130.15 1140.83C130.15 1140.45 130.15 1140.19 130.15 1140.03L129.633 1139.78L130.134 1139.3C127.416 1128.67 123.938 1122.88 120.557 1117.31C116.076 1109.89 111.837 1102.88 108.974 1085.09C107.954 1078.75 107.178 1073.41 106.547 1069.09C103.15 1045.82 102.972 1045.54 88.1365 1035.55L86.2599 1034.3C83.4935 1032.45 81.5522 1033.95 79.8212 1035.26C77.5886 1036.99 75.6635 1038.46 72.1367 1032.51C70.2601 1029.34 68.0275 1017.95 66.07 1007.9C64.7435 1001.12 63.4978 994.72 62.4462 991.296C60.8122 985.984 58.5959 982.368 56.4442 978.88C53.6617 974.336 51.0247 970.048 49.6334 962.336C48.6951 957.12 48.2098 950.688 48.2098 943.232C48.2098 924.256 51.2026 901.984 53.6131 884.064C54.1632 879.968 54.6809 876.128 55.1177 872.64C62.3977 814.464 75.6473 759.104 88.4439 705.568L89.7705 700.064C120.168 572.864 154.158 476.704 193.68 406.144C220.212 358.784 246.064 328.192 272.693 312.672C303.964 294.432 342.111 307.52 367.608 345.248C380.841 364.832 396.614 399.584 396.614 453.952C396.614 468.032 395.514 482.688 393.33 497.568C374.37 627.264 309.707 623.008 250.578 608.8C232.911 604.544 218.546 611.104 209.049 627.776C201.009 641.856 196.592 663.136 196.592 687.712C196.592 732.896 212.301 790.56 241.421 808.416C274.796 828.896 303.252 785.216 330.771 742.944C360.101 697.92 390.434 651.328 427.821 677.344C449.386 692.352 477.617 748.224 480.318 795.072C480.464 797.696 480.545 800.288 480.545 802.816C480.545 827.68 473.41 845.312 465.855 864C459.999 878.464 453.948 893.44 451.069 912.512L451.036 912.576Z" fill="white" fill-opacity="0.2"/>
<path d="M15.6276 502.464C19.4941 513.312 21.3869 528.16 21.3869 547.872C21.3869 571.008 18.7661 596.928 16.4527 619.744C15.0938 633.216 13.7995 645.92 13.2495 656.32C12.9745 661.408 12.3435 675.072 12.3435 691.904C12.3435 723.072 14.479 763.072 24.6548 776.48C29.0714 782.336 34.6365 782.56 41.1723 777.184C44.2461 774.656 45.9124 768.128 47.5302 761.824C48.8083 756.832 50.1186 751.68 52.0923 748.8C54.4219 745.408 57.6899 743.392 60.8607 741.472C65.0669 738.88 69.4187 736.224 71.991 730.176C75.178 722.656 76.6664 714.432 76.6664 704.224C76.6664 697.152 75.9384 689.92 75.2427 682.944C74.5471 676.032 73.8353 668.896 73.8353 661.984C73.8353 655.072 74.4986 649.6 75.8575 644.352C79.1739 631.648 83.639 626.272 87.9423 621.12C93.5722 614.368 98.8785 608 101.37 587.008C106.563 543.072 111.999 531.008 125.119 501.92C126.817 498.176 128.629 494.144 130.587 489.728C135.23 479.264 140.536 471.52 145.665 464.032C150.243 457.376 154.967 450.464 159.302 441.568C164.625 430.656 166.987 420.352 169.268 410.4C172.309 397.152 175.189 384.608 185.057 373.248L186.611 371.488C199.1 357.184 210.667 342.752 210.667 333.856C210.667 332.416 210.392 331.2 209.826 330.176C208.046 326.976 203.338 326.112 195.427 327.52C190.784 328.352 186.643 334.976 182.631 341.408C178.311 348.32 174.218 354.848 169.705 354.464C164.301 353.984 161.632 347.52 158.817 340.672C156.763 335.648 154.627 330.464 151.311 327.424C143.367 320.128 136.265 318.368 129.39 316.64C119.812 314.272 110.785 312.032 100.561 295.072C82.2639 264.768 68.448 222.24 61.6372 175.328C59.3723 159.712 58.2722 145.248 58.2722 131.136C58.2722 83.2002 71.4571 48.8321 85.4024 12.4161C86.9878 8.28814 88.5732 4.12817 90.1586 -0.0638497L88.7512 -0.0638496C87.3275 3.68017 85.92 7.39208 84.5126 11.0721C70.4379 47.7761 57.156 82.4642 57.156 131.136C57.156 145.472 58.2722 160.128 60.5695 175.968C67.4289 223.296 81.3741 266.208 99.8491 296.832C110.332 314.208 119.521 316.48 129.26 318.912C136.055 320.608 143.076 322.336 150.841 329.504C153.915 332.32 155.954 337.312 157.944 342.112C160.791 349.056 163.751 356.224 169.672 356.736C174.607 357.152 179.056 350.048 183.359 343.2C187.241 336.992 191.254 330.592 195.541 329.824C204.859 328.16 208.046 330.016 209.065 331.904C209.389 332.48 209.534 333.12 209.534 333.92C209.534 342.72 193.066 361.568 186.044 369.6L184.491 371.392C174.315 383.104 171.371 395.968 168.233 409.536C165.984 419.328 163.654 429.44 158.477 440.064C154.223 448.8 149.531 455.648 144.985 462.272C139.808 469.824 134.453 477.632 129.729 488.288C127.772 492.704 125.96 496.736 124.261 500.48C110.996 529.888 105.511 542.048 100.254 586.56C97.8755 606.656 92.7633 612.8 87.3437 619.264C82.8948 624.608 78.3003 630.112 74.8383 643.392C73.3823 648.96 72.6867 655.04 72.6867 662.048C72.6867 669.056 73.4146 676.416 74.1103 683.424C74.8059 690.304 75.5016 697.44 75.5016 704.288C75.5016 713.92 74.0941 721.696 71.0851 728.8C68.7231 734.336 64.533 736.928 60.4724 739.392C57.2207 741.376 53.8557 743.456 51.3643 747.072C49.1803 750.24 47.8052 755.648 46.4625 760.864C44.877 767.072 43.3725 772.96 40.687 775.168C34.5233 780.224 29.314 780.064 25.2211 774.656C15.4659 761.76 13.4113 722.56 13.4113 691.936C13.4113 675.2 14.0422 661.664 14.3172 656.608C14.8673 646.336 16.1615 633.664 17.5042 620.256C19.8338 597.312 22.4546 571.296 22.4546 547.936C22.4546 527.744 20.4971 512.48 16.485 501.248C6.47099 473.248 -8.62287 481.28 -23.2152 489.056C-38.8106 497.344 -54.9399 505.92 -65.4554 471.424C-66.7173 467.296 -67.3644 461.76 -67.3644 455.008C-67.3644 434.368 -61.6698 405.312 -56.1532 377.216C-51.3484 352.736 -46.8186 329.632 -46.6407 314.592C-46.6083 312.416 -46.6083 310.272 -46.6083 308.096C-46.6083 275.776 -49.4232 243.104 -52.1573 211.488C-54.8752 179.936 -57.6901 147.328 -57.6901 115.136C-57.6901 92.6082 -56.3312 72.2561 -53.5486 52.9601C-50.9763 35.1041 -47.5628 17.5041 -43.6801 0.0961293L-44.9097 0.0961293C-48.7438 17.2802 -52.0926 34.6881 -54.6325 52.3521C-57.4474 71.8721 -58.8225 92.4162 -58.8225 115.136C-58.8225 147.52 -56.0076 180.256 -53.2736 211.872C-50.5557 243.392 -47.7408 275.968 -47.7408 308.096C-47.7084 310.272 -47.7408 312.384 -47.7731 314.56C-47.9511 329.216 -52.4485 352.128 -57.2048 376.416C-62.7537 404.704 -68.4968 433.952 -68.4968 455.008C-68.4968 462.304 -67.8174 468.032 -66.4261 472.608C-55.4575 508.544 -38.9239 499.744 -22.924 491.232C-8.04048 483.328 6.00184 475.84 15.5629 502.56L15.6276 502.464Z" fill="white" fill-opacity="0.2"/>
</g>
</g>
<defs>
<clipPath id="clip0_401_2661">
<rect width="1440" height="728" fill="white" transform="translate(-107 1440) rotate(-90)"/>
</clipPath>
</defs>
</svg>
