<svg width="28" height="28" viewBox="0 0 28 28" fill="none" xmlns="http://www.w3.org/2000/svg">
<path d="M15.6334 20.3234H12.7051C10.7917 20.3234 9.24006 18.7134 9.24006 16.7301C9.24006 16.2518 9.63673 15.8551 10.1151 15.8551C10.5934 15.8551 10.9901 16.2518 10.9901 16.7301C10.9901 17.7451 11.7601 18.5734 12.7051 18.5734H15.6334C16.3917 18.5734 17.0217 17.8968 17.0217 17.0801C17.0217 16.0651 16.6601 15.8668 16.0651 15.6568L11.3634 14.0001C10.4534 13.6851 9.22839 13.0084 9.22839 10.9201C9.22839 9.12342 10.6401 7.67676 12.3667 7.67676H15.2951C17.2084 7.67676 18.7601 9.28676 18.7601 11.2701C18.7601 11.7484 18.3634 12.1451 17.8851 12.1451C17.4067 12.1451 17.0101 11.7484 17.0101 11.2701C17.0101 10.2551 16.2401 9.42676 15.2951 9.42676H12.3667C11.6084 9.42676 10.9784 10.1034 10.9784 10.9201C10.9784 11.9351 11.3401 12.1334 11.9351 12.3434L16.6367 14.0001C17.5467 14.3151 18.7717 14.9918 18.7717 17.0801C18.7601 18.8651 17.3601 20.3234 15.6334 20.3234Z" fill="#FFE500"/>
<path d="M14 21.875C13.5217 21.875 13.125 21.4783 13.125 21V7C13.125 6.52167 13.5217 6.125 14 6.125C14.4783 6.125 14.875 6.52167 14.875 7V21C14.875 21.4783 14.4783 21.875 14 21.875Z" fill="#FFE500"/>
<path d="M17.5 26.5418H10.5C4.16504 26.5418 1.45837 23.8352 1.45837 17.5002V10.5002C1.45837 4.16516 4.16504 1.4585 10.5 1.4585H17.5C23.835 1.4585 26.5417 4.16516 26.5417 10.5002V17.5002C26.5417 23.8352 23.835 26.5418 17.5 26.5418ZM10.5 3.2085C5.12171 3.2085 3.20837 5.12183 3.20837 10.5002V17.5002C3.20837 22.8785 5.12171 24.7918 10.5 24.7918H17.5C22.8784 24.7918 24.7917 22.8785 24.7917 17.5002V10.5002C24.7917 5.12183 22.8784 3.2085 17.5 3.2085H10.5Z" fill="#FFE500"/>
</svg>
