<svg width="16" height="17" viewBox="0 0 16 17" fill="none" xmlns="http://www.w3.org/2000/svg">
<path d="M3.02747 3.72175C2.91664 3.72175 2.79997 3.67509 2.71831 3.59342C2.54914 3.42425 2.54914 3.14425 2.71831 2.97509L4.83581 0.857588C5.00497 0.688421 5.28497 0.688421 5.45414 0.857588C5.62331 1.02675 5.62331 1.30675 5.45414 1.47592L3.33664 3.59342C3.24914 3.67509 3.13831 3.72175 3.02747 3.72175Z" fill="white"/>
<path d="M10.9725 3.72175C10.8617 3.72175 10.7508 3.68092 10.6633 3.59342L8.54582 1.47592C8.37665 1.30675 8.37665 1.02675 8.54582 0.857588C8.71499 0.688421 8.99499 0.688421 9.16415 0.857588L11.2817 2.97509C11.4508 3.14425 11.4508 3.42425 11.2817 3.59342C11.2 3.67509 11.0833 3.72175 10.9725 3.72175Z" fill="white"/>
<path d="M11.7891 6.18343C11.7483 6.18343 11.7075 6.18343 11.6666 6.18343H11.5325H2.33329C1.92496 6.18926 1.45829 6.18926 1.11996 5.85093C0.851626 5.58843 0.729126 5.1801 0.729126 4.57926C0.729126 2.9751 1.90163 2.9751 2.46163 2.9751H11.5383C12.0983 2.9751 13.2708 2.9751 13.2708 4.57926C13.2708 5.18593 13.1483 5.58843 12.88 5.85093C12.5766 6.15426 12.1683 6.18343 11.7891 6.18343ZM2.46163 5.30843H11.6725C11.935 5.31426 12.18 5.31426 12.2616 5.2326C12.3025 5.19176 12.39 5.05176 12.39 4.57926C12.39 3.9201 12.2266 3.8501 11.5325 3.8501H2.46163C1.76746 3.8501 1.60413 3.9201 1.60413 4.57926C1.60413 5.05176 1.69746 5.19176 1.73246 5.2326C1.81413 5.30843 2.06496 5.30843 2.32163 5.30843H2.46163Z" fill="white"/>
<path d="M5.69336 10.6751C5.45419 10.6751 5.25586 10.4767 5.25586 10.2376V8.16675C5.25586 7.92758 5.45419 7.72925 5.69336 7.72925C5.93253 7.72925 6.13086 7.92758 6.13086 8.16675V10.2376C6.13086 10.4826 5.93253 10.6751 5.69336 10.6751Z" fill="white"/>
<path d="M8.37671 10.6751C8.13754 10.6751 7.93921 10.4767 7.93921 10.2376V8.16675C7.93921 7.92758 8.13754 7.72925 8.37671 7.72925C8.61588 7.72925 8.81421 7.92758 8.81421 8.16675V10.2376C8.81421 10.4826 8.61588 10.6751 8.37671 10.6751Z" fill="white"/>
<path d="M8.68585 13.2709H5.16835C3.08002 13.2709 2.61335 12.0284 2.43252 10.9493L1.61002 5.90343C1.56919 5.66427 1.73252 5.4426 1.97169 5.40177C2.21085 5.36093 2.43252 5.52427 2.47335 5.76343L3.29585 10.8034C3.46502 11.8359 3.81502 12.3959 5.16835 12.3959H8.68585C10.185 12.3959 10.3542 11.8709 10.5467 10.8559L11.5267 5.75177C11.5734 5.5126 11.8009 5.3551 12.04 5.4076C12.2792 5.45427 12.4309 5.68177 12.3842 5.92093L11.4042 11.0251C11.1767 12.2093 10.7975 13.2709 8.68585 13.2709Z" fill="white"/>
<path d="M12.6875 16.0533C11.8708 16.0533 11.1066 15.6975 10.5816 15.0733C10.5758 15.0675 10.5525 15.0442 10.535 15.015C10.4475 14.91 10.3716 14.805 10.3133 14.6942C10.0566 14.28 9.91663 13.79 9.91663 13.2767C9.91663 12.425 10.2958 11.6375 10.955 11.1125C11.0716 11.0192 11.2 10.9317 11.34 10.8558C11.7425 10.6283 12.215 10.5 12.6875 10.5C13.3641 10.5 13.9883 10.7333 14.49 11.1708C14.5541 11.2175 14.6416 11.305 14.7174 11.3867C15.1899 11.9058 15.4525 12.5708 15.4525 13.265C15.4525 13.7725 15.3125 14.2684 15.05 14.6942C14.9216 14.9159 14.7641 15.1084 14.5891 15.26C14.5541 15.295 14.5191 15.33 14.4783 15.3592C14.0175 15.8084 13.37 16.0533 12.6875 16.0533ZM11.2174 14.4725C11.2349 14.49 11.2641 14.5191 11.2874 14.56C11.6083 14.9391 12.1333 15.1842 12.6875 15.1842C13.1483 15.1842 13.5916 15.015 13.93 14.7116C13.9475 14.6883 13.9708 14.665 14 14.6475C14.1166 14.5483 14.2158 14.42 14.3091 14.2683C14.49 13.9708 14.5891 13.6384 14.5891 13.2884C14.5891 12.8159 14.4083 12.355 14.0816 11.9992C14.0408 11.9525 13.9999 11.9058 13.9474 11.8708C13.3174 11.3283 12.4541 11.2467 11.7658 11.6375C11.6724 11.69 11.5908 11.7425 11.515 11.8067C11.06 12.1683 10.7975 12.705 10.7975 13.2884C10.7975 13.6325 10.8908 13.9709 11.0716 14.2625C11.1183 14.3442 11.1649 14.4084 11.2174 14.4667C11.2116 14.4667 11.2174 14.4667 11.2174 14.4725Z" fill="white"/>
<path d="M13.5624 13.7083H11.8182C11.5791 13.7083 11.3807 13.5099 11.3807 13.2708C11.3807 13.0316 11.5791 12.8333 11.8182 12.8333H13.5624C13.8016 12.8333 13.9999 13.0316 13.9999 13.2708C13.9999 13.5099 13.8016 13.7083 13.5624 13.7083Z" fill="white"/>
<path d="M12.6875 14.6009C12.4483 14.6009 12.25 14.4025 12.25 14.1634V12.4192C12.25 12.18 12.4483 11.9817 12.6875 11.9817C12.9267 11.9817 13.125 12.18 13.125 12.4192V14.1634C13.125 14.4084 12.9267 14.6009 12.6875 14.6009Z" fill="white"/>
</svg>
