<svg width="11" height="12" viewBox="0 0 11 12" fill="none" xmlns="http://www.w3.org/2000/svg">
<path d="M0.0608696 9.99348C0.265217 9.9529 0.451449 9.90145 0.619565 9.83913C0.787681 9.77826 0.934783 9.70942 1.06087 9.63261C1.18841 9.55725 1.29348 9.47681 1.37609 9.3913C1.46014 9.3058 1.51957 9.21884 1.55435 9.13043C1.49203 9.13043 1.42609 9.12899 1.35652 9.12609C1.28696 9.12464 1.22971 9.12246 1.18478 9.11957C1.0413 9.10797 0.91087 9.08043 0.793478 9.03696C0.676087 8.99493 0.574638 8.93696 0.48913 8.86304C0.405072 8.78768 0.339855 8.69638 0.293478 8.58913C0.247101 8.48188 0.223913 8.3587 0.223913 8.21957C0.223913 8.13116 0.233333 8.04058 0.252174 7.94783C0.271014 7.85507 0.297826 7.76449 0.332609 7.67609C0.368841 7.58768 0.413043 7.50435 0.465217 7.42609C0.518841 7.34783 0.578986 7.27899 0.645652 7.21957C0.712319 7.16014 0.785507 7.11377 0.865217 7.08043C0.946377 7.04565 1.03333 7.02826 1.12609 7.02826C1.23623 7.02826 1.33768 7.04855 1.43043 7.08913C1.52319 7.12826 1.60797 7.18188 1.68478 7.25C1.76304 7.31812 1.83188 7.39855 1.8913 7.4913C1.95217 7.58261 2.00435 7.68116 2.04783 7.78696C2.09275 7.8913 2.12899 8 2.15652 8.11304C2.18551 8.22464 2.2058 8.33478 2.21739 8.44348H2.31087V9.13043H2.17174C2.11522 9.34348 2.02464 9.53623 1.9 9.7087C1.77681 9.88261 1.62899 10.0341 1.45652 10.163C1.28406 10.292 1.09203 10.3986 0.880435 10.4826C0.67029 10.5667 0.450725 10.6261 0.221739 10.6609L0.0608696 9.99348ZM1.12609 7.71739C1.09565 7.71159 1.06087 7.72246 1.02174 7.75C0.982609 7.77609 0.946377 7.81232 0.913043 7.8587C0.87971 7.90362 0.851449 7.95362 0.828261 8.0087C0.805072 8.06377 0.794203 8.11667 0.795652 8.16739C0.797101 8.21667 0.813044 8.25725 0.843478 8.28913C0.873913 8.32101 0.913043 8.34783 0.96087 8.36957C1.0087 8.38986 1.06232 8.40507 1.12174 8.41522C1.18261 8.42536 1.24275 8.43261 1.30217 8.43696C1.36159 8.4413 1.41739 8.44348 1.46957 8.44348H1.60435C1.58261 8.35362 1.55652 8.26739 1.52609 8.18478C1.4971 8.10217 1.46304 8.02826 1.42391 7.96304C1.38478 7.89783 1.34058 7.84348 1.2913 7.8C1.24203 7.75652 1.18696 7.72899 1.12609 7.71739ZM4.28084 8.44348V9.13043H2.22215V8.44348H4.28084ZM6.2535 8.44348V9.13043H4.1948V8.44348H6.2535ZM8.22615 8.44348V9.13043H6.16746V8.44348H8.22615ZM8.14012 8.44348H8.66185C8.72417 8.44348 8.79301 8.44058 8.86838 8.43478C8.94374 8.42754 9.01403 8.41377 9.07925 8.39348C9.14591 8.37319 9.20099 8.34348 9.24446 8.30435C9.28939 8.26377 9.31185 8.21087 9.31185 8.14565C9.31185 8.11087 9.30099 8.05942 9.27925 7.9913C9.25896 7.92174 9.23142 7.84493 9.19664 7.76087C9.1633 7.67536 9.1249 7.58623 9.08142 7.49348C9.03939 7.40072 8.99736 7.31232 8.95533 7.22826L9.57707 6.91957C9.61765 7.01087 9.65751 7.10797 9.69664 7.21087C9.73722 7.31377 9.77345 7.41812 9.80533 7.52391C9.83722 7.62971 9.86258 7.73551 9.88142 7.8413C9.90171 7.94565 9.91185 8.04565 9.91185 8.1413C9.91185 8.32101 9.87852 8.47391 9.81185 8.6C9.74664 8.72464 9.65751 8.82681 9.54446 8.90652C9.43142 8.98478 9.29881 9.0413 9.14664 9.07609C8.99446 9.11232 8.83142 9.13043 8.65751 9.13043H8.14012V8.44348ZM9.15316 6.20217L8.74446 6.61087L8.32272 6.1913L8.74012 5.77174L9.15316 6.18478L9.56185 5.77609L9.98359 6.19565L9.5662 6.61522L9.15316 6.20217Z" fill="#FFE500"/>
<path d="M2.76739 6.62826C2.51812 6.62826 2.2913 6.59638 2.08696 6.53261C1.88261 6.46884 1.70725 6.37319 1.56087 6.24565C1.41594 6.11957 1.3029 5.96159 1.22174 5.77174C1.14203 5.58333 1.10217 5.36377 1.10217 5.11304C1.10217 4.87246 1.13986 4.63261 1.21522 4.39348C1.29203 4.15435 1.40507 3.92029 1.55435 3.6913L2.04348 4.04348C2.01449 4.08261 1.98043 4.1413 1.9413 4.21957C1.90217 4.29783 1.86449 4.38696 1.82826 4.48696C1.79203 4.58696 1.76159 4.69348 1.73696 4.80652C1.71232 4.91812 1.7 5.02609 1.7 5.13043C1.7 5.25072 1.72681 5.35942 1.78043 5.45652C1.83551 5.55362 1.90797 5.63696 1.99783 5.70652C2.08913 5.77609 2.19348 5.83043 2.31087 5.86957C2.42971 5.9087 2.5529 5.92971 2.68043 5.93261C2.83406 5.93551 2.98188 5.91522 3.12391 5.87174C3.26594 5.82971 3.38986 5.76957 3.49565 5.6913C3.6029 5.61449 3.68696 5.52246 3.74783 5.41522C3.8087 5.30942 3.83623 5.1942 3.83043 5.06957C3.82754 5.00725 3.81594 4.93696 3.79565 4.8587C3.77536 4.78043 3.75072 4.70072 3.72174 4.61957C3.6942 4.53696 3.66304 4.4558 3.62826 4.37609C3.59493 4.29493 3.56304 4.22101 3.53261 4.15435C3.50362 4.08768 3.47826 4.03043 3.45652 3.98261C3.43478 3.93478 3.42101 3.90217 3.41522 3.88478L4.00652 3.55652C4.01232 3.56232 4.02681 3.59058 4.05 3.6413C4.07319 3.69203 4.1 3.75797 4.13043 3.83913C4.16232 3.91884 4.19565 4.01014 4.23043 4.11304C4.26667 4.21594 4.29928 4.32246 4.32826 4.43261C4.35725 4.54275 4.38116 4.65217 4.4 4.76087C4.42029 4.86957 4.43043 4.96957 4.43043 5.06087C4.43043 5.18986 4.41594 5.31812 4.38696 5.44565C4.35797 5.57319 4.31304 5.69493 4.25217 5.81087C4.19275 5.92826 4.11739 6.03623 4.02609 6.13478C3.93623 6.23478 3.82971 6.32101 3.70652 6.39348C3.58333 6.46739 3.44348 6.52464 3.28696 6.56522C3.13043 6.60725 2.95725 6.62826 2.76739 6.62826ZM2.78261 4.01304L2.3 3.53043L2.78261 3.04783L3.26522 3.53043L2.78261 4.01304ZM5.85964 5.13043C5.67848 5.13043 5.52486 5.1058 5.39877 5.05652C5.27268 5.0087 5.16978 4.94203 5.09007 4.85652C5.01036 4.77101 4.95239 4.67029 4.91616 4.55435C4.88138 4.43696 4.86399 4.31014 4.86399 4.17391C4.86399 4.10435 4.86544 4.01812 4.86833 3.91522C4.87123 3.81087 4.87268 3.69058 4.87268 3.55435C4.87268 3.41812 4.87196 3.26884 4.87051 3.10652C4.86906 2.94275 4.86471 2.77899 4.85746 2.61522C4.85167 2.45145 4.84225 2.2942 4.8292 2.14348C4.81761 1.99275 4.80094 1.86159 4.7792 1.75L5.4292 1.55217C5.44804 1.64783 5.46326 1.76087 5.47486 1.8913C5.4879 2.02029 5.49804 2.1558 5.50529 2.29783C5.51254 2.43986 5.51761 2.58261 5.52051 2.72609C5.52486 2.86957 5.52775 3.0029 5.5292 3.12609C5.53065 3.23478 5.52848 3.34928 5.52268 3.46957C5.51833 3.58841 5.51471 3.7029 5.51181 3.81304C5.50891 3.92174 5.50964 4.02029 5.51399 4.1087C5.51978 4.1971 5.53355 4.26449 5.55529 4.31087C5.56833 4.3442 5.58428 4.36957 5.60312 4.38696C5.62341 4.40435 5.64659 4.41739 5.67268 4.42609C5.69877 4.43478 5.72703 4.43986 5.75746 4.4413C5.78935 4.44275 5.82413 4.44348 5.86181 4.44348H5.92051V5.13043H5.85964ZM7.71923 5.12391C7.63228 5.12391 7.54242 5.11449 7.44967 5.09565C7.35692 5.07826 7.26561 5.05435 7.17576 5.02391C7.08735 4.99348 7.00184 4.9587 6.91923 4.91957C6.83807 4.87899 6.76561 4.83768 6.70184 4.79565C6.65402 4.85942 6.60257 4.91304 6.54749 4.95652C6.49387 4.99855 6.4359 5.03261 6.37358 5.0587C6.31271 5.08478 6.24605 5.1029 6.17358 5.11304C6.10257 5.12464 6.02576 5.13043 5.94315 5.13043H5.83445V4.44348H5.94315C6.0388 4.44348 6.11923 4.42391 6.18445 4.38478C6.24967 4.34565 6.30547 4.29565 6.35184 4.23478C6.39822 4.17246 6.4388 4.10435 6.47358 4.03043C6.50981 3.95507 6.54677 3.88188 6.58445 3.81087C6.62793 3.72246 6.67648 3.63406 6.7301 3.54565C6.78518 3.45725 6.84822 3.37754 6.91923 3.30652C6.99025 3.23551 7.06996 3.17826 7.15836 3.13478C7.24822 3.08986 7.34894 3.06739 7.46054 3.06739C7.61271 3.06739 7.74315 3.1029 7.85184 3.17391C7.96199 3.24348 8.05257 3.33551 8.12358 3.45C8.1946 3.56304 8.24677 3.69203 8.2801 3.83696C8.31489 3.98043 8.33228 4.12536 8.33228 4.27174C8.33228 4.39493 8.31416 4.5087 8.27793 4.61304C8.2417 4.71739 8.1946 4.80725 8.13663 4.88261C8.07865 4.95797 8.01271 5.01667 7.9388 5.0587C7.86634 5.10217 7.79315 5.12391 7.71923 5.12391ZM7.44097 3.73043C7.39894 3.73043 7.35981 3.7471 7.32358 3.78043C7.28735 3.81232 7.25329 3.85217 7.22141 3.9C7.18952 3.94783 7.16054 4 7.13445 4.05652C7.10981 4.11304 7.08735 4.16522 7.06706 4.21304C7.11489 4.24348 7.16923 4.27174 7.2301 4.29783C7.29097 4.32391 7.35402 4.3471 7.41923 4.36739C7.48445 4.38623 7.55039 4.40217 7.61706 4.41522C7.68373 4.42826 7.74749 4.43768 7.80836 4.44348C7.81561 4.35507 7.81126 4.26812 7.79532 4.18261C7.77938 4.0971 7.75402 4.02101 7.71923 3.95435C7.6859 3.88768 7.64532 3.83406 7.59749 3.79348C7.54967 3.75145 7.49749 3.73043 7.44097 3.73043Z" fill="#FFE500"/>
</svg>
