<svg width="20" height="20" viewBox="0 0 20 20" fill="none" xmlns="http://www.w3.org/2000/svg">
<path opacity="0.4" d="M13.4917 7.38415C13.1667 7.38415 12.9084 7.12581 12.9084 6.80081V5.73415C12.9084 4.91748 12.5584 4.13415 11.9584 3.58415C11.3417 3.02581 10.55 2.76748 9.71672 2.84248C8.31672 2.97581 7.09172 4.40081 7.09172 5.88415V6.63415C7.09172 6.95915 6.83338 7.21748 6.50838 7.21748C6.18338 7.21748 5.92505 6.95915 5.92505 6.63415V5.88415C5.92505 3.80081 7.60838 1.87581 9.60005 1.68415C10.7584 1.57581 11.875 1.94248 12.7334 2.72581C13.5834 3.49248 14.0667 4.59248 14.0667 5.73415V6.80081C14.0667 7.12581 13.8084 7.38415 13.4917 7.38415Z" fill="white"/>
<path d="M16.6333 7.46738C15.9333 6.69238 14.7833 6.31738 13.1 6.31738H6.89995C5.21662 6.31738 4.06662 6.69238 3.36662 7.46738C2.55828 8.36738 2.58328 9.56738 2.67495 10.4007L3.25828 15.0424C3.43328 16.6674 4.09162 18.334 7.67495 18.334H12.325C15.9083 18.334 16.5666 16.6674 16.7416 15.0507L17.325 10.3924C17.4166 9.56738 17.4333 8.36738 16.6333 7.46738ZM7.01662 10.959H7.00828C6.54995 10.959 6.17495 10.584 6.17495 10.1257C6.17495 9.66738 6.54995 9.29238 7.00828 9.29238C7.47495 9.29238 7.84995 9.66738 7.84995 10.1257C7.84995 10.584 7.47495 10.959 7.01662 10.959ZM12.85 10.959H12.8416C12.3833 10.959 12.0083 10.584 12.0083 10.1257C12.0083 9.66738 12.3833 9.29238 12.8416 9.29238C13.3083 9.29238 13.6833 9.66738 13.6833 10.1257C13.6833 10.584 13.3083 10.959 12.85 10.959Z" fill="white"/>
</svg>
