<svg width="20" height="20" viewBox="0 0 20 20" fill="none" xmlns="http://www.w3.org/2000/svg">
<path d="M14.825 18.9591H5.17496C2.89163 18.9591 1.04163 17.1008 1.04163 14.8175V8.64246C1.04163 7.50913 1.74163 6.08413 2.64163 5.38413L7.13329 1.88413C8.48329 0.834126 10.6416 0.784125 12.0416 1.76746L17.1916 5.37579C18.1833 6.06746 18.9583 7.55079 18.9583 8.75913V14.8258C18.9583 17.1008 17.1083 18.9591 14.825 18.9591ZM7.89996 2.86746L3.40829 6.36746C2.81663 6.83413 2.29163 7.89246 2.29163 8.64246V14.8175C2.29163 16.4091 3.58329 17.7091 5.17496 17.7091H14.825C16.4166 17.7091 17.7083 16.4175 17.7083 14.8258V8.75913C17.7083 7.95913 17.1333 6.85079 16.475 6.40079L11.325 2.79246C10.375 2.12579 8.80829 2.15913 7.89996 2.86746Z" fill="white"/>
<path d="M10 15.6257C9.65833 15.6257 9.375 15.3424 9.375 15.0007V12.5007C9.375 12.1591 9.65833 11.8757 10 11.8757C10.3417 11.8757 10.625 12.1591 10.625 12.5007V15.0007C10.625 15.3424 10.3417 15.6257 10 15.6257Z" fill="white"/>
</svg>
