<svg width="20" height="20" viewBox="0 0 20 20" fill="none" xmlns="http://www.w3.org/2000/svg">
<path d="M10.133 9.68415C10.108 9.68415 10.0913 9.68415 10.0663 9.68415C10.0247 9.67581 9.96635 9.67581 9.91635 9.68415C7.49968 9.60915 5.67468 7.70915 5.67468 5.36748C5.67468 2.98415 7.61635 1.04248 9.99968 1.04248C12.383 1.04248 14.3247 2.98415 14.3247 5.36748C14.3164 7.70915 12.483 9.60915 10.158 9.68415C10.1497 9.68415 10.1413 9.68415 10.133 9.68415ZM9.99968 2.29248C8.30802 2.29248 6.92468 3.67581 6.92468 5.36748C6.92468 7.03415 8.22468 8.37581 9.88302 8.43415C9.92468 8.42581 10.0413 8.42581 10.1497 8.43415C11.783 8.35915 13.0663 7.01748 13.0747 5.36748C13.0747 3.67581 11.6913 2.29248 9.99968 2.29248Z" fill="white"/>
<path d="M10.1413 18.7923C8.50801 18.7923 6.86634 18.3757 5.62467 17.5423C4.46634 16.7757 3.83301 15.7257 3.83301 14.584C3.83301 13.4423 4.46634 12.384 5.62467 11.609C8.12467 9.95065 12.1747 9.95065 14.658 11.609C15.808 12.3757 16.4497 13.4257 16.4497 14.5673C16.4497 15.709 15.8163 16.7673 14.658 17.5423C13.408 18.3757 11.7747 18.7923 10.1413 18.7923ZM6.31634 12.659C5.51634 13.1923 5.08301 13.8757 5.08301 14.5923C5.08301 15.3007 5.52467 15.984 6.31634 16.509C8.39134 17.9007 11.8913 17.9007 13.9663 16.509C14.7663 15.9757 15.1997 15.2923 15.1997 14.5757C15.1997 13.8673 14.758 13.184 13.9663 12.659C11.8913 11.2757 8.39134 11.2757 6.31634 12.659Z" fill="white"/>
</svg>
