<svg width="20" height="20" viewBox="0 0 20 20" fill="none" xmlns="http://www.w3.org/2000/svg">
<path d="M12.25 18.9592H7.74997C3.6333 18.9592 1.8833 17.2008 1.8833 13.0925V9.35083C1.8833 9.00916 2.16663 8.72583 2.5083 8.72583C2.84997 8.72583 3.1333 9.00916 3.1333 9.35083V13.0925C3.1333 16.5008 4.34163 17.7092 7.74997 17.7092H12.2416C15.65 17.7092 16.8583 16.5008 16.8583 13.0925V9.35083C16.8583 9.00916 17.1416 8.72583 17.4833 8.72583C17.825 8.72583 18.1083 9.00916 18.1083 9.35083V13.0925C18.1166 17.2008 16.3583 18.9592 12.25 18.9592Z" fill="white"/>
<path d="M10 10.6258C9.08338 10.6258 8.25004 10.2675 7.65837 9.60915C7.06671 8.95081 6.79171 8.09248 6.88338 7.17581L7.44171 1.60915C7.47504 1.29248 7.74171 1.04248 8.06671 1.04248H11.9584C12.2834 1.04248 12.55 1.28415 12.5834 1.60915L13.1417 7.17581C13.2334 8.09248 12.9584 8.95081 12.3667 9.60915C11.75 10.2675 10.9167 10.6258 10 10.6258ZM8.62504 2.29248L8.12504 7.30081C8.06671 7.85915 8.23338 8.38415 8.58338 8.76748C9.29171 9.55081 10.7084 9.55081 11.4167 8.76748C11.7667 8.37581 11.9334 7.85081 11.875 7.30081L11.375 2.29248H8.62504Z" fill="white"/>
<path d="M15.2584 10.6258C13.5667 10.6258 12.0584 9.25915 11.8834 7.57581L11.3 1.73415C11.2834 1.55915 11.3417 1.38415 11.4584 1.25081C11.575 1.11748 11.7417 1.04248 11.925 1.04248H14.4667C16.9167 1.04248 18.0584 2.06748 18.4 4.58415L18.6334 6.90081C18.7334 7.88415 18.4334 8.81748 17.7917 9.52581C17.15 10.2341 16.25 10.6258 15.2584 10.6258ZM12.6167 2.29248L13.1334 7.45081C13.2417 8.49248 14.2084 9.37581 15.2584 9.37581C15.8917 9.37581 16.4584 9.13415 16.8667 8.69248C17.2667 8.25081 17.45 7.65915 17.3917 7.02581L17.1584 4.73415C16.9 2.85081 16.2917 2.29248 14.4667 2.29248H12.6167Z" fill="white"/>
<path d="M4.70002 10.6258C3.70835 10.6258 2.80835 10.2341 2.16668 9.52581C1.52502 8.81748 1.22502 7.88415 1.32502 6.90081L1.55002 4.60915C1.90002 2.06748 3.04168 1.04248 5.49168 1.04248H8.03335C8.20835 1.04248 8.37502 1.11748 8.50002 1.25081C8.62502 1.38415 8.67502 1.55915 8.65835 1.73415L8.07502 7.57581C7.90002 9.25915 6.39168 10.6258 4.70002 10.6258ZM5.49168 2.29248C3.66668 2.29248 3.05835 2.84248 2.79168 4.75081L2.56668 7.02581C2.50002 7.65915 2.69168 8.25081 3.09168 8.69248C3.49168 9.13415 4.05835 9.37581 4.70002 9.37581C5.75002 9.37581 6.72502 8.49248 6.82502 7.45081L7.34168 2.29248H5.49168Z" fill="white"/>
<path d="M12.0833 18.9591H7.91663C7.57496 18.9591 7.29163 18.6758 7.29163 18.3341V16.2508C7.29163 14.5008 8.24996 13.5425 9.99996 13.5425C11.75 13.5425 12.7083 14.5008 12.7083 16.2508V18.3341C12.7083 18.6758 12.425 18.9591 12.0833 18.9591ZM8.54163 17.7091H11.4583V16.2508C11.4583 15.2008 11.05 14.7925 9.99996 14.7925C8.94996 14.7925 8.54163 15.2008 8.54163 16.2508V17.7091Z" fill="white"/>
</svg>
